G04 start of page 2 for group 0 idx 0 *
G04 Title: (unknown), component *
G04 Creator: pcb 20110918 *
G04 CreationDate: Tue 05 Jan 2016 03:28:18 AM GMT UTC *
G04 For: railfan *
G04 Format: Gerber/RS-274X *
G04 PCB-Dimensions: 210000 270000 *
G04 PCB-Coordinate-Origin: lower left *
%MOIN*%
%FSLAX25Y25*%
%LNTOP*%
%ADD34C,0.1285*%
%ADD33C,0.0380*%
%ADD32R,0.0256X0.0256*%
%ADD31R,0.0236X0.0236*%
%ADD30R,0.0300X0.0300*%
%ADD29R,0.0945X0.0945*%
%ADD28R,0.0378X0.0378*%
%ADD27R,0.0200X0.0200*%
%ADD26R,0.0167X0.0167*%
%ADD25R,0.0276X0.0276*%
%ADD24R,0.0394X0.0394*%
%ADD23R,0.0315X0.0315*%
%ADD22R,0.0500X0.0500*%
%ADD21R,0.0512X0.0512*%
%ADD20R,0.0110X0.0110*%
%ADD19C,0.1500*%
%ADD18C,0.0600*%
%ADD17C,0.0680*%
%ADD16C,0.0400*%
%ADD15C,0.0500*%
%ADD14C,0.0100*%
%ADD13C,0.0250*%
%ADD12C,0.0200*%
%ADD11C,0.0001*%
G54D11*G36*
X106000Y227000D02*X117000D01*
Y217000D01*
X106000D01*
Y227000D01*
G37*
G36*
X174500Y156500D02*X179500D01*
Y142500D01*
X174500D01*
Y156500D01*
G37*
G36*
X164000Y146000D02*Y153000D01*
X179500D01*
Y146000D01*
X164000D01*
G37*
G36*
X36000Y258000D02*X48500D01*
Y228500D01*
X36000D01*
Y258000D01*
G37*
G36*
X18500Y243500D02*X27500D01*
X30500Y240500D01*
Y221500D01*
X18500D01*
Y243500D01*
G37*
G36*
X58500Y258000D02*Y252000D01*
X46500D01*
Y258000D01*
X58500D01*
G37*
G36*
X77500Y265000D02*X90500D01*
Y255500D01*
X77500D01*
Y265000D01*
G37*
G36*
X141000Y89000D02*Y99500D01*
X151000D01*
Y89000D01*
X141000D01*
G37*
G36*
X128500Y77000D02*X139000D01*
Y71500D01*
X128500D01*
Y77000D01*
G37*
G36*
X170827Y248052D02*X170837Y244744D01*
X170874Y244591D01*
X170934Y244445D01*
X171016Y244311D01*
X171118Y244191D01*
X171238Y244089D01*
X171372Y244007D01*
X171518Y243947D01*
X171671Y243910D01*
X171827Y243900D01*
X174243Y243906D01*
X174387Y243783D01*
X174388Y243783D01*
X174589Y243659D01*
X174807Y243569D01*
X175037Y243514D01*
X175272Y243495D01*
X175331Y243500D01*
X178500D01*
Y214500D01*
X154824D01*
Y214901D01*
X155093Y215065D01*
X155452Y215372D01*
X155759Y215731D01*
X156005Y216134D01*
X156186Y216570D01*
X156296Y217029D01*
X156324Y217500D01*
X156296Y217971D01*
X156186Y218430D01*
X156005Y218866D01*
X155759Y219269D01*
X155452Y219628D01*
X155093Y219935D01*
X154690Y220181D01*
X154254Y220362D01*
X153795Y220472D01*
X153324Y220509D01*
X152853Y220472D01*
X152394Y220362D01*
X151958Y220181D01*
X151555Y219935D01*
X151196Y219628D01*
X150889Y219269D01*
X150643Y218866D01*
X150462Y218430D01*
X150352Y217971D01*
X150315Y217500D01*
X150321Y217422D01*
X145704Y222038D01*
X145628Y222128D01*
X145269Y222435D01*
X144866Y222681D01*
X144430Y222862D01*
X143971Y222972D01*
X143500Y223009D01*
X143382Y223000D01*
X135743D01*
X133000Y225743D01*
Y242882D01*
X133009Y243000D01*
X132972Y243471D01*
X132972Y243471D01*
X132862Y243930D01*
X132681Y244366D01*
X132435Y244769D01*
X132128Y245128D01*
X132038Y245204D01*
X112500Y264743D01*
Y268500D01*
X178500D01*
Y246500D01*
X176760D01*
X176755Y248208D01*
X176718Y248361D01*
X176658Y248507D01*
X176576Y248641D01*
X176474Y248761D01*
X176354Y248863D01*
X176220Y248945D01*
X176074Y249005D01*
X175921Y249042D01*
X175764Y249052D01*
X171671Y249042D01*
X171518Y249005D01*
X171372Y248945D01*
X171238Y248863D01*
X171118Y248761D01*
X171016Y248641D01*
X170934Y248507D01*
X170874Y248361D01*
X170837Y248208D01*
X170827Y248052D01*
G37*
G54D12*X81630Y124000D02*Y119000D01*
G54D13*X73500D02*X85370D01*
G54D14*X69000D02*X77000Y127000D01*
X70500Y124000D02*X76000Y129500D01*
X96000D01*
G54D13*X68500Y114000D02*X73500Y119000D01*
G54D14*X60370D02*X69000D01*
X60370Y124000D02*X70500D01*
G54D13*X47000Y114000D02*X68500D01*
X47000Y115043D02*X39000D01*
X67000Y109000D02*X47000D01*
G54D14*X85370Y114000D02*X91500D01*
X85370Y109000D02*X95000D01*
G54D13*X47000Y40043D02*X39000D01*
G54D15*X39043Y215043D02*X39000Y38500D01*
G54D14*X70500Y74000D02*X76000Y79500D01*
X85370Y39000D02*X90000D01*
X91500Y40500D01*
Y46500D01*
G54D13*X68500Y89000D02*X73500Y94000D01*
G54D14*X69000D02*X77000Y102000D01*
X70500Y99000D02*X76000Y104500D01*
X60370Y149000D02*X70500D01*
X76000Y154500D01*
X60370Y174000D02*X70500D01*
X60370Y199000D02*X70500D01*
Y174000D02*X76000Y179500D01*
X70500Y199000D02*X76000Y204500D01*
Y154500D02*X96000D01*
X98000Y156500D01*
X76000Y179500D02*X96000D01*
X98000Y181500D01*
X76000Y204500D02*X96000D01*
X98000Y206500D01*
G54D12*X81630Y99000D02*Y94000D01*
G54D14*X85370Y89000D02*X91500D01*
X85370Y84000D02*X95000D01*
X77000Y102000D02*X98500D01*
G54D13*X73500Y94000D02*X130000D01*
G54D12*X81630Y74000D02*Y69000D01*
G54D13*X73500D02*X85370D01*
G54D14*Y64000D02*X91500D01*
X69000Y69000D02*X77000Y77000D01*
X98500D01*
X76000Y79500D02*X96000D01*
X98000Y81500D01*
X105500D01*
X76000Y104500D02*X96000D01*
X98000Y106500D01*
X109000D01*
G54D13*X47000Y89000D02*X68500D01*
X47000Y90043D02*X39000D01*
X67000Y84000D02*X47000D01*
G54D14*X60370Y94000D02*X69000D01*
G54D13*X68500Y64000D02*X73500Y69000D01*
X47000Y64000D02*X68500D01*
X47000Y65043D02*X39000D01*
G54D14*X60370Y69000D02*X69000D01*
X60370Y74000D02*X70500D01*
X60370Y99000D02*X70500D01*
G54D12*X81630Y49000D02*Y44000D01*
G54D13*X73500D02*X85370D01*
X67000Y59000D02*X47000D01*
G54D14*X85370D02*X95000D01*
X76000Y54500D02*X96000D01*
X98000Y56500D01*
X102000D01*
X69000Y44000D02*X77000Y52000D01*
X70500Y49000D02*X76000Y54500D01*
G54D13*X68500Y39000D02*X73500Y44000D01*
X47000Y39000D02*X68500D01*
X67000Y34000D02*X47000D01*
G54D14*X60370Y44000D02*X69000D01*
X60370Y49000D02*X70500D01*
X77000Y52000D02*X114000D01*
X119803Y46197D01*
X105000Y14252D02*X109803Y9449D01*
X105000Y22500D02*Y14252D01*
X85370Y34000D02*X93500D01*
X95000Y35500D01*
Y43000D01*
X91500Y46500D02*X105000D01*
X93500Y34000D02*X105000Y22500D01*
Y46500D02*X109803Y41697D01*
Y19449D01*
X119803Y46197D02*Y19449D01*
X147750Y148000D02*X105500D01*
X155500Y153000D02*X105000D01*
X147750Y143000D02*X115500D01*
X115000Y143500D01*
X109000D01*
X147750Y133000D02*X112500D01*
X147750Y128000D02*X116000D01*
X147750Y138000D02*X104500D01*
G54D12*X81630Y149000D02*Y144000D01*
G54D14*X69000D02*X77000Y152000D01*
X98500D01*
X98000Y156500D02*X112500D01*
X105000Y153000D02*X102000Y150000D01*
Y144000D01*
G54D13*X73500D02*X85370D01*
G54D14*Y139000D02*X91500D01*
X85370Y134000D02*X95000D01*
X77000Y127000D02*X98500D01*
X96000Y129500D02*X104500Y138000D01*
G54D13*X68500Y139000D02*X73500Y144000D01*
G54D14*X60370D02*X69000D01*
G54D13*X47000Y139000D02*X68500D01*
X47000Y140043D02*X39000D01*
X67000Y134000D02*X47000D01*
G54D12*X81630Y174000D02*Y169000D01*
G54D13*X73500D02*X85370D01*
X68500Y164000D02*X73500Y169000D01*
X47000Y164000D02*X68500D01*
X47000Y189000D02*X68500D01*
X67000Y184000D02*X47000D01*
X67000Y159000D02*X47000D01*
G54D14*X60370Y169000D02*X69000D01*
X77000Y177000D01*
G54D12*X81630Y199000D02*Y194000D01*
G54D13*X73500D02*X85370D01*
X68500Y189000D02*X73500Y194000D01*
G54D14*X77000Y202000D02*X98500D01*
X106000Y190000D02*Y202500D01*
X102000Y206500D01*
X60370Y194000D02*X69000D01*
X77000Y202000D01*
G54D13*X47000Y214000D02*X68500D01*
X67000Y209000D02*X47000D01*
Y215043D02*X39000D01*
X47000Y190043D02*X39000D01*
X47000Y165043D02*X39000D01*
G54D14*X85370Y164000D02*X91500D01*
X85370Y159000D02*X95000D01*
X77000Y177000D02*X98500D01*
X85370Y189000D02*X91500D01*
X85370Y184000D02*X95000D01*
X98000Y181500D02*X116000D01*
X119500Y187500D02*X108500D01*
X106000Y190000D01*
X158000Y176086D02*Y172500D01*
X154500Y169000D01*
X151500D02*X154500D01*
X148000Y165500D02*Y161914D01*
Y165500D02*X151500Y169000D01*
X189000Y161000D02*X168000D01*
X185500Y181000D02*X165500D01*
X162500Y184000D01*
X142500D01*
X138000Y179500D01*
X157500Y138000D02*X168250D01*
Y143000D02*X160000D01*
X158000Y145000D01*
Y150500D01*
X155500Y153000D01*
X147750Y123000D02*X119500D01*
X147750Y118000D02*X123000D01*
G54D12*X147750Y113000D02*Y104043D01*
G54D14*Y113000D02*X153500D01*
X155500Y115000D01*
X153000Y107500D02*X157500Y112000D01*
X185500Y102500D02*X175000Y113000D01*
X168250D01*
X162000Y115000D02*X165000Y118000D01*
X168250D01*
Y123000D02*X162000D01*
X159500Y120500D01*
X155500Y115000D02*Y136000D01*
X157500Y138000D01*
Y112000D02*Y131000D01*
X159500Y133000D01*
X183000D02*X159500D01*
X161914Y70000D02*X180000D01*
X190000Y80000D01*
X200000D01*
Y70000D02*X205000Y75000D01*
X160000Y80000D02*X176086D01*
Y100000D02*X190000D01*
X200000Y90000D01*
X189000Y111500D02*Y108500D01*
X191500Y106000D01*
X200000D01*
X195500Y102500D02*X185500D01*
Y65000D02*X190500Y60000D01*
X200000D01*
X205000Y75000D02*Y93000D01*
X195500Y102500D01*
X176086Y80000D02*Y87914D01*
X162000Y102000D01*
X168250Y128000D02*X177000D01*
X200000Y116000D02*X183000Y133000D01*
G54D13*X130000Y94000D02*X140000Y104000D01*
X130000Y94000D02*X137000Y87000D01*
Y79500D01*
X140000Y104000D02*X147750D01*
G54D14*X159500Y120500D02*Y82500D01*
X143848Y79075D02*X150500D01*
X162000Y102000D02*Y115000D01*
X153000Y84500D02*Y107500D01*
X143848Y72776D02*X152776D01*
X152000Y75000D02*X148500D01*
X147575Y75925D01*
X143848D01*
X152776Y72776D02*X160000Y80000D01*
X159500Y82500D02*X152000Y75000D01*
X153000Y84500D02*X152000Y83500D01*
X148500D01*
X147224Y82224D01*
X143848D01*
G54D16*X130000Y243000D02*Y224500D01*
X134500Y220000D01*
G54D14*X125000Y221000D02*Y241000D01*
X140331Y211669D02*X137500Y214500D01*
X131500D01*
X125000Y221000D01*
G54D16*X134500Y220000D02*X143500D01*
G54D14*X123000Y240000D02*Y203500D01*
X126000Y200500D01*
G54D13*X148993Y210000D02*Y195500D01*
G54D14*X140331Y205138D02*Y211669D01*
X126000Y200500D02*X143500D01*
X144662Y201662D01*
Y205138D01*
G54D16*X148993Y209993D02*Y214507D01*
X143500Y220000D01*
G54D13*X157654Y205138D02*Y195500D01*
X170647Y205138D02*Y198147D01*
G54D14*X161985Y210775D02*Y205138D01*
X153324Y217500D02*Y205138D01*
G54D13*X170647Y198147D02*X168000Y195500D01*
X157043D01*
G54D14*X175272Y245000D02*X173796Y246476D01*
X175272Y245000D02*X189500D01*
X200086Y255000D02*Y245000D01*
X185914Y225000D02*Y218500D01*
X189500Y245000D02*X193000Y241500D01*
X196500Y235000D02*X200086D01*
X196500D02*X193000Y238500D01*
Y241500D02*Y238500D01*
G54D16*X27000Y263000D02*X110000D01*
X130000Y243000D01*
G54D14*X114531Y251469D02*X108291D01*
X110469Y247531D02*X114500Y243500D01*
X104453Y256291D02*Y251795D01*
X125000Y241000D02*X114531Y251469D01*
X108291Y249500D02*X113500D01*
X123000Y240000D01*
X108291Y245563D02*Y240209D01*
X108000Y257000D02*X104453D01*
X98547Y256291D02*Y263000D01*
G54D13*X103000Y230500D02*X109000D01*
G54D14*X103000Y236000D02*Y230500D01*
X108291Y240209D02*X111000Y237500D01*
X117000D01*
X108291Y247531D02*X110469D01*
X98547Y242709D02*Y240453D01*
X103000Y236000D01*
X104453Y242709D02*Y239047D01*
X106500Y237000D01*
X95000Y235500D02*Y245563D01*
X94709Y247531D02*X92531D01*
X88500Y243500D01*
X94709Y249500D02*X91500D01*
X89000Y247000D01*
X83500D01*
X94709Y251469D02*X90469D01*
X89500Y250500D01*
X87000D01*
G54D16*X88500Y255500D02*X79500D01*
X23142Y253406D02*Y259142D01*
X27000Y263000D01*
G54D15*X10000Y150000D02*X39027D01*
G54D16*X33400Y178000D02*X39500D01*
X26600D02*X21000D01*
G54D14*Y150000D02*Y164957D01*
X14000Y171957D01*
Y179043D02*Y190457D01*
Y197543D02*Y203500D01*
G54D12*X81630Y224000D02*Y219000D01*
G54D14*X77000Y227000D02*X94709D01*
X76000Y229500D02*X98500D01*
G54D13*X68500Y214000D02*X73500Y219000D01*
G54D14*X69000D02*X77000Y227000D01*
X70500Y224000D02*X76000Y229500D01*
X60370Y219000D02*X69000D01*
G54D13*X73500D02*X100000D01*
G54D14*X85370Y214000D02*X91500D01*
X85370Y209000D02*X95000D01*
X98000Y206500D02*X102000D01*
X94709Y227000D02*X98209Y223500D01*
G54D13*X100000Y219000D02*X103000Y222000D01*
Y230500D01*
G54D14*X60370Y224000D02*X70500D01*
G54D11*G36*
X196600Y23400D02*Y16600D01*
X203400D01*
Y23400D01*
X196600D01*
G37*
G54D17*X200000Y30000D03*
Y40000D03*
Y50000D03*
Y60000D03*
Y70000D03*
G54D11*G36*
X116803Y22449D02*Y16449D01*
X122803D01*
Y22449D01*
X116803D01*
G37*
G54D18*X119803Y9449D03*
X109803D03*
X99803D03*
G54D19*X140000Y10000D03*
G54D18*X109803Y19449D03*
X99803D03*
G54D17*X10000Y130000D03*
Y120000D03*
Y110000D03*
Y100000D03*
G54D11*G36*
X6600Y163400D02*Y156600D01*
X13400D01*
Y163400D01*
X6600D01*
G37*
G54D17*X10000Y150000D03*
Y140000D03*
G54D19*Y215000D03*
G54D17*Y90000D03*
Y70000D03*
Y60000D03*
Y50000D03*
Y40000D03*
Y30000D03*
Y20000D03*
G54D19*X30000Y10000D03*
G54D17*X200000Y80000D03*
Y90000D03*
Y106000D03*
Y116000D03*
Y126000D03*
Y136000D03*
Y146000D03*
Y156000D03*
Y166000D03*
Y176000D03*
Y186000D03*
Y196000D03*
G54D19*Y210000D03*
G54D20*X107169Y245563D02*X109413D01*
X107169Y247531D02*X109413D01*
X107169Y249500D02*X109413D01*
X107169Y251469D02*X109413D01*
G54D21*X108607Y224457D02*X109393D01*
X108607Y231543D02*X109393D01*
G54D20*X107169Y253437D02*X109413D01*
X104453Y257413D02*Y255169D01*
X98547Y257413D02*Y255169D01*
G54D11*G36*
X102091Y253319D02*Y250091D01*
X105319D01*
Y253319D01*
X102091D01*
G37*
G36*
X97681D02*Y250091D01*
X100909D01*
Y253319D01*
X97681D01*
G37*
G36*
X97464Y253536D02*Y245464D01*
X105536D01*
Y253536D01*
X97464D01*
G37*
G54D20*X93587Y249500D02*X95831D01*
X93587Y247531D02*X95831D01*
X93587Y245563D02*X95831D01*
X98547Y243831D02*Y241587D01*
X104453Y243831D02*Y241587D01*
G54D11*G36*
X102091Y248909D02*Y245681D01*
X105319D01*
Y248909D01*
X102091D01*
G37*
G36*
X97681D02*Y245681D01*
X100909D01*
Y248909D01*
X97681D01*
G37*
G54D20*X93587Y251469D02*X95831D01*
G54D22*X196760Y255000D02*X203413D01*
G54D21*X120646Y265769D02*Y263406D01*
G54D22*X182587Y245000D02*X189240D01*
X196760Y235000D02*X203413D01*
X182587Y225000D02*X189240D01*
G54D23*X173403Y246476D02*X174189D01*
G54D24*X173795Y266358D02*Y259270D01*
X173796Y222460D02*Y221672D01*
G54D21*X157043Y195893D02*Y195107D01*
X149957Y195893D02*Y195107D01*
G54D25*X153324Y206122D02*Y204153D01*
X157654Y206122D02*Y204153D01*
X136001Y206122D02*Y204153D01*
X140331Y206122D02*Y204153D01*
X144662Y206122D02*Y204153D01*
X148993Y206122D02*Y204153D01*
X161985Y206122D02*Y204153D01*
X166316Y206122D02*Y204153D01*
X170647Y206122D02*Y204153D01*
G54D24*X129899Y205531D02*Y204743D01*
G54D22*X172760Y100000D02*X179413D01*
X158587Y90000D02*X165240D01*
X172760Y80000D02*X179413D01*
X158587Y70000D02*X165240D01*
G54D26*X136217Y82224D02*X138087D01*
X136217Y79075D02*X138087D01*
X136217Y75925D02*X138087D01*
X136217Y72776D02*X138087D01*
X142913D02*X144783D01*
X142913Y75925D02*X144783D01*
X142913Y79075D02*X144783D01*
X142913Y82224D02*X144783D01*
G54D21*X147607Y96957D02*X148393D01*
X147607Y104043D02*X148393D01*
G54D27*X165000Y113000D02*X171500D01*
X165000Y118000D02*X171500D01*
X165000Y123000D02*X171500D01*
G54D22*X168000Y165240D02*Y158587D01*
X158000Y179413D02*Y172760D01*
G54D27*X165000Y128000D02*X171500D01*
X144500D02*X151000D01*
X144500Y123000D02*X151000D01*
X144500Y118000D02*X151000D01*
X144500Y113000D02*X151000D01*
X165000Y133000D02*X171500D01*
X144500D02*X151000D01*
X165000Y138000D02*X171500D01*
X144500D02*X151000D01*
X165000Y143000D02*X171500D01*
X165000Y148000D02*X171500D01*
X144500D02*X151000D01*
X144500Y143000D02*X151000D01*
G54D22*X148000Y165240D02*Y158587D01*
X138000Y179413D02*Y172760D01*
G54D28*X21095Y253406D02*X25189D01*
X21095Y247500D02*X32905D01*
G54D29*X34639D02*X36529D01*
G54D11*G36*
X27074Y249385D02*X29914Y252225D01*
X31334Y250805D01*
X28494Y247965D01*
X27074Y249385D01*
G37*
G36*
X28494Y247035D02*X31334Y244195D01*
X29914Y242775D01*
X27074Y245615D01*
X28494Y247035D01*
G37*
G54D28*X21095Y241594D02*X25189D01*
G54D18*X33400Y178000D03*
G54D30*X31900Y179500D02*Y176500D01*
G54D18*X26600Y178000D03*
G54D30*X28100Y179500D02*Y176500D01*
G54D21*X35043Y231893D02*Y231107D01*
X27957Y231893D02*Y231107D01*
X13607Y197543D02*X14393D01*
X13607Y190457D02*X14393D01*
X13607Y179043D02*X14393D01*
X13607Y171957D02*X14393D01*
G54D20*X93587Y253437D02*X95831D01*
G54D21*X54607Y254957D02*X55393D01*
X54607Y262043D02*X55393D01*
G54D31*X58500Y224000D02*X62240D01*
X58500Y219000D02*X62240D01*
X58500Y214000D02*X62240D01*
X79760Y209000D02*X83500D01*
X79760Y214000D02*X83500D01*
X79760Y219000D02*X83500D01*
G54D32*X83303Y209000D02*X87437D01*
X83303Y214000D02*X87437D01*
X83303Y219000D02*X87437D01*
G54D31*X79760Y224000D02*X83500D01*
G54D32*X83303D02*X87437D01*
X54563D02*X58697D01*
X54563Y219000D02*X58697D01*
X54563Y214000D02*X58697D01*
X54563Y209000D02*X58697D01*
G54D21*X46607Y207957D02*X47393D01*
X46607Y215043D02*X47393D01*
G54D31*X58500Y209000D02*X62240D01*
X58500Y199000D02*X62240D01*
X58500Y194000D02*X62240D01*
X79760D02*X83500D01*
G54D32*X83303D02*X87437D01*
G54D31*X79760Y199000D02*X83500D01*
G54D32*X83303D02*X87437D01*
X54563D02*X58697D01*
X54563Y194000D02*X58697D01*
X54563Y189000D02*X58697D01*
X54563Y184000D02*X58697D01*
G54D21*X46607Y182957D02*X47393D01*
X46607Y190043D02*X47393D01*
G54D31*X58500Y189000D02*X62240D01*
X58500Y184000D02*X62240D01*
X58500Y174000D02*X62240D01*
X58500Y169000D02*X62240D01*
G54D32*X54563Y174000D02*X58697D01*
G54D31*X79760Y184000D02*X83500D01*
G54D32*X83303D02*X87437D01*
G54D31*X79760Y189000D02*X83500D01*
G54D32*X83303D02*X87437D01*
G54D31*X79760Y169000D02*X83500D01*
X79760Y174000D02*X83500D01*
G54D32*X83303Y169000D02*X87437D01*
X83303Y174000D02*X87437D01*
G54D31*X58500Y164000D02*X62240D01*
G54D32*X54563D02*X58697D01*
G54D21*X46607Y165043D02*X47393D01*
G54D31*X58500Y159000D02*X62240D01*
G54D32*X54563D02*X58697D01*
G54D21*X46607Y157957D02*X47393D01*
G54D32*X54563Y169000D02*X58697D01*
G54D31*X79760Y159000D02*X83500D01*
X79760Y164000D02*X83500D01*
G54D32*X83303Y159000D02*X87437D01*
X83303Y164000D02*X87437D01*
G54D31*X79760Y134000D02*X83500D01*
X79760Y139000D02*X83500D01*
G54D32*X83303Y134000D02*X87437D01*
X83303Y139000D02*X87437D01*
G54D31*X79760Y144000D02*X83500D01*
X79760Y149000D02*X83500D01*
G54D32*X83303Y144000D02*X87437D01*
X83303Y149000D02*X87437D01*
G54D31*X58500D02*X62240D01*
X58500Y144000D02*X62240D01*
X58500Y139000D02*X62240D01*
G54D32*X54563Y149000D02*X58697D01*
X54563Y144000D02*X58697D01*
X54563Y139000D02*X58697D01*
X54563Y134000D02*X58697D01*
G54D21*X46607Y132957D02*X47393D01*
X46607Y140043D02*X47393D01*
G54D31*X58500Y134000D02*X62240D01*
X58500Y124000D02*X62240D01*
X58500Y119000D02*X62240D01*
X58500Y109000D02*X62240D01*
G54D32*X54563D02*X58697D01*
G54D21*X46607Y107957D02*X47393D01*
G54D32*X54563Y124000D02*X58697D01*
X54563Y119000D02*X58697D01*
X54563Y114000D02*X58697D01*
G54D21*X46607Y115043D02*X47393D01*
G54D31*X58500Y114000D02*X62240D01*
X58500Y99000D02*X62240D01*
X58500Y94000D02*X62240D01*
G54D32*X54563Y99000D02*X58697D01*
G54D31*X79760Y109000D02*X83500D01*
G54D32*X83303D02*X87437D01*
G54D31*X79760Y99000D02*X83500D01*
X79760Y114000D02*X83500D01*
X79760Y119000D02*X83500D01*
X79760Y124000D02*X83500D01*
G54D32*X83303Y114000D02*X87437D01*
X83303Y119000D02*X87437D01*
X83303Y124000D02*X87437D01*
X83303Y94000D02*X87437D01*
X83303Y99000D02*X87437D01*
G54D31*X58500Y84000D02*X62240D01*
G54D32*X54563D02*X58697D01*
G54D21*X46607Y82957D02*X47393D01*
G54D32*X54563Y94000D02*X58697D01*
X54563Y89000D02*X58697D01*
G54D21*X46607Y90043D02*X47393D01*
G54D31*X58500Y89000D02*X62240D01*
X58500Y74000D02*X62240D01*
X58500Y69000D02*X62240D01*
G54D32*X54563Y74000D02*X58697D01*
G54D31*X79760Y84000D02*X83500D01*
X79760Y89000D02*X83500D01*
X79760Y94000D02*X83500D01*
G54D32*X83303Y84000D02*X87437D01*
X83303Y89000D02*X87437D01*
G54D31*X79760Y59000D02*X83500D01*
X79760Y64000D02*X83500D01*
G54D32*X83303Y59000D02*X87437D01*
X83303Y64000D02*X87437D01*
G54D31*X79760Y69000D02*X83500D01*
X79760Y74000D02*X83500D01*
G54D32*X83303Y69000D02*X87437D01*
X83303Y74000D02*X87437D01*
G54D31*X79760Y34000D02*X83500D01*
G54D32*X83303D02*X87437D01*
G54D31*X79760Y39000D02*X83500D01*
X79760Y44000D02*X83500D01*
X79760Y49000D02*X83500D01*
G54D32*X83303Y39000D02*X87437D01*
X83303Y44000D02*X87437D01*
X83303Y49000D02*X87437D01*
G54D31*X58500Y59000D02*X62240D01*
G54D32*X54563D02*X58697D01*
G54D21*X46607Y57957D02*X47393D01*
G54D32*X54563Y69000D02*X58697D01*
X54563Y64000D02*X58697D01*
G54D21*X46607Y65043D02*X47393D01*
G54D31*X58500Y64000D02*X62240D01*
X58500Y49000D02*X62240D01*
X58500Y44000D02*X62240D01*
X58500Y39000D02*X62240D01*
X58500Y34000D02*X62240D01*
G54D32*X54563D02*X58697D01*
G54D21*X46607Y32957D02*X47393D01*
G54D32*X54563Y49000D02*X58697D01*
X54563Y44000D02*X58697D01*
X54563Y39000D02*X58697D01*
G54D21*X46607Y40043D02*X47393D01*
G54D16*X21000Y229000D03*
Y234000D03*
Y224000D03*
Y178000D03*
X38500Y255500D03*
Y239500D03*
X45500Y240500D03*
Y247500D03*
Y254500D03*
X14000Y203500D03*
X67000Y209000D03*
X185914Y218500D03*
X114500Y224500D03*
Y219500D03*
X98500Y223500D03*
X161985Y210775D03*
X163000Y195500D03*
X168000D03*
X153324Y217500D03*
X153000Y169000D03*
X102000Y144000D03*
X105500Y148000D03*
X109000Y143500D03*
X112500Y133000D03*
X116000Y128000D03*
X119500Y123000D03*
X91500Y139000D03*
X95000Y134000D03*
X98500Y202000D03*
Y177000D03*
Y152000D03*
Y127000D03*
X112500Y156500D03*
X123000Y118000D03*
X108000Y257000D03*
X114500Y243500D03*
X116000Y181500D03*
X119500Y187500D03*
X117000Y237500D03*
X106500Y237000D03*
X91500Y214000D03*
X95000Y209000D03*
X91500Y189000D03*
X95000Y184000D03*
X91500Y164000D03*
X95000Y159000D03*
X98500Y229500D03*
X95000Y235500D03*
X88500Y243500D03*
X83500Y247000D03*
X87000Y250500D03*
X79500Y255500D03*
X84000D03*
X88500D03*
X200086Y245000D03*
X189000Y161000D03*
Y111500D03*
X185500Y181000D03*
Y65000D03*
X193000Y240000D03*
X177000Y128000D03*
Y149500D03*
Y154000D03*
Y145000D03*
X67000Y184000D03*
Y159000D03*
Y134000D03*
Y109000D03*
Y84000D03*
Y59000D03*
Y34000D03*
X91500Y114000D03*
X95000Y109000D03*
X98500Y102000D03*
X91500Y89000D03*
X95000Y84000D03*
X98500Y77000D03*
X91500Y64000D03*
X95000Y59000D03*
X98500Y52000D03*
X102000Y56500D03*
X91500Y46500D03*
X95000Y43000D03*
X105500Y81500D03*
X131000Y74000D03*
X109000Y106500D03*
X148000Y91500D03*
X150500Y79075D03*
G54D12*G54D33*G54D34*G54D33*G54D34*G54D33*G54D34*G54D33*G54D34*M02*
