G04 start of page 3 for group 1 idx 1 *
G04 Title: (unknown), solder *
G04 Creator: pcb 20110918 *
G04 CreationDate: Tue 05 Jan 2016 03:28:18 AM GMT UTC *
G04 For: railfan *
G04 Format: Gerber/RS-274X *
G04 PCB-Dimensions: 210000 270000 *
G04 PCB-Coordinate-Origin: lower left *
%MOIN*%
%FSLAX25Y25*%
%LNBOTTOM*%
%ADD43C,0.1285*%
%ADD42C,0.0380*%
%ADD41C,0.0200*%
%ADD40C,0.1500*%
%ADD39C,0.0600*%
%ADD38C,0.0680*%
%ADD37C,0.0100*%
%ADD36C,0.0400*%
%ADD35C,0.0001*%
G54D35*G36*
X119796Y14000D02*X132482D01*
X132403Y13871D01*
X131891Y12635D01*
X131579Y11334D01*
X131474Y10000D01*
X131579Y8666D01*
X131891Y7365D01*
X132403Y6129D01*
X133102Y4988D01*
X133971Y3971D01*
X134988Y3102D01*
X135971Y2500D01*
X119796D01*
Y4936D01*
X119803Y4935D01*
X120509Y4991D01*
X121198Y5156D01*
X121852Y5427D01*
X122456Y5797D01*
X122995Y6257D01*
X123455Y6796D01*
X123825Y7400D01*
X124096Y8054D01*
X124261Y8743D01*
X124303Y9449D01*
X124261Y10155D01*
X124096Y10844D01*
X123825Y11498D01*
X123455Y12102D01*
X122995Y12641D01*
X122456Y13101D01*
X121852Y13471D01*
X121198Y13742D01*
X120509Y13907D01*
X119803Y13963D01*
X119796Y13962D01*
Y14000D01*
G37*
G36*
X109796D02*X119796D01*
Y13962D01*
X119097Y13907D01*
X118408Y13742D01*
X117754Y13471D01*
X117150Y13101D01*
X116611Y12641D01*
X116151Y12102D01*
X115781Y11498D01*
X115510Y10844D01*
X115345Y10155D01*
X115289Y9449D01*
X115345Y8743D01*
X115510Y8054D01*
X115781Y7400D01*
X116151Y6796D01*
X116611Y6257D01*
X117150Y5797D01*
X117754Y5427D01*
X118408Y5156D01*
X119097Y4991D01*
X119796Y4936D01*
Y2500D01*
X109796D01*
Y4936D01*
X109803Y4935D01*
X110509Y4991D01*
X111198Y5156D01*
X111852Y5427D01*
X112456Y5797D01*
X112995Y6257D01*
X113455Y6796D01*
X113825Y7400D01*
X114096Y8054D01*
X114261Y8743D01*
X114303Y9449D01*
X114261Y10155D01*
X114096Y10844D01*
X113825Y11498D01*
X113455Y12102D01*
X112995Y12641D01*
X112456Y13101D01*
X111852Y13471D01*
X111198Y13742D01*
X110509Y13907D01*
X109803Y13963D01*
X109796Y13962D01*
Y14000D01*
G37*
G36*
X103416D02*X109796D01*
Y13962D01*
X109097Y13907D01*
X108408Y13742D01*
X107754Y13471D01*
X107150Y13101D01*
X106611Y12641D01*
X106151Y12102D01*
X105781Y11498D01*
X105510Y10844D01*
X105345Y10155D01*
X105289Y9449D01*
X105345Y8743D01*
X105510Y8054D01*
X105781Y7400D01*
X106151Y6796D01*
X106611Y6257D01*
X107150Y5797D01*
X107754Y5427D01*
X108408Y5156D01*
X109097Y4991D01*
X109796Y4936D01*
Y2500D01*
X103416D01*
Y7302D01*
X103459Y7309D01*
X103571Y7346D01*
X103676Y7401D01*
X103771Y7471D01*
X103854Y7555D01*
X103922Y7651D01*
X103973Y7757D01*
X104121Y8165D01*
X104225Y8586D01*
X104287Y9016D01*
X104308Y9449D01*
X104287Y9882D01*
X104225Y10312D01*
X104121Y10733D01*
X103978Y11143D01*
X103925Y11249D01*
X103856Y11345D01*
X103773Y11430D01*
X103678Y11500D01*
X103572Y11555D01*
X103460Y11592D01*
X103416Y11600D01*
Y14000D01*
G37*
G36*
X99805D02*X103416D01*
Y11600D01*
X103343Y11612D01*
X103224Y11613D01*
X103107Y11595D01*
X102994Y11559D01*
X102888Y11506D01*
X102791Y11437D01*
X102707Y11354D01*
X102636Y11258D01*
X102582Y11153D01*
X102544Y11041D01*
X102525Y10924D01*
X102524Y10805D01*
X102542Y10688D01*
X102580Y10575D01*
X102679Y10304D01*
X102747Y10024D01*
X102789Y9738D01*
X102803Y9449D01*
X102789Y9160D01*
X102747Y8874D01*
X102679Y8594D01*
X102583Y8321D01*
X102545Y8210D01*
X102528Y8093D01*
X102528Y7975D01*
X102548Y7858D01*
X102585Y7746D01*
X102639Y7642D01*
X102709Y7547D01*
X102794Y7464D01*
X102890Y7395D01*
X102995Y7342D01*
X103108Y7306D01*
X103224Y7289D01*
X103342Y7290D01*
X103416Y7302D01*
Y2500D01*
X99805D01*
Y4944D01*
X100236Y4965D01*
X100666Y5027D01*
X101087Y5131D01*
X101497Y5274D01*
X101603Y5327D01*
X101699Y5396D01*
X101784Y5479D01*
X101854Y5574D01*
X101909Y5680D01*
X101946Y5792D01*
X101966Y5909D01*
X101967Y6028D01*
X101949Y6145D01*
X101913Y6258D01*
X101860Y6364D01*
X101791Y6461D01*
X101708Y6545D01*
X101612Y6616D01*
X101507Y6670D01*
X101395Y6708D01*
X101278Y6727D01*
X101159Y6728D01*
X101042Y6710D01*
X100929Y6672D01*
X100658Y6573D01*
X100378Y6505D01*
X100092Y6463D01*
X99805Y6449D01*
Y12449D01*
X100092Y12435D01*
X100378Y12393D01*
X100658Y12325D01*
X100931Y12229D01*
X101042Y12191D01*
X101159Y12174D01*
X101277Y12174D01*
X101394Y12194D01*
X101506Y12231D01*
X101610Y12285D01*
X101705Y12355D01*
X101788Y12440D01*
X101857Y12536D01*
X101910Y12641D01*
X101946Y12754D01*
X101963Y12870D01*
X101962Y12988D01*
X101943Y13105D01*
X101906Y13217D01*
X101851Y13322D01*
X101781Y13417D01*
X101697Y13500D01*
X101601Y13568D01*
X101495Y13619D01*
X101087Y13767D01*
X100666Y13871D01*
X100236Y13933D01*
X99805Y13954D01*
Y14000D01*
G37*
G36*
X96190D02*X99805D01*
Y13954D01*
X99803Y13954D01*
X99370Y13933D01*
X98940Y13871D01*
X98519Y13767D01*
X98109Y13624D01*
X98003Y13571D01*
X97907Y13502D01*
X97822Y13419D01*
X97752Y13324D01*
X97697Y13218D01*
X97660Y13106D01*
X97640Y12989D01*
X97639Y12870D01*
X97657Y12753D01*
X97693Y12640D01*
X97746Y12534D01*
X97815Y12437D01*
X97898Y12353D01*
X97994Y12282D01*
X98099Y12228D01*
X98211Y12190D01*
X98328Y12171D01*
X98447Y12170D01*
X98564Y12188D01*
X98677Y12226D01*
X98948Y12325D01*
X99228Y12393D01*
X99514Y12435D01*
X99803Y12449D01*
X99805Y12449D01*
Y6449D01*
X99803Y6449D01*
X99514Y6463D01*
X99228Y6505D01*
X98948Y6573D01*
X98675Y6669D01*
X98564Y6707D01*
X98447Y6724D01*
X98329Y6724D01*
X98212Y6704D01*
X98100Y6667D01*
X97996Y6613D01*
X97901Y6543D01*
X97818Y6458D01*
X97749Y6362D01*
X97696Y6257D01*
X97660Y6144D01*
X97643Y6028D01*
X97644Y5910D01*
X97663Y5793D01*
X97700Y5681D01*
X97755Y5576D01*
X97825Y5481D01*
X97909Y5398D01*
X98005Y5330D01*
X98111Y5279D01*
X98519Y5131D01*
X98940Y5027D01*
X99370Y4965D01*
X99803Y4944D01*
X99805Y4944D01*
Y2500D01*
X96190D01*
Y7298D01*
X96263Y7286D01*
X96382Y7285D01*
X96499Y7303D01*
X96612Y7339D01*
X96718Y7392D01*
X96815Y7461D01*
X96899Y7544D01*
X96970Y7640D01*
X97024Y7745D01*
X97062Y7857D01*
X97081Y7974D01*
X97082Y8093D01*
X97064Y8210D01*
X97026Y8323D01*
X96927Y8594D01*
X96859Y8874D01*
X96817Y9160D01*
X96803Y9449D01*
X96817Y9738D01*
X96859Y10024D01*
X96927Y10304D01*
X97023Y10577D01*
X97061Y10688D01*
X97078Y10805D01*
X97078Y10923D01*
X97058Y11040D01*
X97021Y11152D01*
X96967Y11256D01*
X96897Y11351D01*
X96812Y11434D01*
X96716Y11503D01*
X96611Y11556D01*
X96498Y11592D01*
X96382Y11609D01*
X96264Y11608D01*
X96190Y11596D01*
Y14000D01*
G37*
G36*
X37518D02*X96190D01*
Y11596D01*
X96147Y11589D01*
X96035Y11552D01*
X95930Y11497D01*
X95835Y11427D01*
X95752Y11343D01*
X95684Y11247D01*
X95633Y11141D01*
X95485Y10733D01*
X95381Y10312D01*
X95319Y9882D01*
X95298Y9449D01*
X95319Y9016D01*
X95381Y8586D01*
X95485Y8165D01*
X95628Y7755D01*
X95681Y7649D01*
X95750Y7553D01*
X95833Y7468D01*
X95928Y7398D01*
X96034Y7343D01*
X96146Y7306D01*
X96190Y7298D01*
Y2500D01*
X34029D01*
X35012Y3102D01*
X36029Y3971D01*
X36898Y4988D01*
X37597Y6129D01*
X38109Y7365D01*
X38421Y8666D01*
X38500Y10000D01*
X38421Y11334D01*
X38109Y12635D01*
X37597Y13871D01*
X37518Y14000D01*
G37*
G36*
X200000Y267500D02*X207500D01*
Y214029D01*
X206898Y215012D01*
X206029Y216029D01*
X205012Y216898D01*
X203871Y217597D01*
X202635Y218109D01*
X201334Y218421D01*
X200000Y218526D01*
Y221379D01*
X201105Y222484D01*
X201150Y222522D01*
X201303Y222701D01*
X201303Y222702D01*
X201427Y222903D01*
X201517Y223121D01*
X201572Y223351D01*
X201591Y223586D01*
X201586Y223645D01*
Y242401D01*
X201855Y242565D01*
X202214Y242872D01*
X202521Y243231D01*
X202767Y243634D01*
X202948Y244070D01*
X203058Y244529D01*
X203086Y245000D01*
X203058Y245471D01*
X202948Y245930D01*
X202767Y246366D01*
X202521Y246769D01*
X202214Y247128D01*
X201855Y247435D01*
X201452Y247681D01*
X201016Y247862D01*
X200557Y247972D01*
X200086Y248009D01*
X200000Y248002D01*
Y267500D01*
G37*
G36*
Y35085D02*X200769Y35145D01*
X201519Y35325D01*
X202231Y35621D01*
X202889Y36024D01*
X203476Y36524D01*
X203976Y37111D01*
X204379Y37769D01*
X204675Y38481D01*
X204855Y39231D01*
X204900Y40000D01*
X204855Y40769D01*
X204675Y41519D01*
X204379Y42231D01*
X203976Y42889D01*
X203476Y43476D01*
X202889Y43976D01*
X202231Y44379D01*
X201519Y44675D01*
X200769Y44855D01*
X200000Y44915D01*
Y45085D01*
X200769Y45145D01*
X201519Y45325D01*
X202231Y45621D01*
X202889Y46024D01*
X203476Y46524D01*
X203976Y47111D01*
X204379Y47769D01*
X204675Y48481D01*
X204855Y49231D01*
X204900Y50000D01*
X204855Y50769D01*
X204675Y51519D01*
X204379Y52231D01*
X203976Y52889D01*
X203476Y53476D01*
X202889Y53976D01*
X202231Y54379D01*
X201519Y54675D01*
X200769Y54855D01*
X200000Y54915D01*
Y55085D01*
X200769Y55145D01*
X201519Y55325D01*
X202231Y55621D01*
X202889Y56024D01*
X203476Y56524D01*
X203976Y57111D01*
X204379Y57769D01*
X204675Y58481D01*
X204855Y59231D01*
X204900Y60000D01*
X204855Y60769D01*
X204675Y61519D01*
X204379Y62231D01*
X203976Y62889D01*
X203476Y63476D01*
X202889Y63976D01*
X202231Y64379D01*
X201519Y64675D01*
X200769Y64855D01*
X200000Y64915D01*
Y65085D01*
X200769Y65145D01*
X201519Y65325D01*
X202231Y65621D01*
X202889Y66024D01*
X203476Y66524D01*
X203976Y67111D01*
X204379Y67769D01*
X204675Y68481D01*
X204855Y69231D01*
X204900Y70000D01*
X204855Y70769D01*
X204675Y71519D01*
X204379Y72231D01*
X203976Y72889D01*
X203476Y73476D01*
X202889Y73976D01*
X202231Y74379D01*
X201519Y74675D01*
X200769Y74855D01*
X200000Y74915D01*
Y75085D01*
X200769Y75145D01*
X201519Y75325D01*
X202231Y75621D01*
X202889Y76024D01*
X203476Y76524D01*
X203976Y77111D01*
X204379Y77769D01*
X204675Y78481D01*
X204855Y79231D01*
X204900Y80000D01*
X204855Y80769D01*
X204675Y81519D01*
X204379Y82231D01*
X203976Y82889D01*
X203476Y83476D01*
X202889Y83976D01*
X202231Y84379D01*
X201519Y84675D01*
X200769Y84855D01*
X200000Y84915D01*
Y85085D01*
X200769Y85145D01*
X201519Y85325D01*
X202231Y85621D01*
X202889Y86024D01*
X203476Y86524D01*
X203976Y87111D01*
X204379Y87769D01*
X204675Y88481D01*
X204855Y89231D01*
X204900Y90000D01*
X204855Y90769D01*
X204675Y91519D01*
X204379Y92231D01*
X203976Y92889D01*
X203476Y93476D01*
X202889Y93976D01*
X202231Y94379D01*
X201519Y94675D01*
X200769Y94855D01*
X200000Y94915D01*
Y101085D01*
X200769Y101145D01*
X201519Y101325D01*
X202231Y101621D01*
X202889Y102024D01*
X203476Y102524D01*
X203976Y103111D01*
X204379Y103769D01*
X204675Y104481D01*
X204855Y105231D01*
X204900Y106000D01*
X204855Y106769D01*
X204675Y107519D01*
X204379Y108231D01*
X203976Y108889D01*
X203476Y109476D01*
X202889Y109976D01*
X202231Y110379D01*
X201519Y110675D01*
X200769Y110855D01*
X200000Y110915D01*
Y111085D01*
X200769Y111145D01*
X201519Y111325D01*
X202231Y111621D01*
X202889Y112024D01*
X203476Y112524D01*
X203976Y113111D01*
X204379Y113769D01*
X204675Y114481D01*
X204855Y115231D01*
X204900Y116000D01*
X204855Y116769D01*
X204675Y117519D01*
X204379Y118231D01*
X203976Y118889D01*
X203476Y119476D01*
X202889Y119976D01*
X202231Y120379D01*
X201519Y120675D01*
X200769Y120855D01*
X200000Y120915D01*
Y121085D01*
X200769Y121145D01*
X201519Y121325D01*
X202231Y121621D01*
X202889Y122024D01*
X203476Y122524D01*
X203976Y123111D01*
X204379Y123769D01*
X204675Y124481D01*
X204855Y125231D01*
X204900Y126000D01*
X204855Y126769D01*
X204675Y127519D01*
X204379Y128231D01*
X203976Y128889D01*
X203476Y129476D01*
X202889Y129976D01*
X202231Y130379D01*
X201519Y130675D01*
X200769Y130855D01*
X200000Y130915D01*
Y131085D01*
X200769Y131145D01*
X201519Y131325D01*
X202231Y131621D01*
X202889Y132024D01*
X203476Y132524D01*
X203976Y133111D01*
X204379Y133769D01*
X204675Y134481D01*
X204855Y135231D01*
X204900Y136000D01*
X204855Y136769D01*
X204675Y137519D01*
X204379Y138231D01*
X203976Y138889D01*
X203476Y139476D01*
X202889Y139976D01*
X202231Y140379D01*
X201519Y140675D01*
X200769Y140855D01*
X200000Y140915D01*
Y141085D01*
X200769Y141145D01*
X201519Y141325D01*
X202231Y141621D01*
X202889Y142024D01*
X203476Y142524D01*
X203976Y143111D01*
X204379Y143769D01*
X204675Y144481D01*
X204855Y145231D01*
X204900Y146000D01*
X204855Y146769D01*
X204675Y147519D01*
X204379Y148231D01*
X203976Y148889D01*
X203476Y149476D01*
X202889Y149976D01*
X202231Y150379D01*
X201519Y150675D01*
X200769Y150855D01*
X200000Y150915D01*
Y151085D01*
X200769Y151145D01*
X201519Y151325D01*
X202231Y151621D01*
X202889Y152024D01*
X203476Y152524D01*
X203976Y153111D01*
X204379Y153769D01*
X204675Y154481D01*
X204855Y155231D01*
X204900Y156000D01*
X204855Y156769D01*
X204675Y157519D01*
X204379Y158231D01*
X203976Y158889D01*
X203476Y159476D01*
X202889Y159976D01*
X202231Y160379D01*
X201519Y160675D01*
X200769Y160855D01*
X200000Y160915D01*
Y161085D01*
X200769Y161145D01*
X201519Y161325D01*
X202231Y161621D01*
X202889Y162024D01*
X203476Y162524D01*
X203976Y163111D01*
X204379Y163769D01*
X204675Y164481D01*
X204855Y165231D01*
X204900Y166000D01*
X204855Y166769D01*
X204675Y167519D01*
X204379Y168231D01*
X203976Y168889D01*
X203476Y169476D01*
X202889Y169976D01*
X202231Y170379D01*
X201519Y170675D01*
X200769Y170855D01*
X200000Y170915D01*
Y171085D01*
X200769Y171145D01*
X201519Y171325D01*
X202231Y171621D01*
X202889Y172024D01*
X203476Y172524D01*
X203976Y173111D01*
X204379Y173769D01*
X204675Y174481D01*
X204855Y175231D01*
X204900Y176000D01*
X204855Y176769D01*
X204675Y177519D01*
X204379Y178231D01*
X203976Y178889D01*
X203476Y179476D01*
X202889Y179976D01*
X202231Y180379D01*
X201519Y180675D01*
X200769Y180855D01*
X200000Y180915D01*
Y181085D01*
X200769Y181145D01*
X201519Y181325D01*
X202231Y181621D01*
X202889Y182024D01*
X203476Y182524D01*
X203976Y183111D01*
X204379Y183769D01*
X204675Y184481D01*
X204855Y185231D01*
X204900Y186000D01*
X204855Y186769D01*
X204675Y187519D01*
X204379Y188231D01*
X203976Y188889D01*
X203476Y189476D01*
X202889Y189976D01*
X202231Y190379D01*
X201519Y190675D01*
X200769Y190855D01*
X200000Y190915D01*
Y191085D01*
X200769Y191145D01*
X201519Y191325D01*
X202231Y191621D01*
X202889Y192024D01*
X203476Y192524D01*
X203976Y193111D01*
X204379Y193769D01*
X204675Y194481D01*
X204855Y195231D01*
X204900Y196000D01*
X204855Y196769D01*
X204675Y197519D01*
X204379Y198231D01*
X203976Y198889D01*
X203476Y199476D01*
X202889Y199976D01*
X202231Y200379D01*
X201519Y200675D01*
X200769Y200855D01*
X200000Y200915D01*
Y201474D01*
X201334Y201579D01*
X202635Y201891D01*
X203871Y202403D01*
X205012Y203102D01*
X206029Y203971D01*
X206898Y204988D01*
X207500Y205971D01*
Y12500D01*
X200000D01*
Y15107D01*
X203635Y15114D01*
X203865Y15169D01*
X204083Y15259D01*
X204284Y15383D01*
X204464Y15536D01*
X204617Y15716D01*
X204741Y15917D01*
X204831Y16135D01*
X204886Y16365D01*
X204900Y16600D01*
X204886Y23635D01*
X204831Y23865D01*
X204741Y24083D01*
X204617Y24284D01*
X204464Y24464D01*
X204284Y24617D01*
X204083Y24741D01*
X203865Y24831D01*
X203635Y24886D01*
X203400Y24900D01*
X200000Y24893D01*
Y25085D01*
X200769Y25145D01*
X201519Y25325D01*
X202231Y25621D01*
X202889Y26024D01*
X203476Y26524D01*
X203976Y27111D01*
X204379Y27769D01*
X204675Y28481D01*
X204855Y29231D01*
X204900Y30000D01*
X204855Y30769D01*
X204675Y31519D01*
X204379Y32231D01*
X203976Y32889D01*
X203476Y33476D01*
X202889Y33976D01*
X202231Y34379D01*
X201519Y34675D01*
X200769Y34855D01*
X200000Y34915D01*
Y35085D01*
G37*
G36*
Y218526D02*X198666Y218421D01*
X197365Y218109D01*
X196281Y217660D01*
X200000Y221379D01*
Y218526D01*
G37*
G36*
Y200915D02*X199231Y200855D01*
X198481Y200675D01*
X197769Y200379D01*
X197111Y199976D01*
X196524Y199476D01*
X196024Y198889D01*
X196000Y198851D01*
Y201441D01*
X196005Y201500D01*
X195986Y201735D01*
X195986Y201735D01*
X195931Y201965D01*
X195841Y202183D01*
X195717Y202384D01*
X195564Y202564D01*
X195519Y202602D01*
X195068Y203053D01*
X196129Y202403D01*
X197365Y201891D01*
X198666Y201579D01*
X200000Y201474D01*
Y200915D01*
G37*
G36*
Y190915D02*X199231Y190855D01*
X198481Y190675D01*
X197769Y190379D01*
X197111Y189976D01*
X196524Y189476D01*
X196024Y188889D01*
X196000Y188851D01*
Y193149D01*
X196024Y193111D01*
X196524Y192524D01*
X197111Y192024D01*
X197769Y191621D01*
X198481Y191325D01*
X199231Y191145D01*
X200000Y191085D01*
Y190915D01*
G37*
G36*
Y180915D02*X199231Y180855D01*
X198481Y180675D01*
X197769Y180379D01*
X197111Y179976D01*
X196524Y179476D01*
X196024Y178889D01*
X196000Y178851D01*
Y183149D01*
X196024Y183111D01*
X196524Y182524D01*
X197111Y182024D01*
X197769Y181621D01*
X198481Y181325D01*
X199231Y181145D01*
X200000Y181085D01*
Y180915D01*
G37*
G36*
Y170915D02*X199231Y170855D01*
X198481Y170675D01*
X197769Y170379D01*
X197111Y169976D01*
X196524Y169476D01*
X196024Y168889D01*
X196000Y168851D01*
Y173149D01*
X196024Y173111D01*
X196524Y172524D01*
X197111Y172024D01*
X197769Y171621D01*
X198481Y171325D01*
X199231Y171145D01*
X200000Y171085D01*
Y170915D01*
G37*
G36*
Y160915D02*X199231Y160855D01*
X198481Y160675D01*
X197769Y160379D01*
X197111Y159976D01*
X196524Y159476D01*
X196024Y158889D01*
X196000Y158851D01*
Y163149D01*
X196024Y163111D01*
X196524Y162524D01*
X197111Y162024D01*
X197769Y161621D01*
X198481Y161325D01*
X199231Y161145D01*
X200000Y161085D01*
Y160915D01*
G37*
G36*
Y150915D02*X199231Y150855D01*
X198481Y150675D01*
X197769Y150379D01*
X197111Y149976D01*
X196524Y149476D01*
X196024Y148889D01*
X196000Y148851D01*
Y153149D01*
X196024Y153111D01*
X196524Y152524D01*
X197111Y152024D01*
X197769Y151621D01*
X198481Y151325D01*
X199231Y151145D01*
X200000Y151085D01*
Y150915D01*
G37*
G36*
Y140915D02*X199231Y140855D01*
X198481Y140675D01*
X197769Y140379D01*
X197111Y139976D01*
X196524Y139476D01*
X196024Y138889D01*
X196000Y138851D01*
Y143149D01*
X196024Y143111D01*
X196524Y142524D01*
X197111Y142024D01*
X197769Y141621D01*
X198481Y141325D01*
X199231Y141145D01*
X200000Y141085D01*
Y140915D01*
G37*
G36*
Y130915D02*X199231Y130855D01*
X198481Y130675D01*
X197769Y130379D01*
X197111Y129976D01*
X196524Y129476D01*
X196024Y128889D01*
X196000Y128851D01*
Y133149D01*
X196024Y133111D01*
X196524Y132524D01*
X197111Y132024D01*
X197769Y131621D01*
X198481Y131325D01*
X199231Y131145D01*
X200000Y131085D01*
Y130915D01*
G37*
G36*
Y120915D02*X199231Y120855D01*
X198481Y120675D01*
X197769Y120379D01*
X197111Y119976D01*
X196524Y119476D01*
X196024Y118889D01*
X196000Y118851D01*
Y123149D01*
X196024Y123111D01*
X196524Y122524D01*
X197111Y122024D01*
X197769Y121621D01*
X198481Y121325D01*
X199231Y121145D01*
X200000Y121085D01*
Y120915D01*
G37*
G36*
Y110915D02*X199231Y110855D01*
X198481Y110675D01*
X197769Y110379D01*
X197111Y109976D01*
X196524Y109476D01*
X196024Y108889D01*
X196000Y108851D01*
Y113149D01*
X196024Y113111D01*
X196524Y112524D01*
X197111Y112024D01*
X197769Y111621D01*
X198481Y111325D01*
X199231Y111145D01*
X200000Y111085D01*
Y110915D01*
G37*
G36*
Y94915D02*X199231Y94855D01*
X198481Y94675D01*
X197769Y94379D01*
X197111Y93976D01*
X196524Y93476D01*
X196024Y92889D01*
X196000Y92851D01*
Y103149D01*
X196024Y103111D01*
X196524Y102524D01*
X197111Y102024D01*
X197769Y101621D01*
X198481Y101325D01*
X199231Y101145D01*
X200000Y101085D01*
Y94915D01*
G37*
G36*
Y84915D02*X199231Y84855D01*
X198481Y84675D01*
X197769Y84379D01*
X197111Y83976D01*
X196524Y83476D01*
X196024Y82889D01*
X196000Y82851D01*
Y87149D01*
X196024Y87111D01*
X196524Y86524D01*
X197111Y86024D01*
X197769Y85621D01*
X198481Y85325D01*
X199231Y85145D01*
X200000Y85085D01*
Y84915D01*
G37*
G36*
Y74915D02*X199231Y74855D01*
X198481Y74675D01*
X197769Y74379D01*
X197111Y73976D01*
X196524Y73476D01*
X196024Y72889D01*
X196000Y72851D01*
Y77149D01*
X196024Y77111D01*
X196524Y76524D01*
X197111Y76024D01*
X197769Y75621D01*
X198481Y75325D01*
X199231Y75145D01*
X200000Y75085D01*
Y74915D01*
G37*
G36*
Y64915D02*X199231Y64855D01*
X198481Y64675D01*
X197769Y64379D01*
X197111Y63976D01*
X196524Y63476D01*
X196024Y62889D01*
X196000Y62851D01*
Y67149D01*
X196024Y67111D01*
X196524Y66524D01*
X197111Y66024D01*
X197769Y65621D01*
X198481Y65325D01*
X199231Y65145D01*
X200000Y65085D01*
Y64915D01*
G37*
G36*
Y54915D02*X199231Y54855D01*
X198481Y54675D01*
X197769Y54379D01*
X197752Y54369D01*
X196000Y56121D01*
Y57149D01*
X196024Y57111D01*
X196524Y56524D01*
X197111Y56024D01*
X197769Y55621D01*
X198481Y55325D01*
X199231Y55145D01*
X200000Y55085D01*
Y54915D01*
G37*
G36*
Y44915D02*X199231Y44855D01*
X198481Y44675D01*
X197769Y44379D01*
X197752Y44369D01*
X194000Y48121D01*
Y53879D01*
X195631Y52248D01*
X195621Y52231D01*
X195325Y51519D01*
X195145Y50769D01*
X195085Y50000D01*
X195145Y49231D01*
X195325Y48481D01*
X195621Y47769D01*
X196024Y47111D01*
X196524Y46524D01*
X197111Y46024D01*
X197769Y45621D01*
X198481Y45325D01*
X199231Y45145D01*
X200000Y45085D01*
Y44915D01*
G37*
G36*
X198586Y242401D02*Y224207D01*
X190000Y215621D01*
Y215855D01*
X190005Y215914D01*
X189986Y216149D01*
X189931Y216379D01*
X189841Y216597D01*
X189717Y216798D01*
X189564Y216978D01*
X189519Y217016D01*
X188813Y217723D01*
X188886Y218029D01*
X188914Y218500D01*
X188886Y218971D01*
X188776Y219430D01*
X188595Y219866D01*
X188349Y220269D01*
X188042Y220628D01*
X187683Y220935D01*
X187280Y221181D01*
X186844Y221362D01*
X186385Y221472D01*
X185914Y221509D01*
X185443Y221472D01*
X184984Y221362D01*
X184983Y221361D01*
X194019Y230398D01*
X194064Y230436D01*
X194217Y230615D01*
X194217Y230616D01*
X194341Y230817D01*
X194431Y231035D01*
X194486Y231265D01*
X194505Y231500D01*
X194500Y231559D01*
Y237401D01*
X194769Y237565D01*
X195128Y237872D01*
X195435Y238231D01*
X195681Y238634D01*
X195862Y239070D01*
X195972Y239529D01*
X196000Y240000D01*
X195972Y240471D01*
X195862Y240930D01*
X195681Y241366D01*
X195435Y241769D01*
X195128Y242128D01*
X194769Y242435D01*
X194366Y242681D01*
X193930Y242862D01*
X193471Y242972D01*
X193000Y243009D01*
X192529Y242972D01*
X192070Y242862D01*
X191634Y242681D01*
X191231Y242435D01*
X190872Y242128D01*
X190565Y241769D01*
X190319Y241366D01*
X190138Y240930D01*
X190028Y240471D01*
X189991Y240000D01*
X190028Y239529D01*
X190138Y239070D01*
X190319Y238634D01*
X190565Y238231D01*
X190872Y237872D01*
X191231Y237565D01*
X191500Y237401D01*
Y232121D01*
X179981Y220602D01*
X179936Y220564D01*
X179783Y220384D01*
X179659Y220183D01*
X179569Y219965D01*
X179514Y219735D01*
X179514Y219735D01*
X179495Y219500D01*
X179500Y219441D01*
Y81621D01*
X178454Y80575D01*
X153099D01*
X152935Y80844D01*
X152628Y81203D01*
X152269Y81510D01*
X151866Y81756D01*
X151430Y81937D01*
X150971Y82047D01*
X150500Y82084D01*
X150029Y82047D01*
X149570Y81937D01*
X149134Y81756D01*
X148731Y81510D01*
X148372Y81203D01*
X148065Y80844D01*
X147819Y80441D01*
X147638Y80005D01*
X147528Y79546D01*
X147491Y79075D01*
X147528Y78604D01*
X147638Y78145D01*
X147819Y77709D01*
X148065Y77306D01*
X148372Y76947D01*
X148731Y76640D01*
X149134Y76394D01*
X149570Y76213D01*
X150029Y76103D01*
X150500Y76066D01*
X150971Y76103D01*
X151430Y76213D01*
X151866Y76394D01*
X152269Y76640D01*
X152628Y76947D01*
X152935Y77306D01*
X153099Y77575D01*
X179016D01*
X179075Y77570D01*
X179310Y77589D01*
X179310Y77589D01*
X179540Y77644D01*
X179758Y77734D01*
X179959Y77858D01*
X180139Y78011D01*
X180177Y78056D01*
X182019Y79898D01*
X182064Y79936D01*
X182217Y80115D01*
X182217Y80116D01*
X182341Y80317D01*
X182431Y80535D01*
X182486Y80765D01*
X182505Y81000D01*
X182500Y81059D01*
Y180882D01*
X182528Y180529D01*
X182638Y180070D01*
X182819Y179634D01*
X183065Y179231D01*
X183372Y178872D01*
X183731Y178565D01*
X184000Y178401D01*
Y67599D01*
X183731Y67435D01*
X183372Y67128D01*
X183065Y66769D01*
X182819Y66366D01*
X182638Y65930D01*
X182528Y65471D01*
X182491Y65000D01*
X182528Y64529D01*
X182638Y64070D01*
X182819Y63634D01*
X183065Y63231D01*
X183372Y62872D01*
X183731Y62565D01*
X184134Y62319D01*
X184570Y62138D01*
X185029Y62028D01*
X185500Y61991D01*
X185971Y62028D01*
X186430Y62138D01*
X186866Y62319D01*
X187269Y62565D01*
X187628Y62872D01*
X187935Y63231D01*
X188181Y63634D01*
X188362Y64070D01*
X188472Y64529D01*
X188500Y65000D01*
X188472Y65471D01*
X188362Y65930D01*
X188181Y66366D01*
X187935Y66769D01*
X187628Y67128D01*
X187269Y67435D01*
X187000Y67599D01*
Y109263D01*
X187231Y109065D01*
X187634Y108819D01*
X188070Y108638D01*
X188529Y108528D01*
X189000Y108491D01*
X189471Y108528D01*
X189930Y108638D01*
X190366Y108819D01*
X190769Y109065D01*
X191000Y109263D01*
Y47559D01*
X190995Y47500D01*
X191014Y47265D01*
X191069Y47035D01*
X191159Y46817D01*
X191283Y46616D01*
X191283Y46615D01*
X191436Y46436D01*
X191481Y46398D01*
X195631Y42248D01*
X195621Y42231D01*
X195325Y41519D01*
X195145Y40769D01*
X195085Y40000D01*
X195145Y39231D01*
X195325Y38481D01*
X195621Y37769D01*
X196024Y37111D01*
X196524Y36524D01*
X197111Y36024D01*
X197769Y35621D01*
X198481Y35325D01*
X199231Y35145D01*
X200000Y35085D01*
Y34915D01*
X199231Y34855D01*
X198481Y34675D01*
X197769Y34379D01*
X197111Y33976D01*
X196524Y33476D01*
X196024Y32889D01*
X195621Y32231D01*
X195325Y31519D01*
X195145Y30769D01*
X195085Y30000D01*
X195145Y29231D01*
X195325Y28481D01*
X195621Y27769D01*
X196024Y27111D01*
X196524Y26524D01*
X197111Y26024D01*
X197769Y25621D01*
X198481Y25325D01*
X199231Y25145D01*
X200000Y25085D01*
Y24893D01*
X196365Y24886D01*
X196135Y24831D01*
X195917Y24741D01*
X195716Y24617D01*
X195536Y24464D01*
X195383Y24284D01*
X195259Y24083D01*
X195169Y23865D01*
X195114Y23635D01*
X195100Y23400D01*
X195114Y16365D01*
X195169Y16135D01*
X195259Y15917D01*
X195383Y15716D01*
X195536Y15536D01*
X195716Y15383D01*
X195917Y15259D01*
X196135Y15169D01*
X196365Y15114D01*
X196600Y15100D01*
X200000Y15107D01*
Y12500D01*
X148141D01*
X148109Y12635D01*
X147597Y13871D01*
X146898Y15012D01*
X146029Y16029D01*
X145012Y16898D01*
X143871Y17597D01*
X142635Y18109D01*
X141334Y18421D01*
X140000Y18526D01*
X138666Y18421D01*
X137365Y18109D01*
X136129Y17597D01*
X134988Y16898D01*
X133971Y16029D01*
X133907Y15954D01*
Y214471D01*
X141398Y206981D01*
X141436Y206936D01*
X141616Y206783D01*
X141817Y206659D01*
X142035Y206569D01*
X142265Y206514D01*
X142500Y206495D01*
X142559Y206500D01*
X148879D01*
X151500Y203879D01*
Y171599D01*
X151231Y171435D01*
X150872Y171128D01*
X150565Y170769D01*
X150319Y170366D01*
X150138Y169930D01*
X150028Y169471D01*
X149991Y169000D01*
X150028Y168529D01*
X150138Y168070D01*
X150319Y167634D01*
X150565Y167231D01*
X150872Y166872D01*
X151231Y166565D01*
X151634Y166319D01*
X152070Y166138D01*
X152529Y166028D01*
X153000Y165991D01*
X153471Y166028D01*
X153930Y166138D01*
X154366Y166319D01*
X154769Y166565D01*
X155128Y166872D01*
X155435Y167231D01*
X155681Y167634D01*
X155862Y168070D01*
X155972Y168529D01*
X156000Y169000D01*
X155972Y169471D01*
X155862Y169930D01*
X155681Y170366D01*
X155435Y170769D01*
X155128Y171128D01*
X154769Y171435D01*
X154500Y171599D01*
Y204441D01*
X154505Y204500D01*
X154486Y204735D01*
X154431Y204965D01*
X154341Y205183D01*
X154217Y205384D01*
X154064Y205564D01*
X154019Y205602D01*
X150602Y209019D01*
X150564Y209064D01*
X150384Y209217D01*
X150290Y209275D01*
X159386D01*
X159550Y209006D01*
X159857Y208647D01*
X160216Y208340D01*
X160619Y208094D01*
X161055Y207913D01*
X161514Y207803D01*
X161985Y207766D01*
X162456Y207803D01*
X162915Y207913D01*
X163351Y208094D01*
X163754Y208340D01*
X164113Y208647D01*
X164420Y209006D01*
X164666Y209409D01*
X164847Y209845D01*
X164957Y210304D01*
X164985Y210775D01*
X164957Y211246D01*
X164847Y211705D01*
X164666Y212141D01*
X164420Y212544D01*
X164113Y212903D01*
X163754Y213210D01*
X163351Y213456D01*
X162915Y213637D01*
X162456Y213747D01*
X161985Y213784D01*
X161514Y213747D01*
X161055Y213637D01*
X160619Y213456D01*
X160216Y213210D01*
X159857Y212903D01*
X159550Y212544D01*
X159386Y212275D01*
X144346D01*
X133907Y222714D01*
Y234795D01*
X150425Y218277D01*
X150352Y217971D01*
X150315Y217500D01*
X150352Y217029D01*
X150462Y216570D01*
X150643Y216134D01*
X150889Y215731D01*
X151196Y215372D01*
X151555Y215065D01*
X151958Y214819D01*
X152394Y214638D01*
X152853Y214528D01*
X153324Y214491D01*
X153795Y214528D01*
X154254Y214638D01*
X154690Y214819D01*
X155093Y215065D01*
X155452Y215372D01*
X155759Y215731D01*
X156005Y216134D01*
X156186Y216570D01*
X156296Y217029D01*
X156324Y217500D01*
X156296Y217971D01*
X156186Y218430D01*
X156005Y218866D01*
X155759Y219269D01*
X155452Y219628D01*
X155093Y219935D01*
X154690Y220181D01*
X154254Y220362D01*
X153795Y220472D01*
X153324Y220509D01*
X152853Y220472D01*
X152547Y220399D01*
X133907Y239038D01*
Y267500D01*
X200000D01*
Y248002D01*
X199615Y247972D01*
X199156Y247862D01*
X198720Y247681D01*
X198317Y247435D01*
X197958Y247128D01*
X197651Y246769D01*
X197405Y246366D01*
X197224Y245930D01*
X197114Y245471D01*
X197077Y245000D01*
X197114Y244529D01*
X197224Y244070D01*
X197405Y243634D01*
X197651Y243231D01*
X197958Y242872D01*
X198317Y242565D01*
X198586Y242401D01*
G37*
G36*
X119803Y242000D02*X126703D01*
X133907Y234795D01*
Y222714D01*
X119899Y236723D01*
X119972Y237029D01*
X120000Y237500D01*
X119972Y237971D01*
X119862Y238430D01*
X119803Y238572D01*
Y242000D01*
G37*
G36*
Y267500D02*X133907D01*
Y239038D01*
X128426Y244519D01*
X128388Y244564D01*
X128208Y244717D01*
X128007Y244841D01*
X127789Y244931D01*
X127559Y244986D01*
X127324Y245005D01*
X127265Y245000D01*
X119803D01*
Y267500D01*
G37*
G36*
X133907Y15954D02*X133102Y15012D01*
X132403Y13871D01*
X131891Y12635D01*
X131859Y12500D01*
X123115D01*
X122995Y12641D01*
X122456Y13101D01*
X121852Y13471D01*
X121198Y13742D01*
X120509Y13907D01*
X119803Y13963D01*
Y14956D01*
X123038Y14963D01*
X123268Y15018D01*
X123486Y15108D01*
X123687Y15232D01*
X123867Y15385D01*
X124020Y15565D01*
X124144Y15766D01*
X124234Y15984D01*
X124289Y16214D01*
X124303Y16449D01*
X124289Y22684D01*
X124234Y22914D01*
X124144Y23132D01*
X124020Y23333D01*
X123867Y23513D01*
X123687Y23666D01*
X123486Y23790D01*
X123268Y23880D01*
X123038Y23935D01*
X122803Y23949D01*
X119803Y23942D01*
Y120015D01*
X119971Y120028D01*
X120430Y120138D01*
X120866Y120319D01*
X121269Y120565D01*
X121500Y120763D01*
Y120599D01*
X121231Y120435D01*
X120872Y120128D01*
X120565Y119769D01*
X120319Y119366D01*
X120138Y118930D01*
X120028Y118471D01*
X119991Y118000D01*
X120028Y117529D01*
X120138Y117070D01*
X120319Y116634D01*
X120565Y116231D01*
X120872Y115872D01*
X121231Y115565D01*
X121634Y115319D01*
X122070Y115138D01*
X122529Y115028D01*
X123000Y114991D01*
X123471Y115028D01*
X123930Y115138D01*
X124366Y115319D01*
X124769Y115565D01*
X125128Y115872D01*
X125435Y116231D01*
X125681Y116634D01*
X125862Y117070D01*
X125972Y117529D01*
X126000Y118000D01*
X125972Y118471D01*
X125862Y118930D01*
X125681Y119366D01*
X125435Y119769D01*
X125128Y120128D01*
X124769Y120435D01*
X124500Y120599D01*
Y193441D01*
X124505Y193500D01*
X124486Y193735D01*
X124486Y193735D01*
X124431Y193965D01*
X124341Y194183D01*
X124217Y194384D01*
X124064Y194564D01*
X124019Y194602D01*
X119803Y198818D01*
Y228576D01*
X133907Y214471D01*
Y15954D01*
G37*
G36*
X119803Y198818D02*X105000Y213621D01*
Y224441D01*
X105005Y224500D01*
X104986Y224735D01*
X104986Y224735D01*
X104931Y224965D01*
X104841Y225183D01*
X104717Y225384D01*
X104564Y225564D01*
X104519Y225602D01*
X101399Y228723D01*
X101472Y229029D01*
X101500Y229500D01*
X101472Y229971D01*
X101362Y230430D01*
X101181Y230866D01*
X100935Y231269D01*
X100628Y231628D01*
X100269Y231935D01*
X99866Y232181D01*
X99430Y232362D01*
X98971Y232472D01*
X98500Y232509D01*
X98029Y232472D01*
X97570Y232362D01*
X97134Y232181D01*
X96731Y231935D01*
X96500Y231737D01*
Y232901D01*
X96769Y233065D01*
X97128Y233372D01*
X97435Y233731D01*
X97681Y234134D01*
X97862Y234570D01*
X97972Y235029D01*
X98000Y235500D01*
X97972Y235971D01*
X97862Y236430D01*
X97681Y236866D01*
X97435Y237269D01*
X97128Y237628D01*
X96769Y237935D01*
X96366Y238181D01*
X95930Y238362D01*
X95471Y238472D01*
X95000Y238509D01*
X94529Y238472D01*
X94070Y238362D01*
X93800Y238250D01*
X93841Y238317D01*
X93931Y238535D01*
X93986Y238765D01*
X94005Y239000D01*
X94000Y239059D01*
Y245441D01*
X94005Y245500D01*
X93986Y245735D01*
X93940Y245927D01*
X93936Y245942D01*
X96000Y243879D01*
Y240059D01*
X95995Y240000D01*
X96014Y239765D01*
X96069Y239535D01*
X96159Y239317D01*
X96283Y239116D01*
X96283Y239115D01*
X96436Y238936D01*
X96481Y238898D01*
X103398Y231981D01*
X103436Y231936D01*
X103615Y231783D01*
X103616Y231783D01*
X103817Y231659D01*
X104035Y231569D01*
X104265Y231514D01*
X104500Y231495D01*
X104559Y231500D01*
X116879D01*
X119803Y228576D01*
Y198818D01*
G37*
G36*
X109796Y267500D02*X119803D01*
Y245000D01*
X117099D01*
X116935Y245269D01*
X116628Y245628D01*
X116269Y245935D01*
X115866Y246181D01*
X115430Y246362D01*
X114971Y246472D01*
X114500Y246509D01*
X114029Y246472D01*
X113570Y246362D01*
X113134Y246181D01*
X112731Y245935D01*
X112372Y245628D01*
X112065Y245269D01*
X111819Y244866D01*
X111638Y244430D01*
X111528Y243971D01*
X111491Y243500D01*
X111528Y243029D01*
X111638Y242570D01*
X111819Y242134D01*
X112065Y241731D01*
X112372Y241372D01*
X112731Y241065D01*
X113134Y240819D01*
X113570Y240638D01*
X114029Y240528D01*
X114500Y240491D01*
X114971Y240528D01*
X115430Y240638D01*
X115866Y240819D01*
X116269Y241065D01*
X116628Y241372D01*
X116935Y241731D01*
X117099Y242000D01*
X119803D01*
Y238572D01*
X119681Y238866D01*
X119435Y239269D01*
X119128Y239628D01*
X118769Y239935D01*
X118366Y240181D01*
X117930Y240362D01*
X117471Y240472D01*
X117000Y240509D01*
X116529Y240472D01*
X116070Y240362D01*
X115634Y240181D01*
X115231Y239935D01*
X114872Y239628D01*
X114565Y239269D01*
X114319Y238866D01*
X114138Y238430D01*
X114028Y237971D01*
X113991Y237500D01*
X114028Y237029D01*
X114138Y236570D01*
X114319Y236134D01*
X114565Y235731D01*
X114872Y235372D01*
X115231Y235065D01*
X115634Y234819D01*
X116070Y234638D01*
X116529Y234528D01*
X116882Y234500D01*
X109796D01*
Y267500D01*
G37*
G36*
X119803Y13963D02*X119097Y13907D01*
X118408Y13742D01*
X117754Y13471D01*
X117150Y13101D01*
X116611Y12641D01*
X116491Y12500D01*
X113115D01*
X112995Y12641D01*
X112456Y13101D01*
X111852Y13471D01*
X111198Y13742D01*
X110509Y13907D01*
X109803Y13963D01*
X109796Y13962D01*
Y14936D01*
X109803Y14935D01*
X110509Y14991D01*
X111198Y15156D01*
X111852Y15427D01*
X112456Y15797D01*
X112995Y16257D01*
X113455Y16796D01*
X113825Y17400D01*
X114096Y18054D01*
X114261Y18743D01*
X114303Y19449D01*
X114261Y20155D01*
X114096Y20844D01*
X113825Y21498D01*
X113455Y22102D01*
X112995Y22641D01*
X112456Y23101D01*
X111852Y23471D01*
X111198Y23742D01*
X110509Y23907D01*
X109803Y23963D01*
X109796Y23962D01*
Y103606D01*
X109930Y103638D01*
X110366Y103819D01*
X110769Y104065D01*
X111128Y104372D01*
X111435Y104731D01*
X111681Y105134D01*
X111862Y105570D01*
X111972Y106029D01*
X112000Y106500D01*
X111972Y106971D01*
X111862Y107430D01*
X111681Y107866D01*
X111435Y108269D01*
X111128Y108628D01*
X110769Y108935D01*
X110500Y109099D01*
Y130763D01*
X110731Y130565D01*
X111134Y130319D01*
X111570Y130138D01*
X112029Y130028D01*
X112500Y129991D01*
X112971Y130028D01*
X113430Y130138D01*
X113866Y130319D01*
X114269Y130565D01*
X114500Y130763D01*
Y130599D01*
X114231Y130435D01*
X113872Y130128D01*
X113565Y129769D01*
X113319Y129366D01*
X113138Y128930D01*
X113028Y128471D01*
X112991Y128000D01*
X113028Y127529D01*
X113138Y127070D01*
X113319Y126634D01*
X113565Y126231D01*
X113872Y125872D01*
X114231Y125565D01*
X114634Y125319D01*
X115070Y125138D01*
X115529Y125028D01*
X116000Y124991D01*
X116471Y125028D01*
X116930Y125138D01*
X117366Y125319D01*
X117769Y125565D01*
X118000Y125763D01*
Y125599D01*
X117731Y125435D01*
X117372Y125128D01*
X117065Y124769D01*
X116819Y124366D01*
X116638Y123930D01*
X116528Y123471D01*
X116491Y123000D01*
X116528Y122529D01*
X116638Y122070D01*
X116819Y121634D01*
X117065Y121231D01*
X117372Y120872D01*
X117731Y120565D01*
X118134Y120319D01*
X118570Y120138D01*
X119029Y120028D01*
X119500Y119991D01*
X119803Y120015D01*
Y23942D01*
X116568Y23935D01*
X116338Y23880D01*
X116120Y23790D01*
X115919Y23666D01*
X115739Y23513D01*
X115586Y23333D01*
X115462Y23132D01*
X115372Y22914D01*
X115317Y22684D01*
X115303Y22449D01*
X115317Y16214D01*
X115372Y15984D01*
X115462Y15766D01*
X115586Y15565D01*
X115739Y15385D01*
X115919Y15232D01*
X116120Y15108D01*
X116338Y15018D01*
X116568Y14963D01*
X116803Y14949D01*
X119803Y14956D01*
Y13963D01*
G37*
G36*
X99796Y267500D02*X109796D01*
Y234500D01*
X108162D01*
X108269Y234565D01*
X108628Y234872D01*
X108935Y235231D01*
X109181Y235634D01*
X109362Y236070D01*
X109451Y236440D01*
X109472Y236529D01*
Y236529D01*
X109509Y237000D01*
X109472Y237471D01*
X109362Y237930D01*
X109181Y238366D01*
X108935Y238769D01*
X108628Y239128D01*
X108538Y239204D01*
X104500Y243243D01*
Y248382D01*
X104509Y248500D01*
X104472Y248971D01*
X104362Y249430D01*
X104181Y249866D01*
X103935Y250269D01*
X103628Y250628D01*
X103538Y250704D01*
X99796Y254447D01*
Y267500D01*
G37*
G36*
X109796Y13962D02*X109097Y13907D01*
X108408Y13742D01*
X107754Y13471D01*
X107150Y13101D01*
X106611Y12641D01*
X106491Y12500D01*
X101832D01*
X101857Y12536D01*
X101910Y12641D01*
X101946Y12754D01*
X101963Y12870D01*
X101962Y12988D01*
X101943Y13105D01*
X101906Y13217D01*
X101851Y13322D01*
X101781Y13417D01*
X101697Y13500D01*
X101601Y13568D01*
X101495Y13619D01*
X101087Y13767D01*
X100666Y13871D01*
X100236Y13933D01*
X99803Y13954D01*
X99796Y13954D01*
Y14936D01*
X99803Y14935D01*
X100509Y14991D01*
X101198Y15156D01*
X101852Y15427D01*
X102456Y15797D01*
X102995Y16257D01*
X103455Y16796D01*
X103825Y17400D01*
X104096Y18054D01*
X104261Y18743D01*
X104303Y19449D01*
X104261Y20155D01*
X104096Y20844D01*
X103825Y21498D01*
X103455Y22102D01*
X102995Y22641D01*
X102456Y23101D01*
X101852Y23471D01*
X101198Y23742D01*
X100509Y23907D01*
X99803Y23963D01*
X99796Y23962D01*
Y49290D01*
X99866Y49319D01*
X100269Y49565D01*
X100628Y49872D01*
X100935Y50231D01*
X101181Y50634D01*
X101362Y51070D01*
X101472Y51529D01*
X101500Y52000D01*
X101472Y52471D01*
X101362Y52930D01*
X101181Y53366D01*
X100996Y53669D01*
X101070Y53638D01*
X101529Y53528D01*
X102000Y53491D01*
X102471Y53528D01*
X102930Y53638D01*
X103366Y53819D01*
X103769Y54065D01*
X104128Y54372D01*
X104435Y54731D01*
X104681Y55134D01*
X104862Y55570D01*
X104972Y56029D01*
X105000Y56500D01*
X104972Y56971D01*
X104862Y57430D01*
X104681Y57866D01*
X104435Y58269D01*
X104128Y58628D01*
X103769Y58935D01*
X103500Y59099D01*
Y79263D01*
X103731Y79065D01*
X104134Y78819D01*
X104570Y78638D01*
X105029Y78528D01*
X105500Y78491D01*
X105971Y78528D01*
X106430Y78638D01*
X106866Y78819D01*
X107269Y79065D01*
X107628Y79372D01*
X107935Y79731D01*
X108181Y80134D01*
X108362Y80570D01*
X108472Y81029D01*
X108500Y81500D01*
X108472Y81971D01*
X108362Y82430D01*
X108181Y82866D01*
X107935Y83269D01*
X107628Y83628D01*
X107269Y83935D01*
X107000Y84099D01*
Y104263D01*
X107231Y104065D01*
X107634Y103819D01*
X108070Y103638D01*
X108529Y103528D01*
X109000Y103491D01*
X109471Y103528D01*
X109796Y103606D01*
Y23962D01*
X109097Y23907D01*
X108408Y23742D01*
X107754Y23471D01*
X107150Y23101D01*
X106611Y22641D01*
X106151Y22102D01*
X105781Y21498D01*
X105510Y20844D01*
X105345Y20155D01*
X105289Y19449D01*
X105345Y18743D01*
X105510Y18054D01*
X105781Y17400D01*
X106151Y16796D01*
X106611Y16257D01*
X107150Y15797D01*
X107754Y15427D01*
X108408Y15156D01*
X109097Y14991D01*
X109796Y14936D01*
Y13962D01*
G37*
G36*
X9992Y206474D02*X10000Y206474D01*
X11334Y206579D01*
X12635Y206891D01*
X13871Y207403D01*
X15012Y208102D01*
X16029Y208971D01*
X16898Y209988D01*
X17597Y211129D01*
X18000Y212102D01*
Y178118D01*
X17991Y178000D01*
X18000Y177882D01*
Y125743D01*
X15257Y123000D01*
X13882D01*
X13476Y123476D01*
X12889Y123976D01*
X12231Y124379D01*
X11519Y124675D01*
X10769Y124855D01*
X10000Y124915D01*
X9992Y124915D01*
Y125085D01*
X10000Y125085D01*
X10769Y125145D01*
X11519Y125325D01*
X12231Y125621D01*
X12889Y126024D01*
X13476Y126524D01*
X13976Y127111D01*
X14379Y127769D01*
X14675Y128481D01*
X14855Y129231D01*
X14900Y130000D01*
X14855Y130769D01*
X14675Y131519D01*
X14379Y132231D01*
X13976Y132889D01*
X13476Y133476D01*
X12889Y133976D01*
X12231Y134379D01*
X11519Y134675D01*
X10769Y134855D01*
X10000Y134915D01*
X9992Y134915D01*
Y135085D01*
X10000Y135085D01*
X10769Y135145D01*
X11519Y135325D01*
X12231Y135621D01*
X12889Y136024D01*
X13476Y136524D01*
X13976Y137111D01*
X14379Y137769D01*
X14675Y138481D01*
X14855Y139231D01*
X14900Y140000D01*
X14855Y140769D01*
X14675Y141519D01*
X14379Y142231D01*
X13976Y142889D01*
X13476Y143476D01*
X12889Y143976D01*
X12231Y144379D01*
X11519Y144675D01*
X10769Y144855D01*
X10000Y144915D01*
X9992Y144915D01*
Y145085D01*
X10000Y145085D01*
X10769Y145145D01*
X11519Y145325D01*
X12231Y145621D01*
X12889Y146024D01*
X13476Y146524D01*
X13976Y147111D01*
X14379Y147769D01*
X14675Y148481D01*
X14855Y149231D01*
X14900Y150000D01*
X14855Y150769D01*
X14675Y151519D01*
X14379Y152231D01*
X13976Y152889D01*
X13476Y153476D01*
X12889Y153976D01*
X12231Y154379D01*
X11519Y154675D01*
X10769Y154855D01*
X10000Y154915D01*
X9992Y154915D01*
Y155107D01*
X13635Y155114D01*
X13865Y155169D01*
X14083Y155259D01*
X14284Y155383D01*
X14464Y155536D01*
X14617Y155716D01*
X14741Y155917D01*
X14831Y156135D01*
X14886Y156365D01*
X14900Y156600D01*
X14886Y163635D01*
X14831Y163865D01*
X14741Y164083D01*
X14617Y164284D01*
X14464Y164464D01*
X14284Y164617D01*
X14083Y164741D01*
X13865Y164831D01*
X13635Y164886D01*
X13400Y164900D01*
X9992Y164893D01*
Y206474D01*
G37*
G36*
X99796Y13954D02*X99370Y13933D01*
X98940Y13871D01*
X98519Y13767D01*
X98109Y13624D01*
X98003Y13571D01*
X97907Y13502D01*
X97822Y13419D01*
X97752Y13324D01*
X97697Y13218D01*
X97660Y13106D01*
X97640Y12989D01*
X97639Y12870D01*
X97657Y12753D01*
X97693Y12640D01*
X97746Y12534D01*
X97770Y12500D01*
X38141D01*
X38109Y12635D01*
X37597Y13871D01*
X36898Y15012D01*
X36029Y16029D01*
X35012Y16898D01*
X33871Y17597D01*
X32635Y18109D01*
X31334Y18421D01*
X30000Y18526D01*
X28666Y18421D01*
X27365Y18109D01*
X26129Y17597D01*
X24988Y16898D01*
X23971Y16029D01*
X23102Y15012D01*
X22403Y13871D01*
X21891Y12635D01*
X21859Y12500D01*
X13964D01*
Y17096D01*
X13976Y17111D01*
X14379Y17769D01*
X14675Y18481D01*
X14855Y19231D01*
X14900Y20000D01*
X14855Y20769D01*
X14675Y21519D01*
X14379Y22231D01*
X13976Y22889D01*
X13964Y22904D01*
Y27096D01*
X13976Y27111D01*
X14379Y27769D01*
X14675Y28481D01*
X14855Y29231D01*
X14900Y30000D01*
X14855Y30769D01*
X14675Y31519D01*
X14379Y32231D01*
X13976Y32889D01*
X13964Y32904D01*
Y37096D01*
X13976Y37111D01*
X14379Y37769D01*
X14675Y38481D01*
X14855Y39231D01*
X14900Y40000D01*
X14855Y40769D01*
X14675Y41519D01*
X14379Y42231D01*
X13976Y42889D01*
X13964Y42904D01*
Y47096D01*
X13976Y47111D01*
X14379Y47769D01*
X14675Y48481D01*
X14855Y49231D01*
X14900Y50000D01*
X14855Y50769D01*
X14675Y51519D01*
X14379Y52231D01*
X13976Y52889D01*
X13964Y52904D01*
Y57096D01*
X13976Y57111D01*
X14379Y57769D01*
X14675Y58481D01*
X14855Y59231D01*
X14900Y60000D01*
X14855Y60769D01*
X14675Y61519D01*
X14379Y62231D01*
X13976Y62889D01*
X13964Y62904D01*
Y67096D01*
X13976Y67111D01*
X14379Y67769D01*
X14675Y68481D01*
X14855Y69231D01*
X14900Y70000D01*
X14855Y70769D01*
X14675Y71519D01*
X14379Y72231D01*
X13976Y72889D01*
X13964Y72904D01*
Y87096D01*
X13976Y87111D01*
X14379Y87769D01*
X14675Y88481D01*
X14855Y89231D01*
X14900Y90000D01*
X14855Y90769D01*
X14675Y91519D01*
X14379Y92231D01*
X13976Y92889D01*
X13964Y92904D01*
Y97564D01*
X14049Y97589D01*
X14155Y97639D01*
X14253Y97706D01*
X14339Y97787D01*
X14411Y97880D01*
X14466Y97984D01*
X14641Y98412D01*
X14770Y98855D01*
X14857Y99309D01*
X14900Y99769D01*
Y100231D01*
X14857Y100691D01*
X14770Y101145D01*
X14641Y101588D01*
X14471Y102018D01*
X14415Y102122D01*
X14342Y102216D01*
X14255Y102297D01*
X14157Y102364D01*
X14050Y102414D01*
X13964Y102440D01*
Y107564D01*
X14049Y107589D01*
X14155Y107639D01*
X14253Y107706D01*
X14339Y107787D01*
X14411Y107880D01*
X14466Y107984D01*
X14641Y108412D01*
X14770Y108855D01*
X14857Y109309D01*
X14900Y109769D01*
Y110231D01*
X14857Y110691D01*
X14770Y111145D01*
X14641Y111588D01*
X14471Y112018D01*
X14415Y112122D01*
X14342Y112216D01*
X14255Y112297D01*
X14157Y112364D01*
X14050Y112414D01*
X13964Y112440D01*
Y117000D01*
X16382D01*
X16500Y116991D01*
X16971Y117028D01*
X16971Y117028D01*
X17430Y117138D01*
X17866Y117319D01*
X18269Y117565D01*
X18628Y117872D01*
X18704Y117962D01*
X23038Y122296D01*
X23128Y122372D01*
X23434Y122731D01*
X23435Y122731D01*
X23681Y123134D01*
X23862Y123570D01*
X23972Y124029D01*
X24009Y124500D01*
X24000Y124618D01*
Y234000D01*
X23972Y234471D01*
X23862Y234930D01*
X23681Y235366D01*
X23435Y235769D01*
X23128Y236128D01*
X22769Y236435D01*
X22366Y236681D01*
X21930Y236862D01*
X21471Y236972D01*
X21000Y237009D01*
X20529Y236972D01*
X20070Y236862D01*
X19634Y236681D01*
X19231Y236435D01*
X18872Y236128D01*
X18565Y235769D01*
X18319Y235366D01*
X18138Y234930D01*
X18028Y234471D01*
X18028Y234471D01*
X17991Y234000D01*
X18000Y233882D01*
Y229118D01*
X17991Y229000D01*
X18000Y228882D01*
Y224118D01*
X17991Y224000D01*
X18000Y223882D01*
Y217898D01*
X17597Y218871D01*
X16898Y220012D01*
X16029Y221029D01*
X15012Y221898D01*
X13964Y222540D01*
Y267500D01*
X99796D01*
Y254447D01*
X96704Y257538D01*
X96628Y257628D01*
X96269Y257935D01*
X95866Y258181D01*
X95430Y258362D01*
X94971Y258472D01*
X94500Y258509D01*
X94382Y258500D01*
X88618D01*
X88500Y258509D01*
X88382Y258500D01*
X84118D01*
X84000Y258509D01*
X83882Y258500D01*
X79618D01*
X79500Y258509D01*
X79029Y258472D01*
X78570Y258362D01*
X78134Y258181D01*
X77731Y257935D01*
X77372Y257628D01*
X77065Y257269D01*
X76819Y256866D01*
X76638Y256430D01*
X76528Y255971D01*
X76491Y255500D01*
X76528Y255029D01*
X76638Y254570D01*
X76819Y254134D01*
X77065Y253731D01*
X77372Y253372D01*
X77731Y253065D01*
X78134Y252819D01*
X78570Y252638D01*
X79029Y252528D01*
X79500Y252491D01*
X79618Y252500D01*
X83882D01*
X84000Y252491D01*
X84118Y252500D01*
X84763D01*
X84565Y252269D01*
X84319Y251866D01*
X84138Y251430D01*
X84028Y250971D01*
X83991Y250500D01*
X84028Y250029D01*
X84046Y249954D01*
X83971Y249972D01*
X83500Y250009D01*
X83029Y249972D01*
X82570Y249862D01*
X82134Y249681D01*
X81731Y249435D01*
X81372Y249128D01*
X81065Y248769D01*
X80819Y248366D01*
X80638Y247930D01*
X80528Y247471D01*
X80491Y247000D01*
X80528Y246529D01*
X80638Y246070D01*
X80819Y245634D01*
X81065Y245231D01*
X81372Y244872D01*
X81731Y244565D01*
X82134Y244319D01*
X82570Y244138D01*
X83029Y244028D01*
X83500Y243991D01*
X83971Y244028D01*
X84430Y244138D01*
X84866Y244319D01*
X85269Y244565D01*
X85628Y244872D01*
X85935Y245231D01*
X86099Y245500D01*
X86263D01*
X86065Y245269D01*
X85819Y244866D01*
X85638Y244430D01*
X85528Y243971D01*
X85491Y243500D01*
X85528Y243029D01*
X85638Y242570D01*
X85819Y242134D01*
X86065Y241731D01*
X86372Y241372D01*
X86731Y241065D01*
X87000Y240901D01*
Y225559D01*
X86995Y225500D01*
X87014Y225265D01*
X87069Y225035D01*
X87159Y224817D01*
X87283Y224616D01*
X87283Y224615D01*
X87436Y224436D01*
X87481Y224398D01*
X90000Y221879D01*
Y216599D01*
X89731Y216435D01*
X89372Y216128D01*
X89065Y215769D01*
X88819Y215366D01*
X88638Y214930D01*
X88528Y214471D01*
X88491Y214000D01*
X88528Y213529D01*
X88638Y213070D01*
X88819Y212634D01*
X89065Y212231D01*
X89372Y211872D01*
X89731Y211565D01*
X90000Y211401D01*
Y191599D01*
X89731Y191435D01*
X89372Y191128D01*
X89065Y190769D01*
X88819Y190366D01*
X88638Y189930D01*
X88528Y189471D01*
X88491Y189000D01*
X88528Y188529D01*
X88638Y188070D01*
X88819Y187634D01*
X89065Y187231D01*
X89372Y186872D01*
X89731Y186565D01*
X90000Y186401D01*
Y166599D01*
X89731Y166435D01*
X89372Y166128D01*
X89065Y165769D01*
X88819Y165366D01*
X88638Y164930D01*
X88528Y164471D01*
X88491Y164000D01*
X88528Y163529D01*
X88638Y163070D01*
X88819Y162634D01*
X89065Y162231D01*
X89372Y161872D01*
X89731Y161565D01*
X90000Y161401D01*
Y141599D01*
X89731Y141435D01*
X89372Y141128D01*
X89065Y140769D01*
X88819Y140366D01*
X88638Y139930D01*
X88528Y139471D01*
X88491Y139000D01*
X88528Y138529D01*
X88638Y138070D01*
X88819Y137634D01*
X89065Y137231D01*
X89372Y136872D01*
X89731Y136565D01*
X90000Y136401D01*
Y116599D01*
X89731Y116435D01*
X89372Y116128D01*
X89065Y115769D01*
X88819Y115366D01*
X88638Y114930D01*
X88528Y114471D01*
X88491Y114000D01*
X88528Y113529D01*
X88638Y113070D01*
X88819Y112634D01*
X89065Y112231D01*
X89372Y111872D01*
X89731Y111565D01*
X90000Y111401D01*
Y91599D01*
X89731Y91435D01*
X89372Y91128D01*
X89065Y90769D01*
X88819Y90366D01*
X88638Y89930D01*
X88528Y89471D01*
X88491Y89000D01*
X88528Y88529D01*
X88638Y88070D01*
X88819Y87634D01*
X89065Y87231D01*
X89372Y86872D01*
X89731Y86565D01*
X90000Y86401D01*
Y66599D01*
X89731Y66435D01*
X89372Y66128D01*
X89065Y65769D01*
X88819Y65366D01*
X88638Y64930D01*
X88528Y64471D01*
X88491Y64000D01*
X88528Y63529D01*
X88638Y63070D01*
X88819Y62634D01*
X89065Y62231D01*
X89372Y61872D01*
X89731Y61565D01*
X90000Y61401D01*
Y49099D01*
X89731Y48935D01*
X89372Y48628D01*
X89065Y48269D01*
X88819Y47866D01*
X88638Y47430D01*
X88528Y46971D01*
X88491Y46500D01*
X88528Y46029D01*
X88638Y45570D01*
X88819Y45134D01*
X89065Y44731D01*
X89372Y44372D01*
X89731Y44065D01*
X90134Y43819D01*
X90570Y43638D01*
X91029Y43528D01*
X91500Y43491D01*
X91971Y43528D01*
X92046Y43546D01*
X92028Y43471D01*
X91991Y43000D01*
X92028Y42529D01*
X92138Y42070D01*
X92319Y41634D01*
X92565Y41231D01*
X92872Y40872D01*
X93231Y40565D01*
X93634Y40319D01*
X94070Y40138D01*
X94529Y40028D01*
X95000Y39991D01*
X95471Y40028D01*
X95930Y40138D01*
X96366Y40319D01*
X96769Y40565D01*
X97128Y40872D01*
X97435Y41231D01*
X97681Y41634D01*
X97862Y42070D01*
X97972Y42529D01*
X98000Y43000D01*
X97972Y43471D01*
X97862Y43930D01*
X97681Y44366D01*
X97435Y44769D01*
X97128Y45128D01*
X96769Y45435D01*
X96500Y45599D01*
Y49763D01*
X96731Y49565D01*
X97134Y49319D01*
X97570Y49138D01*
X98029Y49028D01*
X98500Y48991D01*
X98971Y49028D01*
X99430Y49138D01*
X99796Y49290D01*
Y23962D01*
X99097Y23907D01*
X98408Y23742D01*
X97754Y23471D01*
X97150Y23101D01*
X96611Y22641D01*
X96151Y22102D01*
X95781Y21498D01*
X95510Y20844D01*
X95345Y20155D01*
X95289Y19449D01*
X95345Y18743D01*
X95510Y18054D01*
X95781Y17400D01*
X96151Y16796D01*
X96611Y16257D01*
X97150Y15797D01*
X97754Y15427D01*
X98408Y15156D01*
X99097Y14991D01*
X99796Y14936D01*
Y13954D01*
G37*
G36*
X13964Y222540D02*X13871Y222597D01*
X12635Y223109D01*
X11334Y223421D01*
X10000Y223526D01*
X9992Y223526D01*
Y267500D01*
X13964D01*
Y222540D01*
G37*
G36*
Y92904D02*X13476Y93476D01*
X12889Y93976D01*
X12231Y94379D01*
X11519Y94675D01*
X10769Y94855D01*
X10000Y94915D01*
X9992Y94915D01*
Y95100D01*
X10231D01*
X10691Y95143D01*
X11145Y95230D01*
X11588Y95359D01*
X12018Y95529D01*
X12122Y95585D01*
X12216Y95658D01*
X12297Y95745D01*
X12364Y95843D01*
X12414Y95950D01*
X12448Y96064D01*
X12462Y96182D01*
X12459Y96300D01*
X12436Y96417D01*
X12396Y96528D01*
X12339Y96632D01*
X12266Y96726D01*
X12180Y96807D01*
X12082Y96874D01*
X11975Y96925D01*
X11861Y96958D01*
X11743Y96973D01*
X11624Y96969D01*
X11508Y96947D01*
X11397Y96904D01*
X11101Y96783D01*
X10793Y96694D01*
X10479Y96634D01*
X10160Y96604D01*
X9992D01*
Y103396D01*
X10160D01*
X10479Y103366D01*
X10793Y103306D01*
X11101Y103217D01*
X11399Y103099D01*
X11509Y103057D01*
X11625Y103035D01*
X11743Y103031D01*
X11860Y103046D01*
X11973Y103079D01*
X12080Y103129D01*
X12178Y103196D01*
X12264Y103276D01*
X12336Y103370D01*
X12393Y103473D01*
X12433Y103584D01*
X12455Y103700D01*
X12459Y103818D01*
X12444Y103935D01*
X12411Y104049D01*
X12361Y104155D01*
X12294Y104253D01*
X12213Y104339D01*
X12120Y104411D01*
X12016Y104466D01*
X11588Y104641D01*
X11145Y104770D01*
X10691Y104857D01*
X10231Y104900D01*
X9992D01*
Y105100D01*
X10231D01*
X10691Y105143D01*
X11145Y105230D01*
X11588Y105359D01*
X12018Y105529D01*
X12122Y105585D01*
X12216Y105658D01*
X12297Y105745D01*
X12364Y105843D01*
X12414Y105950D01*
X12448Y106064D01*
X12462Y106182D01*
X12459Y106300D01*
X12436Y106417D01*
X12396Y106528D01*
X12339Y106632D01*
X12266Y106726D01*
X12180Y106807D01*
X12082Y106874D01*
X11975Y106925D01*
X11861Y106958D01*
X11743Y106973D01*
X11624Y106969D01*
X11508Y106947D01*
X11397Y106904D01*
X11101Y106783D01*
X10793Y106694D01*
X10479Y106634D01*
X10160Y106604D01*
X9992D01*
Y113396D01*
X10160D01*
X10479Y113366D01*
X10793Y113306D01*
X11101Y113217D01*
X11399Y113099D01*
X11509Y113057D01*
X11625Y113035D01*
X11743Y113031D01*
X11860Y113046D01*
X11973Y113079D01*
X12080Y113129D01*
X12178Y113196D01*
X12264Y113276D01*
X12336Y113370D01*
X12393Y113473D01*
X12433Y113584D01*
X12455Y113700D01*
X12459Y113818D01*
X12444Y113935D01*
X12411Y114049D01*
X12361Y114155D01*
X12294Y114253D01*
X12213Y114339D01*
X12120Y114411D01*
X12016Y114466D01*
X11588Y114641D01*
X11145Y114770D01*
X10691Y114857D01*
X10231Y114900D01*
X9992D01*
Y115085D01*
X10000Y115085D01*
X10769Y115145D01*
X11519Y115325D01*
X12231Y115621D01*
X12889Y116024D01*
X13476Y116524D01*
X13882Y117000D01*
X13964D01*
Y112440D01*
X13936Y112448D01*
X13818Y112462D01*
X13700Y112459D01*
X13583Y112437D01*
X13472Y112396D01*
X13368Y112339D01*
X13274Y112266D01*
X13193Y112180D01*
X13126Y112082D01*
X13075Y111975D01*
X13042Y111861D01*
X13027Y111743D01*
X13031Y111624D01*
X13053Y111508D01*
X13096Y111397D01*
X13217Y111101D01*
X13306Y110793D01*
X13366Y110479D01*
X13396Y110160D01*
Y109840D01*
X13366Y109521D01*
X13306Y109207D01*
X13217Y108899D01*
X13099Y108601D01*
X13057Y108491D01*
X13035Y108375D01*
X13031Y108257D01*
X13046Y108140D01*
X13079Y108027D01*
X13129Y107920D01*
X13196Y107822D01*
X13276Y107736D01*
X13370Y107664D01*
X13473Y107607D01*
X13584Y107567D01*
X13700Y107545D01*
X13818Y107541D01*
X13935Y107556D01*
X13964Y107564D01*
Y102440D01*
X13936Y102448D01*
X13818Y102462D01*
X13700Y102459D01*
X13583Y102437D01*
X13472Y102396D01*
X13368Y102339D01*
X13274Y102266D01*
X13193Y102180D01*
X13126Y102082D01*
X13075Y101975D01*
X13042Y101861D01*
X13027Y101743D01*
X13031Y101624D01*
X13053Y101508D01*
X13096Y101397D01*
X13217Y101101D01*
X13306Y100793D01*
X13366Y100479D01*
X13396Y100160D01*
Y99840D01*
X13366Y99521D01*
X13306Y99207D01*
X13217Y98899D01*
X13099Y98601D01*
X13057Y98491D01*
X13035Y98375D01*
X13031Y98257D01*
X13046Y98140D01*
X13079Y98027D01*
X13129Y97920D01*
X13196Y97822D01*
X13276Y97736D01*
X13370Y97664D01*
X13473Y97607D01*
X13584Y97567D01*
X13700Y97545D01*
X13818Y97541D01*
X13935Y97556D01*
X13964Y97564D01*
Y92904D01*
G37*
G36*
Y72904D02*X13476Y73476D01*
X12889Y73976D01*
X12231Y74379D01*
X11519Y74675D01*
X10769Y74855D01*
X10000Y74915D01*
X9992Y74915D01*
Y85085D01*
X10000Y85085D01*
X10769Y85145D01*
X11519Y85325D01*
X12231Y85621D01*
X12889Y86024D01*
X13476Y86524D01*
X13964Y87096D01*
Y72904D01*
G37*
G36*
Y62904D02*X13476Y63476D01*
X12889Y63976D01*
X12231Y64379D01*
X11519Y64675D01*
X10769Y64855D01*
X10000Y64915D01*
X9992Y64915D01*
Y65085D01*
X10000Y65085D01*
X10769Y65145D01*
X11519Y65325D01*
X12231Y65621D01*
X12889Y66024D01*
X13476Y66524D01*
X13964Y67096D01*
Y62904D01*
G37*
G36*
Y52904D02*X13476Y53476D01*
X12889Y53976D01*
X12231Y54379D01*
X11519Y54675D01*
X10769Y54855D01*
X10000Y54915D01*
X9992Y54915D01*
Y55085D01*
X10000Y55085D01*
X10769Y55145D01*
X11519Y55325D01*
X12231Y55621D01*
X12889Y56024D01*
X13476Y56524D01*
X13964Y57096D01*
Y52904D01*
G37*
G36*
Y42904D02*X13476Y43476D01*
X12889Y43976D01*
X12231Y44379D01*
X11519Y44675D01*
X10769Y44855D01*
X10000Y44915D01*
X9992Y44915D01*
Y45085D01*
X10000Y45085D01*
X10769Y45145D01*
X11519Y45325D01*
X12231Y45621D01*
X12889Y46024D01*
X13476Y46524D01*
X13964Y47096D01*
Y42904D01*
G37*
G36*
Y32904D02*X13476Y33476D01*
X12889Y33976D01*
X12231Y34379D01*
X11519Y34675D01*
X10769Y34855D01*
X10000Y34915D01*
X9992Y34915D01*
Y35085D01*
X10000Y35085D01*
X10769Y35145D01*
X11519Y35325D01*
X12231Y35621D01*
X12889Y36024D01*
X13476Y36524D01*
X13964Y37096D01*
Y32904D01*
G37*
G36*
Y22904D02*X13476Y23476D01*
X12889Y23976D01*
X12231Y24379D01*
X11519Y24675D01*
X10769Y24855D01*
X10000Y24915D01*
X9992Y24915D01*
Y25085D01*
X10000Y25085D01*
X10769Y25145D01*
X11519Y25325D01*
X12231Y25621D01*
X12889Y26024D01*
X13476Y26524D01*
X13964Y27096D01*
Y22904D01*
G37*
G36*
Y12500D02*X9992D01*
Y15085D01*
X10000Y15085D01*
X10769Y15145D01*
X11519Y15325D01*
X12231Y15621D01*
X12889Y16024D01*
X13476Y16524D01*
X13964Y17096D01*
Y12500D01*
G37*
G36*
X9992Y223526D02*X8666Y223421D01*
X7365Y223109D01*
X6129Y222597D01*
X4988Y221898D01*
X3971Y221029D01*
X3102Y220012D01*
X2500Y219029D01*
Y267500D01*
X9992D01*
Y223526D01*
G37*
G36*
X6036Y27096D02*X6524Y26524D01*
X7111Y26024D01*
X7769Y25621D01*
X8481Y25325D01*
X9231Y25145D01*
X9992Y25085D01*
Y24915D01*
X9231Y24855D01*
X8481Y24675D01*
X7769Y24379D01*
X7111Y23976D01*
X6524Y23476D01*
X6036Y22904D01*
Y27096D01*
G37*
G36*
Y37096D02*X6524Y36524D01*
X7111Y36024D01*
X7769Y35621D01*
X8481Y35325D01*
X9231Y35145D01*
X9992Y35085D01*
Y34915D01*
X9231Y34855D01*
X8481Y34675D01*
X7769Y34379D01*
X7111Y33976D01*
X6524Y33476D01*
X6036Y32904D01*
Y37096D01*
G37*
G36*
Y47096D02*X6524Y46524D01*
X7111Y46024D01*
X7769Y45621D01*
X8481Y45325D01*
X9231Y45145D01*
X9992Y45085D01*
Y44915D01*
X9231Y44855D01*
X8481Y44675D01*
X7769Y44379D01*
X7111Y43976D01*
X6524Y43476D01*
X6036Y42904D01*
Y47096D01*
G37*
G36*
Y57096D02*X6524Y56524D01*
X7111Y56024D01*
X7769Y55621D01*
X8481Y55325D01*
X9231Y55145D01*
X9992Y55085D01*
Y54915D01*
X9231Y54855D01*
X8481Y54675D01*
X7769Y54379D01*
X7111Y53976D01*
X6524Y53476D01*
X6036Y52904D01*
Y57096D01*
G37*
G36*
Y67096D02*X6524Y66524D01*
X7111Y66024D01*
X7769Y65621D01*
X8481Y65325D01*
X9231Y65145D01*
X9992Y65085D01*
Y64915D01*
X9231Y64855D01*
X8481Y64675D01*
X7769Y64379D01*
X7111Y63976D01*
X6524Y63476D01*
X6036Y62904D01*
Y67096D01*
G37*
G36*
Y87096D02*X6524Y86524D01*
X7111Y86024D01*
X7769Y85621D01*
X8481Y85325D01*
X9231Y85145D01*
X9992Y85085D01*
Y74915D01*
X9231Y74855D01*
X8481Y74675D01*
X7769Y74379D01*
X7111Y73976D01*
X6524Y73476D01*
X6036Y72904D01*
Y87096D01*
G37*
G36*
Y117096D02*X6524Y116524D01*
X7111Y116024D01*
X7769Y115621D01*
X8481Y115325D01*
X9231Y115145D01*
X9992Y115085D01*
Y114900D01*
X9769D01*
X9309Y114857D01*
X8855Y114770D01*
X8412Y114641D01*
X7982Y114471D01*
X7878Y114415D01*
X7784Y114342D01*
X7703Y114255D01*
X7636Y114157D01*
X7586Y114050D01*
X7552Y113936D01*
X7538Y113818D01*
X7541Y113700D01*
X7563Y113583D01*
X7604Y113472D01*
X7661Y113368D01*
X7734Y113274D01*
X7820Y113193D01*
X7918Y113126D01*
X8025Y113075D01*
X8139Y113042D01*
X8257Y113027D01*
X8376Y113031D01*
X8492Y113053D01*
X8603Y113096D01*
X8899Y113217D01*
X9207Y113306D01*
X9521Y113366D01*
X9840Y113396D01*
X9992D01*
Y106604D01*
X9840D01*
X9521Y106634D01*
X9207Y106694D01*
X8899Y106783D01*
X8601Y106901D01*
X8491Y106943D01*
X8375Y106965D01*
X8257Y106969D01*
X8140Y106954D01*
X8027Y106921D01*
X7920Y106871D01*
X7822Y106804D01*
X7736Y106724D01*
X7664Y106630D01*
X7607Y106527D01*
X7567Y106416D01*
X7545Y106300D01*
X7541Y106182D01*
X7556Y106065D01*
X7589Y105951D01*
X7639Y105845D01*
X7706Y105747D01*
X7787Y105661D01*
X7880Y105589D01*
X7984Y105534D01*
X8412Y105359D01*
X8855Y105230D01*
X9309Y105143D01*
X9769Y105100D01*
X9992D01*
Y104900D01*
X9769D01*
X9309Y104857D01*
X8855Y104770D01*
X8412Y104641D01*
X7982Y104471D01*
X7878Y104415D01*
X7784Y104342D01*
X7703Y104255D01*
X7636Y104157D01*
X7586Y104050D01*
X7552Y103936D01*
X7538Y103818D01*
X7541Y103700D01*
X7563Y103583D01*
X7604Y103472D01*
X7661Y103368D01*
X7734Y103274D01*
X7820Y103193D01*
X7918Y103126D01*
X8025Y103075D01*
X8139Y103042D01*
X8257Y103027D01*
X8376Y103031D01*
X8492Y103053D01*
X8603Y103096D01*
X8899Y103217D01*
X9207Y103306D01*
X9521Y103366D01*
X9840Y103396D01*
X9992D01*
Y96604D01*
X9840D01*
X9521Y96634D01*
X9207Y96694D01*
X8899Y96783D01*
X8601Y96901D01*
X8491Y96943D01*
X8375Y96965D01*
X8257Y96969D01*
X8140Y96954D01*
X8027Y96921D01*
X7920Y96871D01*
X7822Y96804D01*
X7736Y96724D01*
X7664Y96630D01*
X7607Y96527D01*
X7567Y96416D01*
X7545Y96300D01*
X7541Y96182D01*
X7556Y96065D01*
X7589Y95951D01*
X7639Y95845D01*
X7706Y95747D01*
X7787Y95661D01*
X7880Y95589D01*
X7984Y95534D01*
X8412Y95359D01*
X8855Y95230D01*
X9309Y95143D01*
X9769Y95100D01*
X9992D01*
Y94915D01*
X9231Y94855D01*
X8481Y94675D01*
X7769Y94379D01*
X7111Y93976D01*
X6524Y93476D01*
X6036Y92904D01*
Y97560D01*
X6064Y97552D01*
X6182Y97538D01*
X6300Y97541D01*
X6417Y97564D01*
X6528Y97604D01*
X6632Y97661D01*
X6726Y97734D01*
X6807Y97820D01*
X6874Y97918D01*
X6925Y98025D01*
X6958Y98139D01*
X6973Y98257D01*
X6969Y98376D01*
X6947Y98492D01*
X6904Y98603D01*
X6783Y98899D01*
X6694Y99207D01*
X6634Y99521D01*
X6604Y99840D01*
Y100160D01*
X6634Y100479D01*
X6694Y100793D01*
X6783Y101101D01*
X6901Y101399D01*
X6943Y101509D01*
X6965Y101625D01*
X6969Y101743D01*
X6954Y101860D01*
X6921Y101973D01*
X6871Y102080D01*
X6804Y102178D01*
X6724Y102264D01*
X6630Y102336D01*
X6527Y102393D01*
X6416Y102433D01*
X6300Y102455D01*
X6182Y102459D01*
X6065Y102444D01*
X6036Y102436D01*
Y107560D01*
X6064Y107552D01*
X6182Y107538D01*
X6300Y107541D01*
X6417Y107564D01*
X6528Y107604D01*
X6632Y107661D01*
X6726Y107734D01*
X6807Y107820D01*
X6874Y107918D01*
X6925Y108025D01*
X6958Y108139D01*
X6973Y108257D01*
X6969Y108376D01*
X6947Y108492D01*
X6904Y108603D01*
X6783Y108899D01*
X6694Y109207D01*
X6634Y109521D01*
X6604Y109840D01*
Y110160D01*
X6634Y110479D01*
X6694Y110793D01*
X6783Y111101D01*
X6901Y111399D01*
X6943Y111509D01*
X6965Y111625D01*
X6969Y111743D01*
X6954Y111860D01*
X6921Y111973D01*
X6871Y112080D01*
X6804Y112178D01*
X6724Y112264D01*
X6630Y112336D01*
X6527Y112393D01*
X6416Y112433D01*
X6300Y112455D01*
X6182Y112459D01*
X6065Y112444D01*
X6036Y112436D01*
Y117096D01*
G37*
G36*
Y127096D02*X6524Y126524D01*
X7111Y126024D01*
X7769Y125621D01*
X8481Y125325D01*
X9231Y125145D01*
X9992Y125085D01*
Y124915D01*
X9231Y124855D01*
X8481Y124675D01*
X7769Y124379D01*
X7111Y123976D01*
X6524Y123476D01*
X6036Y122904D01*
Y127096D01*
G37*
G36*
Y137096D02*X6524Y136524D01*
X7111Y136024D01*
X7769Y135621D01*
X8481Y135325D01*
X9231Y135145D01*
X9992Y135085D01*
Y134915D01*
X9231Y134855D01*
X8481Y134675D01*
X7769Y134379D01*
X7111Y133976D01*
X6524Y133476D01*
X6036Y132904D01*
Y137096D01*
G37*
G36*
Y147096D02*X6524Y146524D01*
X7111Y146024D01*
X7769Y145621D01*
X8481Y145325D01*
X9231Y145145D01*
X9992Y145085D01*
Y144915D01*
X9231Y144855D01*
X8481Y144675D01*
X7769Y144379D01*
X7111Y143976D01*
X6524Y143476D01*
X6036Y142904D01*
Y147096D01*
G37*
G36*
Y155210D02*X6135Y155169D01*
X6365Y155114D01*
X6600Y155100D01*
X9992Y155107D01*
Y154915D01*
X9231Y154855D01*
X8481Y154675D01*
X7769Y154379D01*
X7111Y153976D01*
X6524Y153476D01*
X6036Y152904D01*
Y155210D01*
G37*
G36*
Y207460D02*X6129Y207403D01*
X7365Y206891D01*
X8666Y206579D01*
X9992Y206474D01*
Y164893D01*
X6365Y164886D01*
X6135Y164831D01*
X6036Y164790D01*
Y207460D01*
G37*
G36*
X9992Y12500D02*X6036D01*
Y17096D01*
X6524Y16524D01*
X7111Y16024D01*
X7769Y15621D01*
X8481Y15325D01*
X9231Y15145D01*
X9992Y15085D01*
Y12500D01*
G37*
G36*
X6036D02*X2500D01*
Y210971D01*
X3102Y209988D01*
X3971Y208971D01*
X4988Y208102D01*
X6036Y207460D01*
Y164790D01*
X5917Y164741D01*
X5716Y164617D01*
X5536Y164464D01*
X5383Y164284D01*
X5259Y164083D01*
X5169Y163865D01*
X5114Y163635D01*
X5100Y163400D01*
X5114Y156365D01*
X5169Y156135D01*
X5259Y155917D01*
X5383Y155716D01*
X5536Y155536D01*
X5716Y155383D01*
X5917Y155259D01*
X6036Y155210D01*
Y152904D01*
X6024Y152889D01*
X5621Y152231D01*
X5325Y151519D01*
X5145Y150769D01*
X5085Y150000D01*
X5145Y149231D01*
X5325Y148481D01*
X5621Y147769D01*
X6024Y147111D01*
X6036Y147096D01*
Y142904D01*
X6024Y142889D01*
X5621Y142231D01*
X5325Y141519D01*
X5145Y140769D01*
X5085Y140000D01*
X5145Y139231D01*
X5325Y138481D01*
X5621Y137769D01*
X6024Y137111D01*
X6036Y137096D01*
Y132904D01*
X6024Y132889D01*
X5621Y132231D01*
X5325Y131519D01*
X5145Y130769D01*
X5085Y130000D01*
X5145Y129231D01*
X5325Y128481D01*
X5621Y127769D01*
X6024Y127111D01*
X6036Y127096D01*
Y122904D01*
X6024Y122889D01*
X5621Y122231D01*
X5325Y121519D01*
X5145Y120769D01*
X5085Y120000D01*
X5145Y119231D01*
X5325Y118481D01*
X5621Y117769D01*
X6024Y117111D01*
X6036Y117096D01*
Y112436D01*
X5951Y112411D01*
X5845Y112361D01*
X5747Y112294D01*
X5661Y112213D01*
X5589Y112120D01*
X5534Y112016D01*
X5359Y111588D01*
X5230Y111145D01*
X5143Y110691D01*
X5100Y110231D01*
Y109769D01*
X5143Y109309D01*
X5230Y108855D01*
X5359Y108412D01*
X5529Y107982D01*
X5585Y107878D01*
X5658Y107784D01*
X5745Y107703D01*
X5843Y107636D01*
X5950Y107586D01*
X6036Y107560D01*
Y102436D01*
X5951Y102411D01*
X5845Y102361D01*
X5747Y102294D01*
X5661Y102213D01*
X5589Y102120D01*
X5534Y102016D01*
X5359Y101588D01*
X5230Y101145D01*
X5143Y100691D01*
X5100Y100231D01*
Y99769D01*
X5143Y99309D01*
X5230Y98855D01*
X5359Y98412D01*
X5529Y97982D01*
X5585Y97878D01*
X5658Y97784D01*
X5745Y97703D01*
X5843Y97636D01*
X5950Y97586D01*
X6036Y97560D01*
Y92904D01*
X6024Y92889D01*
X5621Y92231D01*
X5325Y91519D01*
X5145Y90769D01*
X5085Y90000D01*
X5145Y89231D01*
X5325Y88481D01*
X5621Y87769D01*
X6024Y87111D01*
X6036Y87096D01*
Y72904D01*
X6024Y72889D01*
X5621Y72231D01*
X5325Y71519D01*
X5145Y70769D01*
X5085Y70000D01*
X5145Y69231D01*
X5325Y68481D01*
X5621Y67769D01*
X6024Y67111D01*
X6036Y67096D01*
Y62904D01*
X6024Y62889D01*
X5621Y62231D01*
X5325Y61519D01*
X5145Y60769D01*
X5085Y60000D01*
X5145Y59231D01*
X5325Y58481D01*
X5621Y57769D01*
X6024Y57111D01*
X6036Y57096D01*
Y52904D01*
X6024Y52889D01*
X5621Y52231D01*
X5325Y51519D01*
X5145Y50769D01*
X5085Y50000D01*
X5145Y49231D01*
X5325Y48481D01*
X5621Y47769D01*
X6024Y47111D01*
X6036Y47096D01*
Y42904D01*
X6024Y42889D01*
X5621Y42231D01*
X5325Y41519D01*
X5145Y40769D01*
X5085Y40000D01*
X5145Y39231D01*
X5325Y38481D01*
X5621Y37769D01*
X6024Y37111D01*
X6036Y37096D01*
Y32904D01*
X6024Y32889D01*
X5621Y32231D01*
X5325Y31519D01*
X5145Y30769D01*
X5085Y30000D01*
X5145Y29231D01*
X5325Y28481D01*
X5621Y27769D01*
X6024Y27111D01*
X6036Y27096D01*
Y22904D01*
X6024Y22889D01*
X5621Y22231D01*
X5325Y21519D01*
X5145Y20769D01*
X5085Y20000D01*
X5145Y19231D01*
X5325Y18481D01*
X5621Y17769D01*
X6024Y17111D01*
X6036Y17096D01*
Y12500D01*
G37*
G54D36*X10000Y120000D02*X16500D01*
X21000Y124500D01*
Y234000D01*
G54D37*X200086Y245000D02*Y223586D01*
X190500Y214000D01*
X193000Y231500D02*Y240000D01*
X190500Y214000D02*Y205500D01*
X185914Y218500D02*X188500Y215914D01*
Y204500D01*
X190500Y205500D02*X194500Y201500D01*
X188500Y204500D02*X192500Y200500D01*
X181000Y219500D02*X193000Y231500D01*
X194500Y201500D02*Y55500D01*
X192500Y200500D02*Y47500D01*
X189000Y161000D02*Y111500D01*
X185500Y181000D02*Y65000D01*
X194500Y55500D02*X200000Y50000D01*
X192500Y47500D02*X200000Y40000D01*
X150500Y79075D02*X179075D01*
X181000Y81000D01*
Y219500D01*
X98500Y223000D02*Y51500D01*
X91500Y222500D02*Y46500D01*
X95000Y43000D02*Y222500D01*
X102000Y56500D02*Y144000D01*
X105500Y81500D02*Y148000D01*
X109000Y106500D02*Y143500D01*
X112500Y133000D02*Y156500D01*
X116000Y128000D02*Y181500D01*
X119500Y123000D02*Y187500D01*
X123000Y118000D02*Y193500D01*
X114500Y243500D02*X127324D01*
G54D36*X106500Y237000D02*X101500Y242000D01*
G54D37*X117500Y233000D02*X104500D01*
X97500Y240000D01*
G54D36*X101500Y242000D02*Y248500D01*
G54D37*X127324Y243500D02*X153324Y217500D01*
X161985Y210775D02*X143725D01*
X153000Y204500D02*X149500Y208000D01*
X143725Y210775D02*X117000Y237500D01*
X153000Y169000D02*Y204500D01*
X149500Y208000D02*X142500D01*
X117500Y233000D01*
X88500Y225500D02*Y243500D01*
X98500Y223500D02*X95000Y227000D01*
X92500Y239000D02*X91000Y237500D01*
Y226500D01*
X92500Y245500D02*X91000Y247000D01*
X97500Y244500D02*X91500Y250500D01*
X87000D01*
X91000Y247000D02*X83500D01*
X91500Y222500D02*X88500Y225500D01*
X95000Y222500D02*X91000Y226500D01*
X95000Y227000D02*Y235500D01*
X103500Y224500D02*X98500Y229500D01*
X123000Y193500D02*X103500Y213000D01*
Y224500D01*
X97500Y240000D02*Y244500D01*
X92500Y245500D02*Y239000D01*
G54D36*X101500Y248500D02*X94500Y255500D01*
X79500D01*
G54D35*G36*
X196600Y23400D02*Y16600D01*
X203400D01*
Y23400D01*
X196600D01*
G37*
G54D38*X200000Y30000D03*
Y40000D03*
Y50000D03*
Y60000D03*
Y70000D03*
G54D35*G36*
X116803Y22449D02*Y16449D01*
X122803D01*
Y22449D01*
X116803D01*
G37*
G54D39*X119803Y9449D03*
X109803D03*
X99803D03*
G54D40*X140000Y10000D03*
G54D39*X109803Y19449D03*
X99803D03*
G54D38*X10000Y130000D03*
Y120000D03*
Y110000D03*
Y100000D03*
G54D35*G36*
X6600Y163400D02*Y156600D01*
X13400D01*
Y163400D01*
X6600D01*
G37*
G54D38*X10000Y150000D03*
Y140000D03*
G54D40*Y215000D03*
G54D38*Y90000D03*
Y70000D03*
Y60000D03*
Y50000D03*
Y40000D03*
Y30000D03*
Y20000D03*
G54D40*X30000Y10000D03*
G54D38*X200000Y80000D03*
Y90000D03*
Y106000D03*
Y116000D03*
Y126000D03*
Y136000D03*
Y146000D03*
Y156000D03*
Y166000D03*
Y176000D03*
Y186000D03*
Y196000D03*
G54D40*Y210000D03*
G54D36*X21000Y229000D03*
Y234000D03*
Y224000D03*
Y178000D03*
X38500Y255500D03*
Y239500D03*
X45500Y240500D03*
Y247500D03*
Y254500D03*
X14000Y203500D03*
X67000Y209000D03*
X185914Y218500D03*
X114500Y224500D03*
Y219500D03*
X98500Y223500D03*
X161985Y210775D03*
X163000Y195500D03*
X168000D03*
X153324Y217500D03*
X153000Y169000D03*
X102000Y144000D03*
X105500Y148000D03*
X109000Y143500D03*
X112500Y133000D03*
X116000Y128000D03*
X119500Y123000D03*
X91500Y139000D03*
X95000Y134000D03*
X98500Y202000D03*
Y177000D03*
Y152000D03*
Y127000D03*
X112500Y156500D03*
X123000Y118000D03*
X108000Y257000D03*
X114500Y243500D03*
X116000Y181500D03*
X119500Y187500D03*
X117000Y237500D03*
X106500Y237000D03*
X91500Y214000D03*
X95000Y209000D03*
X91500Y189000D03*
X95000Y184000D03*
X91500Y164000D03*
X95000Y159000D03*
X98500Y229500D03*
X95000Y235500D03*
X88500Y243500D03*
X83500Y247000D03*
X87000Y250500D03*
X79500Y255500D03*
X84000D03*
X88500D03*
X200086Y245000D03*
X189000Y161000D03*
Y111500D03*
X185500Y181000D03*
Y65000D03*
X193000Y240000D03*
X177000Y128000D03*
Y149500D03*
Y154000D03*
Y145000D03*
X67000Y184000D03*
Y159000D03*
Y134000D03*
Y109000D03*
Y84000D03*
Y59000D03*
Y34000D03*
X91500Y114000D03*
X95000Y109000D03*
X98500Y102000D03*
X91500Y89000D03*
X95000Y84000D03*
X98500Y77000D03*
X91500Y64000D03*
X95000Y59000D03*
X98500Y52000D03*
X102000Y56500D03*
X91500Y46500D03*
X95000Y43000D03*
X105500Y81500D03*
X131000Y74000D03*
X109000Y106500D03*
X148000Y91500D03*
X150500Y79075D03*
G54D41*G54D42*G54D43*G54D42*G54D43*G54D42*G54D43*G54D42*G54D43*M02*
