M48
INCH
T47C0.020
T46C0.129
T45C0.038
%
T47
X002100Y022900
X002100Y023400
X002100Y022400
X002100Y017800
X003850Y025550
X003850Y023950
X004550Y024050
X004550Y024750
X004550Y025450
X001400Y020350
X006700Y020900
X018591Y021850
X011450Y022450
X011450Y021950
X009850Y022350
X016198Y021078
X016300Y019550
X016800Y019550
X015332Y021750
X015300Y016900
X010200Y014400
X010550Y014800
X010900Y014350
X011250Y013300
X011600Y012800
X011950Y012300
X009150Y013900
X009500Y013400
X009850Y020200
X009850Y017700
X009850Y015200
X009850Y012700
X011250Y015650
X012300Y011800
X010800Y025700
X011450Y024350
X011600Y018150
X011950Y018750
X011700Y023750
X010650Y023700
X009150Y021400
X009500Y020900
X009150Y018900
X009500Y018400
X009150Y016400
X009500Y015900
X009850Y022950
X009500Y023550
X008850Y024350
X008350Y024700
X008700Y025050
X007950Y025550
X008400Y025550
X008850Y025550
X020009Y024500
X018900Y016100
X018900Y011150
X018550Y018100
X018550Y006500
X019300Y024000
X017700Y012800
X017700Y014950
X017700Y015400
X017700Y014500
X006700Y018400
X006700Y015900
X006700Y013400
X006700Y010900
X006700Y008400
X006700Y005900
X006700Y003400
X009150Y011400
X009500Y010900
X009850Y010200
X009150Y008900
X009500Y008400
X009850Y007700
X009150Y006400
X009500Y005900
X009850Y005200
X010200Y005650
X009150Y004650
X009500Y004300
X010550Y008150
X013100Y007400
X010900Y010650
X014800Y009150
X015050Y007908
T45
X020000Y002000
X020000Y003000
X020000Y004000
X020000Y005000
X020000Y006000
X020000Y007000
X011980Y001945
X011980Y000945
X010980Y000945
X009980Y000945
X010980Y001945
X009980Y001945
X001000Y013000
X001000Y012000
X001000Y011000
X001000Y010000
X001000Y016000
X001000Y015000
X001000Y014000
X001000Y009000
X001000Y007000
X001000Y006000
X001000Y005000
X001000Y004000
X001000Y003000
X001000Y002000
X020000Y008000
X020000Y009000
X020000Y010600
X020000Y011600
X020000Y012600
X020000Y013600
X020000Y014600
X020000Y015600
X020000Y016600
X020000Y017600
X020000Y018600
X020000Y019600
T46
X014000Y001000
X001000Y021500
X003000Y001000
X020000Y021000
M30
