G04 start of page 7 for group -4062 idx -4062 *
G04 Title: (unknown), soldermask *
G04 Creator: pcb 20110918 *
G04 CreationDate: Tue 05 Jan 2016 03:28:18 AM GMT UTC *
G04 For: railfan *
G04 Format: Gerber/RS-274X *
G04 PCB-Dimensions: 210000 270000 *
G04 PCB-Coordinate-Origin: lower left *
%MOIN*%
%FSLAX25Y25*%
%LNBOTTOMMASK*%
%ADD69C,0.1560*%
%ADD68C,0.0660*%
%ADD67C,0.0740*%
%ADD66C,0.0001*%
G54D66*G36*
X196300Y23700D02*Y16300D01*
X203700D01*
Y23700D01*
X196300D01*
G37*
G54D67*X200000Y30000D03*
Y40000D03*
Y50000D03*
Y60000D03*
Y70000D03*
G54D66*G36*
X116503Y22749D02*Y16149D01*
X123103D01*
Y22749D01*
X116503D01*
G37*
G54D68*X119803Y9449D03*
X109803D03*
X99803D03*
G54D69*X140000Y10000D03*
G54D68*X109803Y19449D03*
X99803D03*
G54D67*X10000Y130000D03*
Y120000D03*
Y110000D03*
Y100000D03*
G54D66*G36*
X6300Y163700D02*Y156300D01*
X13700D01*
Y163700D01*
X6300D01*
G37*
G54D67*X10000Y150000D03*
Y140000D03*
G54D69*Y215000D03*
G54D67*Y90000D03*
Y70000D03*
Y60000D03*
Y50000D03*
Y40000D03*
Y30000D03*
Y20000D03*
G54D69*X30000Y10000D03*
G54D67*X200000Y80000D03*
Y90000D03*
Y106000D03*
Y116000D03*
Y126000D03*
Y136000D03*
Y146000D03*
Y156000D03*
Y166000D03*
Y176000D03*
Y186000D03*
Y196000D03*
G54D69*Y210000D03*
M02*
