G04 start of page 12 for group -3984 idx -3984 *
G04 Title: (unknown), fab *
G04 Creator: pcb 20110918 *
G04 CreationDate: Tue 05 Jan 2016 03:28:18 AM GMT UTC *
G04 For: railfan *
G04 Format: Gerber/RS-274X *
G04 PCB-Dimensions: 210000 270000 *
G04 PCB-Coordinate-Origin: lower left *
%MOIN*%
%FSLAX25Y25*%
%LNFAB*%
%ADD91C,0.0100*%
%ADD90C,0.0060*%
%ADD89C,0.0001*%
G54D89*G36*
X138800Y11766D02*X141766Y8800D01*
X141200Y8234D01*
X138234Y11200D01*
X138800Y11766D01*
G37*
G36*
X138234Y8800D02*X141200Y11766D01*
X141766Y11200D01*
X138800Y8234D01*
X138234Y8800D01*
G37*
G36*
X198800Y211766D02*X201766Y208800D01*
X201200Y208234D01*
X198234Y211200D01*
X198800Y211766D01*
G37*
G36*
X198234Y208800D02*X201200Y211766D01*
X201766Y211200D01*
X198800Y208234D01*
X198234Y208800D01*
G37*
G36*
X8800Y216766D02*X11766Y213800D01*
X11200Y213234D01*
X8234Y216200D01*
X8800Y216766D01*
G37*
G36*
X8234Y213800D02*X11200Y216766D01*
X11766Y216200D01*
X8800Y213234D01*
X8234Y213800D01*
G37*
G36*
X28800Y11766D02*X31766Y8800D01*
X31200Y8234D01*
X28234Y11200D01*
X28800Y11766D01*
G37*
G36*
X28234Y8800D02*X31200Y11766D01*
X31766Y11200D01*
X28800Y8234D01*
X28234Y8800D01*
G37*
G36*
X13800Y298016D02*X16766Y295050D01*
X16200Y294484D01*
X13234Y297450D01*
X13800Y298016D01*
G37*
G36*
X13234Y295050D02*X16200Y298016D01*
X16766Y297450D01*
X13800Y294484D01*
X13234Y295050D01*
G37*
G54D90*X135000Y298500D02*Y297750D01*
X136500Y296250D01*
X138000Y297750D01*
Y298500D02*Y297750D01*
X136500Y296250D02*Y292500D01*
X139800Y295500D02*X142050D01*
X139800Y292500D02*X142800D01*
X139800Y298500D02*Y292500D01*
Y298500D02*X142800D01*
X147600D02*X148350Y297750D01*
X145350Y298500D02*X147600D01*
X144600Y297750D02*X145350Y298500D01*
X144600Y297750D02*Y296250D01*
X145350Y295500D01*
X147600D01*
X148350Y294750D01*
Y293250D01*
X147600Y292500D02*X148350Y293250D01*
X145350Y292500D02*X147600D01*
X144600Y293250D02*X145350Y292500D01*
X98000Y295500D02*X101000Y298500D01*
X98000Y295500D02*X101750D01*
X101000Y298500D02*Y292500D01*
X45000Y293250D02*X45750Y292500D01*
X45000Y297750D02*Y293250D01*
Y297750D02*X45750Y298500D01*
X47250D01*
X48000Y297750D01*
Y293250D01*
X47250Y292500D02*X48000Y293250D01*
X45750Y292500D02*X47250D01*
X45000Y294000D02*X48000Y297000D01*
X49800Y292500D02*X50550D01*
X53100D02*X54600D01*
X53850Y298500D02*Y292500D01*
X52350Y297000D02*X53850Y298500D01*
X56400Y297750D02*X57150Y298500D01*
X59400D01*
X60150Y297750D01*
Y296250D01*
X56400Y292500D02*X60150Y296250D01*
X56400Y292500D02*X60150D01*
X61950D02*X64950Y295500D01*
Y297750D02*Y295500D01*
X64200Y298500D02*X64950Y297750D01*
X62700Y298500D02*X64200D01*
X61950Y297750D02*X62700Y298500D01*
X61950Y297750D02*Y296250D01*
X62700Y295500D01*
X64950D01*
X10000Y161600D02*Y158400D01*
X8400Y160000D02*X11600D01*
X10000Y151600D02*Y148400D01*
X8400Y150000D02*X11600D01*
X10000Y141600D02*Y138400D01*
X8400Y140000D02*X11600D01*
X10000Y131600D02*Y128400D01*
X8400Y130000D02*X11600D01*
X10000Y121600D02*Y118400D01*
X8400Y120000D02*X11600D01*
X10000Y111600D02*Y108400D01*
X8400Y110000D02*X11600D01*
X10000Y101600D02*Y98400D01*
X8400Y100000D02*X11600D01*
X10000Y91600D02*Y88400D01*
X8400Y90000D02*X11600D01*
X10000Y71600D02*Y68400D01*
X8400Y70000D02*X11600D01*
X10000Y61600D02*Y58400D01*
X8400Y60000D02*X11600D01*
X10000Y51600D02*Y48400D01*
X8400Y50000D02*X11600D01*
X10000Y41600D02*Y38400D01*
X8400Y40000D02*X11600D01*
X10000Y31600D02*Y28400D01*
X8400Y30000D02*X11600D01*
X10000Y21600D02*Y18400D01*
X8400Y20000D02*X11600D01*
X200000Y21600D02*Y18400D01*
X198400Y20000D02*X201600D01*
X200000Y31600D02*Y28400D01*
X198400Y30000D02*X201600D01*
X200000Y41600D02*Y38400D01*
X198400Y40000D02*X201600D01*
X200000Y51600D02*Y48400D01*
X198400Y50000D02*X201600D01*
X200000Y61600D02*Y58400D01*
X198400Y60000D02*X201600D01*
X200000Y71600D02*Y68400D01*
X198400Y70000D02*X201600D01*
X200000Y81600D02*Y78400D01*
X198400Y80000D02*X201600D01*
X200000Y91600D02*Y88400D01*
X198400Y90000D02*X201600D01*
X200000Y107600D02*Y104400D01*
X198400Y106000D02*X201600D01*
X200000Y117600D02*Y114400D01*
X198400Y116000D02*X201600D01*
X200000Y127600D02*Y124400D01*
X198400Y126000D02*X201600D01*
X200000Y137600D02*Y134400D01*
X198400Y136000D02*X201600D01*
X200000Y147600D02*Y144400D01*
X198400Y146000D02*X201600D01*
X200000Y157600D02*Y154400D01*
X198400Y156000D02*X201600D01*
X200000Y167600D02*Y164400D01*
X198400Y166000D02*X201600D01*
X200000Y177600D02*Y174400D01*
X198400Y176000D02*X201600D01*
X200000Y187600D02*Y184400D01*
X198400Y186000D02*X201600D01*
X200000Y197600D02*Y194400D01*
X198400Y196000D02*X201600D01*
X119803Y21049D02*Y17849D01*
X118203Y19449D02*X121403D01*
X109803Y21049D02*Y17849D01*
X108203Y19449D02*X111403D01*
X99803Y21049D02*Y17849D01*
X98203Y19449D02*X101403D01*
X119803Y11049D02*Y7849D01*
X118203Y9449D02*X121403D01*
X109803Y11049D02*Y7849D01*
X108203Y9449D02*X111403D01*
X99803Y11049D02*Y7849D01*
X98203Y9449D02*X101403D01*
X15000Y312850D02*Y309650D01*
X13400Y311250D02*X16600D01*
X135000Y313500D02*Y312750D01*
X136500Y311250D01*
X138000Y312750D01*
Y313500D02*Y312750D01*
X136500Y311250D02*Y307500D01*
X139800Y310500D02*X142050D01*
X139800Y307500D02*X142800D01*
X139800Y313500D02*Y307500D01*
Y313500D02*X142800D01*
X147600D02*X148350Y312750D01*
X145350Y313500D02*X147600D01*
X144600Y312750D02*X145350Y313500D01*
X144600Y312750D02*Y311250D01*
X145350Y310500D01*
X147600D01*
X148350Y309750D01*
Y308250D01*
X147600Y307500D02*X148350Y308250D01*
X145350Y307500D02*X147600D01*
X144600Y308250D02*X145350Y307500D01*
X98000Y312750D02*X98750Y313500D01*
X100250D01*
X101000Y312750D01*
Y308250D01*
X100250Y307500D02*X101000Y308250D01*
X98750Y307500D02*X100250D01*
X98000Y308250D02*X98750Y307500D01*
Y310500D02*X101000D01*
X102800Y308250D02*X103550Y307500D01*
X102800Y309750D02*Y308250D01*
Y309750D02*X103550Y310500D01*
X105050D01*
X105800Y309750D01*
Y308250D01*
X105050Y307500D02*X105800Y308250D01*
X103550Y307500D02*X105050D01*
X102800Y311250D02*X103550Y310500D01*
X102800Y312750D02*Y311250D01*
Y312750D02*X103550Y313500D01*
X105050D01*
X105800Y312750D01*
Y311250D01*
X105050Y310500D02*X105800Y311250D01*
X45000Y308250D02*X45750Y307500D01*
X45000Y312750D02*Y308250D01*
Y312750D02*X45750Y313500D01*
X47250D01*
X48000Y312750D01*
Y308250D01*
X47250Y307500D02*X48000Y308250D01*
X45750Y307500D02*X47250D01*
X45000Y309000D02*X48000Y312000D01*
X49800Y307500D02*X50550D01*
X52350Y308250D02*X53100Y307500D01*
X52350Y312750D02*Y308250D01*
Y312750D02*X53100Y313500D01*
X54600D01*
X55350Y312750D01*
Y308250D01*
X54600Y307500D02*X55350Y308250D01*
X53100Y307500D02*X54600D01*
X52350Y309000D02*X55350Y312000D01*
X57150Y312750D02*X57900Y313500D01*
X59400D01*
X60150Y312750D01*
Y308250D01*
X59400Y307500D02*X60150Y308250D01*
X57900Y307500D02*X59400D01*
X57150Y308250D02*X57900Y307500D01*
Y310500D02*X60150D01*
X61950Y308250D02*X62700Y307500D01*
X61950Y309750D02*Y308250D01*
Y309750D02*X62700Y310500D01*
X64200D01*
X64950Y309750D01*
Y308250D01*
X64200Y307500D02*X64950Y308250D01*
X62700Y307500D02*X64200D01*
X61950Y311250D02*X62700Y310500D01*
X61950Y312750D02*Y311250D01*
Y312750D02*X62700Y313500D01*
X64200D01*
X64950Y312750D01*
Y311250D01*
X64200Y310500D02*X64950Y311250D01*
X21000Y178000D02*Y176400D01*
Y178000D02*X22387Y178800D01*
X21000Y178000D02*X19613Y178800D01*
X21000Y229000D02*Y227400D01*
Y229000D02*X22387Y229800D01*
X21000Y229000D02*X19613Y229800D01*
X21000Y234000D02*Y232400D01*
Y234000D02*X22387Y234800D01*
X21000Y234000D02*X19613Y234800D01*
X21000Y224000D02*Y222400D01*
Y224000D02*X22387Y224800D01*
X21000Y224000D02*X19613Y224800D01*
X38500Y255500D02*Y253900D01*
Y255500D02*X39887Y256300D01*
X38500Y255500D02*X37113Y256300D01*
X38500Y239500D02*Y237900D01*
Y239500D02*X39887Y240300D01*
X38500Y239500D02*X37113Y240300D01*
X45500Y240500D02*Y238900D01*
Y240500D02*X46887Y241300D01*
X45500Y240500D02*X44113Y241300D01*
X45500Y247500D02*Y245900D01*
Y247500D02*X46887Y248300D01*
X45500Y247500D02*X44113Y248300D01*
X45500Y254500D02*Y252900D01*
Y254500D02*X46887Y255300D01*
X45500Y254500D02*X44113Y255300D01*
X14000Y203500D02*Y201900D01*
Y203500D02*X15387Y204300D01*
X14000Y203500D02*X12613Y204300D01*
X200086Y245000D02*Y243400D01*
Y245000D02*X201473Y245800D01*
X200086Y245000D02*X198699Y245800D01*
X185914Y218500D02*Y216900D01*
Y218500D02*X187301Y219300D01*
X185914Y218500D02*X184527Y219300D01*
X108000Y257000D02*Y255400D01*
Y257000D02*X109387Y257800D01*
X108000Y257000D02*X106613Y257800D01*
X114500Y224500D02*Y222900D01*
Y224500D02*X115887Y225300D01*
X114500Y224500D02*X113113Y225300D01*
X114500Y219500D02*Y217900D01*
Y219500D02*X115887Y220300D01*
X114500Y219500D02*X113113Y220300D01*
X114500Y243500D02*Y241900D01*
Y243500D02*X115887Y244300D01*
X114500Y243500D02*X113113Y244300D01*
X117000Y237500D02*Y235900D01*
Y237500D02*X118387Y238300D01*
X117000Y237500D02*X115613Y238300D01*
X161985Y210775D02*Y209175D01*
Y210775D02*X163372Y211575D01*
X161985Y210775D02*X160598Y211575D01*
X153324Y217500D02*Y215900D01*
Y217500D02*X154711Y218300D01*
X153324Y217500D02*X151937Y218300D01*
X163000Y195500D02*Y193900D01*
Y195500D02*X164387Y196300D01*
X163000Y195500D02*X161613Y196300D01*
X168000Y195500D02*Y193900D01*
Y195500D02*X169387Y196300D01*
X168000Y195500D02*X166613Y196300D01*
X106500Y237000D02*Y235400D01*
Y237000D02*X107887Y237800D01*
X106500Y237000D02*X105113Y237800D01*
X153000Y169000D02*Y167400D01*
Y169000D02*X154387Y169800D01*
X153000Y169000D02*X151613Y169800D01*
X189000Y161000D02*Y159400D01*
Y161000D02*X190387Y161800D01*
X189000Y161000D02*X187613Y161800D01*
X189000Y111500D02*Y109900D01*
Y111500D02*X190387Y112300D01*
X189000Y111500D02*X187613Y112300D01*
X185500Y181000D02*Y179400D01*
Y181000D02*X186887Y181800D01*
X185500Y181000D02*X184113Y181800D01*
X185500Y65000D02*Y63400D01*
Y65000D02*X186887Y65800D01*
X185500Y65000D02*X184113Y65800D01*
X102000Y144000D02*Y142400D01*
Y144000D02*X103387Y144800D01*
X102000Y144000D02*X100613Y144800D01*
X105500Y148000D02*Y146400D01*
Y148000D02*X106887Y148800D01*
X105500Y148000D02*X104113Y148800D01*
X109000Y143500D02*Y141900D01*
Y143500D02*X110387Y144300D01*
X109000Y143500D02*X107613Y144300D01*
X112500Y133000D02*Y131400D01*
Y133000D02*X113887Y133800D01*
X112500Y133000D02*X111113Y133800D01*
X116000Y128000D02*Y126400D01*
Y128000D02*X117387Y128800D01*
X116000Y128000D02*X114613Y128800D01*
X119500Y123000D02*Y121400D01*
Y123000D02*X120887Y123800D01*
X119500Y123000D02*X118113Y123800D01*
X67000Y209000D02*Y207400D01*
Y209000D02*X68387Y209800D01*
X67000Y209000D02*X65613Y209800D01*
X67000Y184000D02*Y182400D01*
Y184000D02*X68387Y184800D01*
X67000Y184000D02*X65613Y184800D01*
X67000Y159000D02*Y157400D01*
Y159000D02*X68387Y159800D01*
X67000Y159000D02*X65613Y159800D01*
X67000Y134000D02*Y132400D01*
Y134000D02*X68387Y134800D01*
X67000Y134000D02*X65613Y134800D01*
X67000Y109000D02*Y107400D01*
Y109000D02*X68387Y109800D01*
X67000Y109000D02*X65613Y109800D01*
X67000Y84000D02*Y82400D01*
Y84000D02*X68387Y84800D01*
X67000Y84000D02*X65613Y84800D01*
X67000Y59000D02*Y57400D01*
Y59000D02*X68387Y59800D01*
X67000Y59000D02*X65613Y59800D01*
X67000Y34000D02*Y32400D01*
Y34000D02*X68387Y34800D01*
X67000Y34000D02*X65613Y34800D01*
X91500Y214000D02*Y212400D01*
Y214000D02*X92887Y214800D01*
X91500Y214000D02*X90113Y214800D01*
X95000Y209000D02*Y207400D01*
Y209000D02*X96387Y209800D01*
X95000Y209000D02*X93613Y209800D01*
X91500Y189000D02*Y187400D01*
Y189000D02*X92887Y189800D01*
X91500Y189000D02*X90113Y189800D01*
X95000Y184000D02*Y182400D01*
Y184000D02*X96387Y184800D01*
X95000Y184000D02*X93613Y184800D01*
X91500Y164000D02*Y162400D01*
Y164000D02*X92887Y164800D01*
X91500Y164000D02*X90113Y164800D01*
X95000Y159000D02*Y157400D01*
Y159000D02*X96387Y159800D01*
X95000Y159000D02*X93613Y159800D01*
X91500Y139000D02*Y137400D01*
Y139000D02*X92887Y139800D01*
X91500Y139000D02*X90113Y139800D01*
X95000Y134000D02*Y132400D01*
Y134000D02*X96387Y134800D01*
X95000Y134000D02*X93613Y134800D01*
X91500Y114000D02*Y112400D01*
Y114000D02*X92887Y114800D01*
X91500Y114000D02*X90113Y114800D01*
X95000Y109000D02*Y107400D01*
Y109000D02*X96387Y109800D01*
X95000Y109000D02*X93613Y109800D01*
X91500Y89000D02*Y87400D01*
Y89000D02*X92887Y89800D01*
X91500Y89000D02*X90113Y89800D01*
X95000Y84000D02*Y82400D01*
Y84000D02*X96387Y84800D01*
X95000Y84000D02*X93613Y84800D01*
X91500Y64000D02*Y62400D01*
Y64000D02*X92887Y64800D01*
X91500Y64000D02*X90113Y64800D01*
X95000Y59000D02*Y57400D01*
Y59000D02*X96387Y59800D01*
X95000Y59000D02*X93613Y59800D01*
X98500Y202000D02*Y200400D01*
Y202000D02*X99887Y202800D01*
X98500Y202000D02*X97113Y202800D01*
X98500Y177000D02*Y175400D01*
Y177000D02*X99887Y177800D01*
X98500Y177000D02*X97113Y177800D01*
X98500Y152000D02*Y150400D01*
Y152000D02*X99887Y152800D01*
X98500Y152000D02*X97113Y152800D01*
X98500Y127000D02*Y125400D01*
Y127000D02*X99887Y127800D01*
X98500Y127000D02*X97113Y127800D01*
X98500Y102000D02*Y100400D01*
Y102000D02*X99887Y102800D01*
X98500Y102000D02*X97113Y102800D01*
X98500Y77000D02*Y75400D01*
Y77000D02*X99887Y77800D01*
X98500Y77000D02*X97113Y77800D01*
X98500Y52000D02*Y50400D01*
Y52000D02*X99887Y52800D01*
X98500Y52000D02*X97113Y52800D01*
X102000Y56500D02*Y54900D01*
Y56500D02*X103387Y57300D01*
X102000Y56500D02*X100613Y57300D01*
X105500Y81500D02*Y79900D01*
Y81500D02*X106887Y82300D01*
X105500Y81500D02*X104113Y82300D01*
X109000Y106500D02*Y104900D01*
Y106500D02*X110387Y107300D01*
X109000Y106500D02*X107613Y107300D01*
X112500Y156500D02*Y154900D01*
Y156500D02*X113887Y157300D01*
X112500Y156500D02*X111113Y157300D01*
X116000Y181500D02*Y179900D01*
Y181500D02*X117387Y182300D01*
X116000Y181500D02*X114613Y182300D01*
X119500Y187500D02*Y185900D01*
Y187500D02*X120887Y188300D01*
X119500Y187500D02*X118113Y188300D01*
X98500Y223500D02*Y221900D01*
Y223500D02*X99887Y224300D01*
X98500Y223500D02*X97113Y224300D01*
X98500Y229500D02*Y227900D01*
Y229500D02*X99887Y230300D01*
X98500Y229500D02*X97113Y230300D01*
X95000Y235500D02*Y233900D01*
Y235500D02*X96387Y236300D01*
X95000Y235500D02*X93613Y236300D01*
X123000Y118000D02*Y116400D01*
Y118000D02*X124387Y118800D01*
X123000Y118000D02*X121613Y118800D01*
X177000Y128000D02*Y126400D01*
Y128000D02*X178387Y128800D01*
X177000Y128000D02*X175613Y128800D01*
X177000Y149500D02*Y147900D01*
Y149500D02*X178387Y150300D01*
X177000Y149500D02*X175613Y150300D01*
X177000Y154000D02*Y152400D01*
Y154000D02*X178387Y154800D01*
X177000Y154000D02*X175613Y154800D01*
X177000Y145000D02*Y143400D01*
Y145000D02*X178387Y145800D01*
X177000Y145000D02*X175613Y145800D01*
X148000Y91500D02*Y89900D01*
Y91500D02*X149387Y92300D01*
X148000Y91500D02*X146613Y92300D01*
X131000Y74000D02*Y72400D01*
Y74000D02*X132387Y74800D01*
X131000Y74000D02*X129613Y74800D01*
X91500Y46500D02*Y44900D01*
Y46500D02*X92887Y47300D01*
X91500Y46500D02*X90113Y47300D01*
X95000Y43000D02*Y41400D01*
Y43000D02*X96387Y43800D01*
X95000Y43000D02*X93613Y43800D01*
X88500Y243500D02*Y241900D01*
Y243500D02*X89887Y244300D01*
X88500Y243500D02*X87113Y244300D01*
X83500Y247000D02*Y245400D01*
Y247000D02*X84887Y247800D01*
X83500Y247000D02*X82113Y247800D01*
X87000Y250500D02*Y248900D01*
Y250500D02*X88387Y251300D01*
X87000Y250500D02*X85613Y251300D01*
X79500Y255500D02*Y253900D01*
Y255500D02*X80887Y256300D01*
X79500Y255500D02*X78113Y256300D01*
X84000Y255500D02*Y253900D01*
Y255500D02*X85387Y256300D01*
X84000Y255500D02*X82613Y256300D01*
X88500Y255500D02*Y253900D01*
Y255500D02*X89887Y256300D01*
X88500Y255500D02*X87113Y256300D01*
X150500Y79075D02*Y77475D01*
Y79075D02*X151887Y79875D01*
X150500Y79075D02*X149113Y79875D01*
X193000Y240000D02*Y238400D01*
Y240000D02*X194387Y240800D01*
X193000Y240000D02*X191613Y240800D01*
X15000Y326250D02*Y324650D01*
Y326250D02*X16387Y327050D01*
X15000Y326250D02*X13613Y327050D01*
X135000Y328500D02*Y327750D01*
X136500Y326250D01*
X138000Y327750D01*
Y328500D02*Y327750D01*
X136500Y326250D02*Y322500D01*
X139800Y325500D02*X142050D01*
X139800Y322500D02*X142800D01*
X139800Y328500D02*Y322500D01*
Y328500D02*X142800D01*
X147600D02*X148350Y327750D01*
X145350Y328500D02*X147600D01*
X144600Y327750D02*X145350Y328500D01*
X144600Y327750D02*Y326250D01*
X145350Y325500D01*
X147600D01*
X148350Y324750D01*
Y323250D01*
X147600Y322500D02*X148350Y323250D01*
X145350Y322500D02*X147600D01*
X144600Y323250D02*X145350Y322500D01*
X98000Y323250D02*X98750Y322500D01*
X98000Y324750D02*Y323250D01*
Y324750D02*X98750Y325500D01*
X100250D01*
X101000Y324750D01*
Y323250D01*
X100250Y322500D02*X101000Y323250D01*
X98750Y322500D02*X100250D01*
X98000Y326250D02*X98750Y325500D01*
X98000Y327750D02*Y326250D01*
Y327750D02*X98750Y328500D01*
X100250D01*
X101000Y327750D01*
Y326250D01*
X100250Y325500D02*X101000Y326250D01*
X102800Y323250D02*X103550Y322500D01*
X102800Y324750D02*Y323250D01*
Y324750D02*X103550Y325500D01*
X105050D01*
X105800Y324750D01*
Y323250D01*
X105050Y322500D02*X105800Y323250D01*
X103550Y322500D02*X105050D01*
X102800Y326250D02*X103550Y325500D01*
X102800Y327750D02*Y326250D01*
Y327750D02*X103550Y328500D01*
X105050D01*
X105800Y327750D01*
Y326250D01*
X105050Y325500D02*X105800Y326250D01*
X45000Y323250D02*X45750Y322500D01*
X45000Y327750D02*Y323250D01*
Y327750D02*X45750Y328500D01*
X47250D01*
X48000Y327750D01*
Y323250D01*
X47250Y322500D02*X48000Y323250D01*
X45750Y322500D02*X47250D01*
X45000Y324000D02*X48000Y327000D01*
X49800Y322500D02*X50550D01*
X52350Y323250D02*X53100Y322500D01*
X52350Y327750D02*Y323250D01*
Y327750D02*X53100Y328500D01*
X54600D01*
X55350Y327750D01*
Y323250D01*
X54600Y322500D02*X55350Y323250D01*
X53100Y322500D02*X54600D01*
X52350Y324000D02*X55350Y327000D01*
X57150Y327750D02*X57900Y328500D01*
X60150D01*
X60900Y327750D01*
Y326250D01*
X57150Y322500D02*X60900Y326250D01*
X57150Y322500D02*X60900D01*
X62700Y323250D02*X63450Y322500D01*
X62700Y327750D02*Y323250D01*
Y327750D02*X63450Y328500D01*
X64950D01*
X65700Y327750D01*
Y323250D01*
X64950Y322500D02*X65700Y323250D01*
X63450Y322500D02*X64950D01*
X62700Y324000D02*X65700Y327000D01*
X3000Y343500D02*X3750Y342750D01*
X750Y343500D02*X3000D01*
X0Y342750D02*X750Y343500D01*
X0Y342750D02*Y341250D01*
X750Y340500D01*
X3000D01*
X3750Y339750D01*
Y338250D01*
X3000Y337500D02*X3750Y338250D01*
X750Y337500D02*X3000D01*
X0Y338250D02*X750Y337500D01*
X5550Y340500D02*Y338250D01*
X6300Y337500D01*
X8550Y340500D02*Y336000D01*
X7800Y335250D02*X8550Y336000D01*
X6300Y335250D02*X7800D01*
X5550Y336000D02*X6300Y335250D01*
Y337500D02*X7800D01*
X8550Y338250D01*
X11100Y339750D02*Y337500D01*
Y339750D02*X11850Y340500D01*
X12600D01*
X13350Y339750D01*
Y337500D01*
Y339750D02*X14100Y340500D01*
X14850D01*
X15600Y339750D01*
Y337500D01*
X10350Y340500D02*X11100Y339750D01*
X17400Y343500D02*Y337500D01*
Y338250D02*X18150Y337500D01*
X19650D01*
X20400Y338250D01*
Y339750D02*Y338250D01*
X19650Y340500D02*X20400Y339750D01*
X18150Y340500D02*X19650D01*
X17400Y339750D02*X18150Y340500D01*
X22200Y339750D02*Y338250D01*
Y339750D02*X22950Y340500D01*
X24450D01*
X25200Y339750D01*
Y338250D01*
X24450Y337500D02*X25200Y338250D01*
X22950Y337500D02*X24450D01*
X22200Y338250D02*X22950Y337500D01*
X27000Y343500D02*Y338250D01*
X27750Y337500D01*
X0Y334250D02*X29250D01*
X41750Y343500D02*Y337500D01*
X44000Y343500D02*X44750Y342750D01*
Y338250D01*
X44000Y337500D02*X44750Y338250D01*
X41000Y337500D02*X44000D01*
X41000Y343500D02*X44000D01*
X46550Y342000D02*Y341250D01*
Y339750D02*Y337500D01*
X50300Y340500D02*X51050Y339750D01*
X48800Y340500D02*X50300D01*
X48050Y339750D02*X48800Y340500D01*
X48050Y339750D02*Y338250D01*
X48800Y337500D01*
X51050Y340500D02*Y338250D01*
X51800Y337500D01*
X48800D02*X50300D01*
X51050Y338250D01*
X54350Y339750D02*Y337500D01*
Y339750D02*X55100Y340500D01*
X55850D01*
X56600Y339750D01*
Y337500D01*
Y339750D02*X57350Y340500D01*
X58100D01*
X58850Y339750D01*
Y337500D01*
X53600Y340500D02*X54350Y339750D01*
X60650Y337500D02*X61400D01*
X65900Y338250D02*X66650Y337500D01*
X65900Y342750D02*X66650Y343500D01*
X65900Y342750D02*Y338250D01*
X68450Y343500D02*X69950D01*
X69200D02*Y337500D01*
X68450D02*X69950D01*
X72500Y339750D02*Y337500D01*
Y339750D02*X73250Y340500D01*
X74000D01*
X74750Y339750D01*
Y337500D01*
X71750Y340500D02*X72500Y339750D01*
X77300Y340500D02*X79550D01*
X76550Y339750D02*X77300Y340500D01*
X76550Y339750D02*Y338250D01*
X77300Y337500D01*
X79550D01*
X81350Y343500D02*Y337500D01*
Y339750D02*X82100Y340500D01*
X83600D01*
X84350Y339750D01*
Y337500D01*
X86150Y343500D02*X86900Y342750D01*
Y338250D01*
X86150Y337500D02*X86900Y338250D01*
X41000Y334250D02*X88700D01*
X95750Y337500D02*X98000D01*
X95000Y338250D02*X95750Y337500D01*
X95000Y342750D02*Y338250D01*
Y342750D02*X95750Y343500D01*
X98000D01*
X99800Y339750D02*Y338250D01*
Y339750D02*X100550Y340500D01*
X102050D01*
X102800Y339750D01*
Y338250D01*
X102050Y337500D02*X102800Y338250D01*
X100550Y337500D02*X102050D01*
X99800Y338250D02*X100550Y337500D01*
X104600Y340500D02*Y338250D01*
X105350Y337500D01*
X106850D01*
X107600Y338250D01*
Y340500D02*Y338250D01*
X110150Y339750D02*Y337500D01*
Y339750D02*X110900Y340500D01*
X111650D01*
X112400Y339750D01*
Y337500D01*
X109400Y340500D02*X110150Y339750D01*
X114950Y343500D02*Y338250D01*
X115700Y337500D01*
X114200Y341250D02*X115700D01*
X95000Y334250D02*X117200D01*
X130750Y343500D02*Y337500D01*
X130000Y343500D02*X133000D01*
X133750Y342750D01*
Y341250D01*
X133000Y340500D02*X133750Y341250D01*
X130750Y340500D02*X133000D01*
X135550Y343500D02*Y338250D01*
X136300Y337500D01*
X140050Y340500D02*X140800Y339750D01*
X138550Y340500D02*X140050D01*
X137800Y339750D02*X138550Y340500D01*
X137800Y339750D02*Y338250D01*
X138550Y337500D01*
X140800Y340500D02*Y338250D01*
X141550Y337500D01*
X138550D02*X140050D01*
X140800Y338250D01*
X144100Y343500D02*Y338250D01*
X144850Y337500D01*
X143350Y341250D02*X144850D01*
X147100Y337500D02*X149350D01*
X146350Y338250D02*X147100Y337500D01*
X146350Y339750D02*Y338250D01*
Y339750D02*X147100Y340500D01*
X148600D01*
X149350Y339750D01*
X146350Y339000D02*X149350D01*
Y339750D02*Y339000D01*
X154150Y343500D02*Y337500D01*
X153400D02*X154150Y338250D01*
X151900Y337500D02*X153400D01*
X151150Y338250D02*X151900Y337500D01*
X151150Y339750D02*Y338250D01*
Y339750D02*X151900Y340500D01*
X153400D01*
X154150Y339750D01*
X157450Y340500D02*Y339750D01*
Y338250D02*Y337500D01*
X155950Y342750D02*Y342000D01*
Y342750D02*X156700Y343500D01*
X158200D01*
X158950Y342750D01*
Y342000D01*
X157450Y340500D02*X158950Y342000D01*
X130000Y334250D02*X160750D01*
X0Y358500D02*X3000D01*
X1500D02*Y352500D01*
X4800Y358500D02*Y352500D01*
Y354750D02*X5550Y355500D01*
X7050D01*
X7800Y354750D01*
Y352500D01*
X10350D02*X12600D01*
X9600Y353250D02*X10350Y352500D01*
X9600Y354750D02*Y353250D01*
Y354750D02*X10350Y355500D01*
X11850D01*
X12600Y354750D01*
X9600Y354000D02*X12600D01*
Y354750D02*Y354000D01*
X15150Y354750D02*Y352500D01*
Y354750D02*X15900Y355500D01*
X17400D01*
X14400D02*X15150Y354750D01*
X19950Y352500D02*X22200D01*
X19200Y353250D02*X19950Y352500D01*
X19200Y354750D02*Y353250D01*
Y354750D02*X19950Y355500D01*
X21450D01*
X22200Y354750D01*
X19200Y354000D02*X22200D01*
Y354750D02*Y354000D01*
X28950Y355500D02*X29700Y354750D01*
X27450Y355500D02*X28950D01*
X26700Y354750D02*X27450Y355500D01*
X26700Y354750D02*Y353250D01*
X27450Y352500D01*
X29700Y355500D02*Y353250D01*
X30450Y352500D01*
X27450D02*X28950D01*
X29700Y353250D01*
X33000Y354750D02*Y352500D01*
Y354750D02*X33750Y355500D01*
X35250D01*
X32250D02*X33000Y354750D01*
X37800Y352500D02*X40050D01*
X37050Y353250D02*X37800Y352500D01*
X37050Y354750D02*Y353250D01*
Y354750D02*X37800Y355500D01*
X39300D01*
X40050Y354750D01*
X37050Y354000D02*X40050D01*
Y354750D02*Y354000D01*
X44550Y357750D02*X45300Y358500D01*
X46800D01*
X47550Y357750D01*
Y353250D01*
X46800Y352500D02*X47550Y353250D01*
X45300Y352500D02*X46800D01*
X44550Y353250D02*X45300Y352500D01*
Y355500D02*X47550D01*
X55050Y358500D02*Y352500D01*
X54300D02*X55050Y353250D01*
X52800Y352500D02*X54300D01*
X52050Y353250D02*X52800Y352500D01*
X52050Y354750D02*Y353250D01*
Y354750D02*X52800Y355500D01*
X54300D01*
X55050Y354750D01*
X56850Y357000D02*Y356250D01*
Y354750D02*Y352500D01*
X59100Y357750D02*Y352500D01*
Y357750D02*X59850Y358500D01*
X60600D01*
X58350Y355500D02*X59850D01*
X62850Y357750D02*Y352500D01*
Y357750D02*X63600Y358500D01*
X64350D01*
X62100Y355500D02*X63600D01*
X66600Y352500D02*X68850D01*
X65850Y353250D02*X66600Y352500D01*
X65850Y354750D02*Y353250D01*
Y354750D02*X66600Y355500D01*
X68100D01*
X68850Y354750D01*
X65850Y354000D02*X68850D01*
Y354750D02*Y354000D01*
X71400Y354750D02*Y352500D01*
Y354750D02*X72150Y355500D01*
X73650D01*
X70650D02*X71400Y354750D01*
X76200Y352500D02*X78450D01*
X75450Y353250D02*X76200Y352500D01*
X75450Y354750D02*Y353250D01*
Y354750D02*X76200Y355500D01*
X77700D01*
X78450Y354750D01*
X75450Y354000D02*X78450D01*
Y354750D02*Y354000D01*
X81000Y354750D02*Y352500D01*
Y354750D02*X81750Y355500D01*
X82500D01*
X83250Y354750D01*
Y352500D01*
X80250Y355500D02*X81000Y354750D01*
X85800Y358500D02*Y353250D01*
X86550Y352500D01*
X85050Y356250D02*X86550D01*
X93750Y358500D02*Y352500D01*
X93000D02*X93750Y353250D01*
X91500Y352500D02*X93000D01*
X90750Y353250D02*X91500Y352500D01*
X90750Y354750D02*Y353250D01*
Y354750D02*X91500Y355500D01*
X93000D01*
X93750Y354750D01*
X96300D02*Y352500D01*
Y354750D02*X97050Y355500D01*
X98550D01*
X95550D02*X96300Y354750D01*
X100350Y357000D02*Y356250D01*
Y354750D02*Y352500D01*
X101850Y358500D02*Y353250D01*
X102600Y352500D01*
X104100Y358500D02*Y353250D01*
X104850Y352500D01*
X109800D02*X112050D01*
X112800Y353250D01*
X112050Y354000D02*X112800Y353250D01*
X109800Y354000D02*X112050D01*
X109050Y354750D02*X109800Y354000D01*
X109050Y354750D02*X109800Y355500D01*
X112050D01*
X112800Y354750D01*
X109050Y353250D02*X109800Y352500D01*
X114600Y357000D02*Y356250D01*
Y354750D02*Y352500D01*
X116100Y355500D02*X119100D01*
X116100Y352500D02*X119100Y355500D01*
X116100Y352500D02*X119100D01*
X121650D02*X123900D01*
X120900Y353250D02*X121650Y352500D01*
X120900Y354750D02*Y353250D01*
Y354750D02*X121650Y355500D01*
X123150D01*
X123900Y354750D01*
X120900Y354000D02*X123900D01*
Y354750D02*Y354000D01*
X126450Y352500D02*X128700D01*
X129450Y353250D01*
X128700Y354000D02*X129450Y353250D01*
X126450Y354000D02*X128700D01*
X125700Y354750D02*X126450Y354000D01*
X125700Y354750D02*X126450Y355500D01*
X128700D01*
X129450Y354750D01*
X125700Y353250D02*X126450Y352500D01*
X133950Y355500D02*Y353250D01*
X134700Y352500D01*
X136200D01*
X136950Y353250D01*
Y355500D02*Y353250D01*
X139500Y352500D02*X141750D01*
X142500Y353250D01*
X141750Y354000D02*X142500Y353250D01*
X139500Y354000D02*X141750D01*
X138750Y354750D02*X139500Y354000D01*
X138750Y354750D02*X139500Y355500D01*
X141750D01*
X142500Y354750D01*
X138750Y353250D02*X139500Y352500D01*
X145050D02*X147300D01*
X144300Y353250D02*X145050Y352500D01*
X144300Y354750D02*Y353250D01*
Y354750D02*X145050Y355500D01*
X146550D01*
X147300Y354750D01*
X144300Y354000D02*X147300D01*
Y354750D02*Y354000D01*
X152100Y358500D02*Y352500D01*
X151350D02*X152100Y353250D01*
X149850Y352500D02*X151350D01*
X149100Y353250D02*X149850Y352500D01*
X149100Y354750D02*Y353250D01*
Y354750D02*X149850Y355500D01*
X151350D01*
X152100Y354750D01*
X156600Y357000D02*Y356250D01*
Y354750D02*Y352500D01*
X158850Y354750D02*Y352500D01*
Y354750D02*X159600Y355500D01*
X160350D01*
X161100Y354750D01*
Y352500D01*
X158100Y355500D02*X158850Y354750D01*
X166350Y358500D02*Y353250D01*
X167100Y352500D01*
X165600Y356250D02*X167100D01*
X168600Y358500D02*Y352500D01*
Y354750D02*X169350Y355500D01*
X170850D01*
X171600Y354750D01*
Y352500D01*
X173400Y357000D02*Y356250D01*
Y354750D02*Y352500D01*
X175650D02*X177900D01*
X178650Y353250D01*
X177900Y354000D02*X178650Y353250D01*
X175650Y354000D02*X177900D01*
X174900Y354750D02*X175650Y354000D01*
X174900Y354750D02*X175650Y355500D01*
X177900D01*
X178650Y354750D01*
X174900Y353250D02*X175650Y352500D01*
X183150Y358500D02*Y353250D01*
X183900Y352500D01*
X187650Y355500D02*X188400Y354750D01*
X186150Y355500D02*X187650D01*
X185400Y354750D02*X186150Y355500D01*
X185400Y354750D02*Y353250D01*
X186150Y352500D01*
X188400Y355500D02*Y353250D01*
X189150Y352500D01*
X186150D02*X187650D01*
X188400Y353250D01*
X190950Y355500D02*Y353250D01*
X191700Y352500D01*
X193950Y355500D02*Y351000D01*
X193200Y350250D02*X193950Y351000D01*
X191700Y350250D02*X193200D01*
X190950Y351000D02*X191700Y350250D01*
Y352500D02*X193200D01*
X193950Y353250D01*
X195750Y354750D02*Y353250D01*
Y354750D02*X196500Y355500D01*
X198000D01*
X198750Y354750D01*
Y353250D01*
X198000Y352500D02*X198750Y353250D01*
X196500Y352500D02*X198000D01*
X195750Y353250D02*X196500Y352500D01*
X200550Y355500D02*Y353250D01*
X201300Y352500D01*
X202800D01*
X203550Y353250D01*
Y355500D02*Y353250D01*
X206100Y358500D02*Y353250D01*
X206850Y352500D01*
X205350Y356250D02*X206850D01*
X208350Y351000D02*X209850Y352500D01*
X215100D02*X216600D01*
X215850Y358500D02*Y352500D01*
X214350Y357000D02*X215850Y358500D01*
X218400Y357750D02*X219150Y358500D01*
X220650D01*
X221400Y357750D01*
Y353250D01*
X220650Y352500D02*X221400Y353250D01*
X219150Y352500D02*X220650D01*
X218400Y353250D02*X219150Y352500D01*
Y355500D02*X221400D01*
X223200Y353250D02*X223950Y352500D01*
X223200Y357750D02*Y353250D01*
Y357750D02*X223950Y358500D01*
X225450D01*
X226200Y357750D01*
Y353250D01*
X225450Y352500D02*X226200Y353250D01*
X223950Y352500D02*X225450D01*
X223200Y354000D02*X226200Y357000D01*
X230700Y358500D02*Y352500D01*
Y354750D02*X231450Y355500D01*
X232950D01*
X233700Y354750D01*
Y352500D01*
X235500Y354750D02*Y353250D01*
Y354750D02*X236250Y355500D01*
X237750D01*
X238500Y354750D01*
Y353250D01*
X237750Y352500D02*X238500Y353250D01*
X236250Y352500D02*X237750D01*
X235500Y353250D02*X236250Y352500D01*
X240300Y358500D02*Y353250D01*
X241050Y352500D01*
X243300D02*X245550D01*
X242550Y353250D02*X243300Y352500D01*
X242550Y354750D02*Y353250D01*
Y354750D02*X243300Y355500D01*
X244800D01*
X245550Y354750D01*
X242550Y354000D02*X245550D01*
Y354750D02*Y354000D01*
X248100Y352500D02*X250350D01*
X251100Y353250D01*
X250350Y354000D02*X251100Y353250D01*
X248100Y354000D02*X250350D01*
X247350Y354750D02*X248100Y354000D01*
X247350Y354750D02*X248100Y355500D01*
X250350D01*
X251100Y354750D01*
X247350Y353250D02*X248100Y352500D01*
X256350Y358500D02*Y353250D01*
X257100Y352500D01*
X255600Y356250D02*X257100D01*
X258600Y354750D02*Y353250D01*
Y354750D02*X259350Y355500D01*
X260850D01*
X261600Y354750D01*
Y353250D01*
X260850Y352500D02*X261600Y353250D01*
X259350Y352500D02*X260850D01*
X258600Y353250D02*X259350Y352500D01*
X264150Y358500D02*Y353250D01*
X264900Y352500D01*
X263400Y356250D02*X264900D01*
X268650Y355500D02*X269400Y354750D01*
X267150Y355500D02*X268650D01*
X266400Y354750D02*X267150Y355500D01*
X266400Y354750D02*Y353250D01*
X267150Y352500D01*
X269400Y355500D02*Y353250D01*
X270150Y352500D01*
X267150D02*X268650D01*
X269400Y353250D01*
X271950Y358500D02*Y353250D01*
X272700Y352500D01*
G54D91*X0Y270000D02*Y10000D01*
X210000D02*Y270000D01*
X0Y10000D02*X10300D01*
X20300Y0D01*
X149700D01*
X159700Y10000D01*
X210000D01*
Y270000D02*X0D01*
G54D90*X18675Y-9500D02*X21675D01*
X22425Y-8750D01*
Y-7250D02*Y-8750D01*
X21675Y-6500D02*X22425Y-7250D01*
X19425Y-6500D02*X21675D01*
X19425Y-3500D02*Y-9500D01*
X18675Y-3500D02*X21675D01*
X22425Y-4250D01*
Y-5750D01*
X21675Y-6500D02*X22425Y-5750D01*
X24225Y-7250D02*Y-8750D01*
Y-7250D02*X24975Y-6500D01*
X26475D01*
X27225Y-7250D01*
Y-8750D01*
X26475Y-9500D02*X27225Y-8750D01*
X24975Y-9500D02*X26475D01*
X24225Y-8750D02*X24975Y-9500D01*
X31275Y-6500D02*X32025Y-7250D01*
X29775Y-6500D02*X31275D01*
X29025Y-7250D02*X29775Y-6500D01*
X29025Y-7250D02*Y-8750D01*
X29775Y-9500D01*
X32025Y-6500D02*Y-8750D01*
X32775Y-9500D01*
X29775D02*X31275D01*
X32025Y-8750D01*
X35325Y-7250D02*Y-9500D01*
Y-7250D02*X36075Y-6500D01*
X37575D01*
X34575D02*X35325Y-7250D01*
X42375Y-3500D02*Y-9500D01*
X41625D02*X42375Y-8750D01*
X40125Y-9500D02*X41625D01*
X39375Y-8750D02*X40125Y-9500D01*
X39375Y-7250D02*Y-8750D01*
Y-7250D02*X40125Y-6500D01*
X41625D01*
X42375Y-7250D01*
X46875D02*Y-8750D01*
Y-7250D02*X47625Y-6500D01*
X49125D01*
X49875Y-7250D01*
Y-8750D01*
X49125Y-9500D02*X49875Y-8750D01*
X47625Y-9500D02*X49125D01*
X46875Y-8750D02*X47625Y-9500D01*
X51675Y-6500D02*Y-8750D01*
X52425Y-9500D01*
X53925D01*
X54675Y-8750D01*
Y-6500D02*Y-8750D01*
X57225Y-3500D02*Y-8750D01*
X57975Y-9500D01*
X56475Y-5750D02*X57975D01*
X59475Y-3500D02*Y-8750D01*
X60225Y-9500D01*
X61725Y-5000D02*Y-5750D01*
Y-7250D02*Y-9500D01*
X63975Y-7250D02*Y-9500D01*
Y-7250D02*X64725Y-6500D01*
X65475D01*
X66225Y-7250D01*
Y-9500D01*
X63225Y-6500D02*X63975Y-7250D01*
X68775Y-9500D02*X71025D01*
X68025Y-8750D02*X68775Y-9500D01*
X68025Y-7250D02*Y-8750D01*
Y-7250D02*X68775Y-6500D01*
X70275D01*
X71025Y-7250D01*
X68025Y-8000D02*X71025D01*
Y-7250D02*Y-8000D01*
X75525Y-5000D02*Y-5750D01*
Y-7250D02*Y-9500D01*
X77775D02*X80025D01*
X80775Y-8750D01*
X80025Y-8000D02*X80775Y-8750D01*
X77775Y-8000D02*X80025D01*
X77025Y-7250D02*X77775Y-8000D01*
X77025Y-7250D02*X77775Y-6500D01*
X80025D01*
X80775Y-7250D01*
X77025Y-8750D02*X77775Y-9500D01*
X86025Y-3500D02*Y-8750D01*
X86775Y-9500D01*
X85275Y-5750D02*X86775D01*
X88275Y-3500D02*Y-9500D01*
Y-7250D02*X89025Y-6500D01*
X90525D01*
X91275Y-7250D01*
Y-9500D01*
X93825D02*X96075D01*
X93075Y-8750D02*X93825Y-9500D01*
X93075Y-7250D02*Y-8750D01*
Y-7250D02*X93825Y-6500D01*
X95325D01*
X96075Y-7250D01*
X93075Y-8000D02*X96075D01*
Y-7250D02*Y-8000D01*
X101325Y-6500D02*X103575D01*
X100575Y-7250D02*X101325Y-6500D01*
X100575Y-7250D02*Y-8750D01*
X101325Y-9500D01*
X103575D01*
X106125D02*X108375D01*
X105375Y-8750D02*X106125Y-9500D01*
X105375Y-7250D02*Y-8750D01*
Y-7250D02*X106125Y-6500D01*
X107625D01*
X108375Y-7250D01*
X105375Y-8000D02*X108375D01*
Y-7250D02*Y-8000D01*
X110925Y-7250D02*Y-9500D01*
Y-7250D02*X111675Y-6500D01*
X112425D01*
X113175Y-7250D01*
Y-9500D01*
X110175Y-6500D02*X110925Y-7250D01*
X115725Y-3500D02*Y-8750D01*
X116475Y-9500D01*
X114975Y-5750D02*X116475D01*
X118725Y-9500D02*X120975D01*
X117975Y-8750D02*X118725Y-9500D01*
X117975Y-7250D02*Y-8750D01*
Y-7250D02*X118725Y-6500D01*
X120225D01*
X120975Y-7250D01*
X117975Y-8000D02*X120975D01*
Y-7250D02*Y-8000D01*
X123525Y-7250D02*Y-9500D01*
Y-7250D02*X124275Y-6500D01*
X125775D01*
X122775D02*X123525Y-7250D01*
X127575Y-3500D02*Y-8750D01*
X128325Y-9500D01*
X129825Y-5000D02*Y-5750D01*
Y-7250D02*Y-9500D01*
X132075Y-7250D02*Y-9500D01*
Y-7250D02*X132825Y-6500D01*
X133575D01*
X134325Y-7250D01*
Y-9500D01*
X131325Y-6500D02*X132075Y-7250D01*
X136875Y-9500D02*X139125D01*
X136125Y-8750D02*X136875Y-9500D01*
X136125Y-7250D02*Y-8750D01*
Y-7250D02*X136875Y-6500D01*
X138375D01*
X139125Y-7250D01*
X136125Y-8000D02*X139125D01*
Y-7250D02*Y-8000D01*
X143625Y-7250D02*Y-8750D01*
Y-7250D02*X144375Y-6500D01*
X145875D01*
X146625Y-7250D01*
Y-8750D01*
X145875Y-9500D02*X146625Y-8750D01*
X144375Y-9500D02*X145875D01*
X143625Y-8750D02*X144375Y-9500D01*
X149175Y-4250D02*Y-9500D01*
Y-4250D02*X149925Y-3500D01*
X150675D01*
X148425Y-6500D02*X149925D01*
X155625Y-3500D02*Y-8750D01*
X156375Y-9500D01*
X154875Y-5750D02*X156375D01*
X157875Y-3500D02*Y-9500D01*
Y-7250D02*X158625Y-6500D01*
X160125D01*
X160875Y-7250D01*
Y-9500D01*
X162675Y-5000D02*Y-5750D01*
Y-7250D02*Y-9500D01*
X164925D02*X167175D01*
X167925Y-8750D01*
X167175Y-8000D02*X167925Y-8750D01*
X164925Y-8000D02*X167175D01*
X164175Y-7250D02*X164925Y-8000D01*
X164175Y-7250D02*X164925Y-6500D01*
X167175D01*
X167925Y-7250D01*
X164175Y-8750D02*X164925Y-9500D01*
X173175Y-7250D02*Y-11750D01*
X172425Y-6500D02*X173175Y-7250D01*
X173925Y-6500D01*
X175425D01*
X176175Y-7250D01*
Y-8750D01*
X175425Y-9500D02*X176175Y-8750D01*
X173925Y-9500D02*X175425D01*
X173175Y-8750D02*X173925Y-9500D01*
X180225Y-6500D02*X180975Y-7250D01*
X178725Y-6500D02*X180225D01*
X177975Y-7250D02*X178725Y-6500D01*
X177975Y-7250D02*Y-8750D01*
X178725Y-9500D01*
X180975Y-6500D02*Y-8750D01*
X181725Y-9500D01*
X178725D02*X180225D01*
X180975Y-8750D01*
X184275Y-3500D02*Y-8750D01*
X185025Y-9500D01*
X183525Y-5750D02*X185025D01*
X186525Y-3500D02*Y-9500D01*
Y-7250D02*X187275Y-6500D01*
X188775D01*
X189525Y-7250D01*
Y-9500D01*
X200750Y298500D02*Y292500D01*
X203000Y298500D02*X203750Y297750D01*
Y293250D01*
X203000Y292500D02*X203750Y293250D01*
X200000Y292500D02*X203000D01*
X200000Y298500D02*X203000D01*
X207800Y295500D02*X208550Y294750D01*
X206300Y295500D02*X207800D01*
X205550Y294750D02*X206300Y295500D01*
X205550Y294750D02*Y293250D01*
X206300Y292500D01*
X208550Y295500D02*Y293250D01*
X209300Y292500D01*
X206300D02*X207800D01*
X208550Y293250D01*
X211850Y298500D02*Y293250D01*
X212600Y292500D01*
X211100Y296250D02*X212600D01*
X214850Y292500D02*X217100D01*
X214100Y293250D02*X214850Y292500D01*
X214100Y294750D02*Y293250D01*
Y294750D02*X214850Y295500D01*
X216350D01*
X217100Y294750D01*
X214100Y294000D02*X217100D01*
Y294750D02*Y294000D01*
X218900Y296250D02*X219650D01*
X218900Y294750D02*X219650D01*
X224150Y298500D02*X227150D01*
X225650D02*Y292500D01*
X228950Y295500D02*Y293250D01*
X229700Y292500D01*
X231200D01*
X231950Y293250D01*
Y295500D02*Y293250D01*
X234500Y292500D02*X236750D01*
X233750Y293250D02*X234500Y292500D01*
X233750Y294750D02*Y293250D01*
Y294750D02*X234500Y295500D01*
X236000D01*
X236750Y294750D01*
X233750Y294000D02*X236750D01*
Y294750D02*Y294000D01*
X241250Y293250D02*X242000Y292500D01*
X241250Y297750D02*Y293250D01*
Y297750D02*X242000Y298500D01*
X243500D01*
X244250Y297750D01*
Y293250D01*
X243500Y292500D02*X244250Y293250D01*
X242000Y292500D02*X243500D01*
X241250Y294000D02*X244250Y297000D01*
X246050Y298500D02*X249050D01*
X246050D02*Y295500D01*
X246800Y296250D01*
X248300D01*
X249050Y295500D01*
Y293250D01*
X248300Y292500D02*X249050Y293250D01*
X246800Y292500D02*X248300D01*
X246050Y293250D02*X246800Y292500D01*
X253550Y298500D02*X255800D01*
Y293250D01*
X255050Y292500D02*X255800Y293250D01*
X254300Y292500D02*X255050D01*
X253550Y293250D02*X254300Y292500D01*
X259850Y295500D02*X260600Y294750D01*
X258350Y295500D02*X259850D01*
X257600Y294750D02*X258350Y295500D01*
X257600Y294750D02*Y293250D01*
X258350Y292500D01*
X260600Y295500D02*Y293250D01*
X261350Y292500D01*
X258350D02*X259850D01*
X260600Y293250D01*
X263900Y294750D02*Y292500D01*
Y294750D02*X264650Y295500D01*
X265400D01*
X266150Y294750D01*
Y292500D01*
X263150Y295500D02*X263900Y294750D01*
X270650Y297750D02*X271400Y298500D01*
X273650D01*
X274400Y297750D01*
Y296250D01*
X270650Y292500D02*X274400Y296250D01*
X270650Y292500D02*X274400D01*
X276200Y293250D02*X276950Y292500D01*
X276200Y297750D02*Y293250D01*
Y297750D02*X276950Y298500D01*
X278450D01*
X279200Y297750D01*
Y293250D01*
X278450Y292500D02*X279200Y293250D01*
X276950Y292500D02*X278450D01*
X276200Y294000D02*X279200Y297000D01*
X281750Y292500D02*X283250D01*
X282500Y298500D02*Y292500D01*
X281000Y297000D02*X282500Y298500D01*
X287300D02*X288050Y297750D01*
X285800Y298500D02*X287300D01*
X285050Y297750D02*X285800Y298500D01*
X285050Y297750D02*Y293250D01*
X285800Y292500D01*
X287300Y295500D02*X288050Y294750D01*
X285050Y295500D02*X287300D01*
X285800Y292500D02*X287300D01*
X288050Y293250D01*
Y294750D02*Y293250D01*
X292550D02*X293300Y292500D01*
X292550Y297750D02*Y293250D01*
Y297750D02*X293300Y298500D01*
X294800D01*
X295550Y297750D01*
Y293250D01*
X294800Y292500D02*X295550Y293250D01*
X293300Y292500D02*X294800D01*
X292550Y294000D02*X295550Y297000D01*
X297350Y297750D02*X298100Y298500D01*
X299600D01*
X300350Y297750D01*
Y293250D01*
X299600Y292500D02*X300350Y293250D01*
X298100Y292500D02*X299600D01*
X297350Y293250D02*X298100Y292500D01*
Y295500D02*X300350D01*
X302150Y296250D02*X302900D01*
X302150Y294750D02*X302900D01*
X304700Y297750D02*X305450Y298500D01*
X307700D01*
X308450Y297750D01*
Y296250D01*
X304700Y292500D02*X308450Y296250D01*
X304700Y292500D02*X308450D01*
X310250Y293250D02*X311000Y292500D01*
X310250Y294750D02*Y293250D01*
Y294750D02*X311000Y295500D01*
X312500D01*
X313250Y294750D01*
Y293250D01*
X312500Y292500D02*X313250Y293250D01*
X311000Y292500D02*X312500D01*
X310250Y296250D02*X311000Y295500D01*
X310250Y297750D02*Y296250D01*
Y297750D02*X311000Y298500D01*
X312500D01*
X313250Y297750D01*
Y296250D01*
X312500Y295500D02*X313250Y296250D01*
X315050D02*X315800D01*
X315050Y294750D02*X315800D01*
X318350Y292500D02*X319850D01*
X319100Y298500D02*Y292500D01*
X317600Y297000D02*X319100Y298500D01*
X321650Y293250D02*X322400Y292500D01*
X321650Y294750D02*Y293250D01*
Y294750D02*X322400Y295500D01*
X323900D01*
X324650Y294750D01*
Y293250D01*
X323900Y292500D02*X324650Y293250D01*
X322400Y292500D02*X323900D01*
X321650Y296250D02*X322400Y295500D01*
X321650Y297750D02*Y296250D01*
Y297750D02*X322400Y298500D01*
X323900D01*
X324650Y297750D01*
Y296250D01*
X323900Y295500D02*X324650Y296250D01*
X329150Y297750D02*Y292500D01*
Y297750D02*X329900Y298500D01*
X332150D01*
X332900Y297750D01*
Y292500D01*
X329150Y295500D02*X332900D01*
X334700Y298500D02*Y292500D01*
Y298500D02*X336950Y296250D01*
X339200Y298500D01*
Y292500D01*
X346700Y298500D02*X347450Y297750D01*
X344450Y298500D02*X346700D01*
X343700Y297750D02*X344450Y298500D01*
X343700Y297750D02*Y293250D01*
X344450Y292500D01*
X346700D01*
X347450Y293250D01*
Y294750D02*Y293250D01*
X346700Y295500D02*X347450Y294750D01*
X345200Y295500D02*X346700D01*
X349250Y298500D02*Y292500D01*
Y298500D02*X351500Y296250D01*
X353750Y298500D01*
Y292500D01*
X355550Y298500D02*X358550D01*
X357050D02*Y292500D01*
X363050Y298500D02*Y293250D01*
X363800Y292500D01*
X365300D01*
X366050Y293250D01*
Y298500D02*Y293250D01*
X367850Y298500D02*X370850D01*
X369350D02*Y292500D01*
X373400D02*X375650D01*
X372650Y293250D02*X373400Y292500D01*
X372650Y297750D02*Y293250D01*
Y297750D02*X373400Y298500D01*
X375650D01*
X200000Y312750D02*Y307500D01*
Y312750D02*X200750Y313500D01*
X203000D01*
X203750Y312750D01*
Y307500D01*
X200000Y310500D02*X203750D01*
X205550D02*Y308250D01*
X206300Y307500D01*
X207800D01*
X208550Y308250D01*
Y310500D02*Y308250D01*
X211100Y313500D02*Y308250D01*
X211850Y307500D01*
X210350Y311250D02*X211850D01*
X213350Y313500D02*Y307500D01*
Y309750D02*X214100Y310500D01*
X215600D01*
X216350Y309750D01*
Y307500D01*
X218150Y309750D02*Y308250D01*
Y309750D02*X218900Y310500D01*
X220400D01*
X221150Y309750D01*
Y308250D01*
X220400Y307500D02*X221150Y308250D01*
X218900Y307500D02*X220400D01*
X218150Y308250D02*X218900Y307500D01*
X223700Y309750D02*Y307500D01*
Y309750D02*X224450Y310500D01*
X225950D01*
X222950D02*X223700Y309750D01*
X227750Y311250D02*X228500D01*
X227750Y309750D02*X228500D01*
X233000Y313500D02*Y307500D01*
Y313500D02*X235250Y311250D01*
X237500Y313500D01*
Y307500D01*
X239300Y312000D02*Y311250D01*
Y309750D02*Y307500D01*
X241550Y310500D02*X243800D01*
X240800Y309750D02*X241550Y310500D01*
X240800Y309750D02*Y308250D01*
X241550Y307500D01*
X243800D01*
X245600Y313500D02*Y307500D01*
Y309750D02*X246350Y310500D01*
X247850D01*
X248600Y309750D01*
Y307500D01*
X252650Y310500D02*X253400Y309750D01*
X251150Y310500D02*X252650D01*
X250400Y309750D02*X251150Y310500D01*
X250400Y309750D02*Y308250D01*
X251150Y307500D01*
X253400Y310500D02*Y308250D01*
X254150Y307500D01*
X251150D02*X252650D01*
X253400Y308250D01*
X256700Y307500D02*X258950D01*
X255950Y308250D02*X256700Y307500D01*
X255950Y309750D02*Y308250D01*
Y309750D02*X256700Y310500D01*
X258200D01*
X258950Y309750D01*
X255950Y309000D02*X258950D01*
Y309750D02*Y309000D01*
X260750Y313500D02*Y308250D01*
X261500Y307500D01*
X266450Y313500D02*Y307500D01*
X265700Y313500D02*X268700D01*
X269450Y312750D01*
Y311250D01*
X268700Y310500D02*X269450Y311250D01*
X266450Y310500D02*X268700D01*
X272000Y307500D02*X274250D01*
X271250Y308250D02*X272000Y307500D01*
X271250Y309750D02*Y308250D01*
Y309750D02*X272000Y310500D01*
X273500D01*
X274250Y309750D01*
X271250Y309000D02*X274250D01*
Y309750D02*Y309000D01*
X276800Y313500D02*Y308250D01*
X277550Y307500D01*
X276050Y311250D02*X277550D01*
X279800Y307500D02*X282050D01*
X279050Y308250D02*X279800Y307500D01*
X279050Y309750D02*Y308250D01*
Y309750D02*X279800Y310500D01*
X281300D01*
X282050Y309750D01*
X279050Y309000D02*X282050D01*
Y309750D02*Y309000D01*
X284600Y309750D02*Y307500D01*
Y309750D02*X285350Y310500D01*
X286850D01*
X283850D02*X284600Y309750D01*
X289400Y307500D02*X291650D01*
X292400Y308250D01*
X291650Y309000D02*X292400Y308250D01*
X289400Y309000D02*X291650D01*
X288650Y309750D02*X289400Y309000D01*
X288650Y309750D02*X289400Y310500D01*
X291650D01*
X292400Y309750D01*
X288650Y308250D02*X289400Y307500D01*
X294950D02*X297200D01*
X294200Y308250D02*X294950Y307500D01*
X294200Y309750D02*Y308250D01*
Y309750D02*X294950Y310500D01*
X296450D01*
X297200Y309750D01*
X294200Y309000D02*X297200D01*
Y309750D02*Y309000D01*
X299750Y309750D02*Y307500D01*
Y309750D02*X300500Y310500D01*
X301250D01*
X302000Y309750D01*
Y307500D01*
X299000Y310500D02*X299750Y309750D01*
X200000Y328500D02*X203000D01*
X201500D02*Y322500D01*
X204800Y327000D02*Y326250D01*
Y324750D02*Y322500D01*
X207050Y328500D02*Y323250D01*
X207800Y322500D01*
X206300Y326250D02*X207800D01*
X209300Y328500D02*Y323250D01*
X210050Y322500D01*
X212300D02*X214550D01*
X211550Y323250D02*X212300Y322500D01*
X211550Y324750D02*Y323250D01*
Y324750D02*X212300Y325500D01*
X213800D01*
X214550Y324750D01*
X211550Y324000D02*X214550D01*
Y324750D02*Y324000D01*
X216350Y326250D02*X217100D01*
X216350Y324750D02*X217100D01*
X221600Y323250D02*X222350Y322500D01*
X221600Y327750D02*X222350Y328500D01*
X221600Y327750D02*Y323250D01*
X224150Y325500D02*Y323250D01*
X224900Y322500D01*
X226400D01*
X227150Y323250D01*
Y325500D02*Y323250D01*
X229700Y324750D02*Y322500D01*
Y324750D02*X230450Y325500D01*
X231200D01*
X231950Y324750D01*
Y322500D01*
X228950Y325500D02*X229700Y324750D01*
X233750Y328500D02*Y322500D01*
Y324750D02*X236000Y322500D01*
X233750Y324750D02*X235250Y326250D01*
X238550Y324750D02*Y322500D01*
Y324750D02*X239300Y325500D01*
X240050D01*
X240800Y324750D01*
Y322500D01*
X237800Y325500D02*X238550Y324750D01*
X242600D02*Y323250D01*
Y324750D02*X243350Y325500D01*
X244850D01*
X245600Y324750D01*
Y323250D01*
X244850Y322500D02*X245600Y323250D01*
X243350Y322500D02*X244850D01*
X242600Y323250D02*X243350Y322500D01*
X247400Y325500D02*Y323250D01*
X248150Y322500D01*
X248900D01*
X249650Y323250D01*
Y325500D02*Y323250D01*
X250400Y322500D01*
X251150D01*
X251900Y323250D01*
Y325500D02*Y323250D01*
X254450Y324750D02*Y322500D01*
Y324750D02*X255200Y325500D01*
X255950D01*
X256700Y324750D01*
Y322500D01*
X253700Y325500D02*X254450Y324750D01*
X258500Y328500D02*X259250Y327750D01*
Y323250D01*
X258500Y322500D02*X259250Y323250D01*
X263750Y325500D02*X266750D01*
X271250Y328500D02*Y322500D01*
Y328500D02*X274250D01*
X271250Y325500D02*X273500D01*
X278300D02*X279050Y324750D01*
X276800Y325500D02*X278300D01*
X276050Y324750D02*X276800Y325500D01*
X276050Y324750D02*Y323250D01*
X276800Y322500D01*
X279050Y325500D02*Y323250D01*
X279800Y322500D01*
X276800D02*X278300D01*
X279050Y323250D01*
X281600Y328500D02*Y322500D01*
Y323250D02*X282350Y322500D01*
X283850D01*
X284600Y323250D01*
Y324750D02*Y323250D01*
X283850Y325500D02*X284600Y324750D01*
X282350Y325500D02*X283850D01*
X281600Y324750D02*X282350Y325500D01*
X287150Y324750D02*Y322500D01*
Y324750D02*X287900Y325500D01*
X289400D01*
X286400D02*X287150Y324750D01*
X291200Y327000D02*Y326250D01*
Y324750D02*Y322500D01*
X293450Y325500D02*X295700D01*
X292700Y324750D02*X293450Y325500D01*
X292700Y324750D02*Y323250D01*
X293450Y322500D01*
X295700D01*
X299750Y325500D02*X300500Y324750D01*
X298250Y325500D02*X299750D01*
X297500Y324750D02*X298250Y325500D01*
X297500Y324750D02*Y323250D01*
X298250Y322500D01*
X300500Y325500D02*Y323250D01*
X301250Y322500D01*
X298250D02*X299750D01*
X300500Y323250D01*
X303800Y328500D02*Y323250D01*
X304550Y322500D01*
X303050Y326250D02*X304550D01*
X306050Y327000D02*Y326250D01*
Y324750D02*Y322500D01*
X307550Y324750D02*Y323250D01*
Y324750D02*X308300Y325500D01*
X309800D01*
X310550Y324750D01*
Y323250D01*
X309800Y322500D02*X310550Y323250D01*
X308300Y322500D02*X309800D01*
X307550Y323250D02*X308300Y322500D01*
X313100Y324750D02*Y322500D01*
Y324750D02*X313850Y325500D01*
X314600D01*
X315350Y324750D01*
Y322500D01*
X312350Y325500D02*X313100Y324750D01*
X320600Y328500D02*Y322500D01*
X322850Y328500D02*X323600Y327750D01*
Y323250D01*
X322850Y322500D02*X323600Y323250D01*
X319850Y322500D02*X322850D01*
X319850Y328500D02*X322850D01*
X326150Y324750D02*Y322500D01*
Y324750D02*X326900Y325500D01*
X328400D01*
X325400D02*X326150Y324750D01*
X332450Y325500D02*X333200Y324750D01*
X330950Y325500D02*X332450D01*
X330200Y324750D02*X330950Y325500D01*
X330200Y324750D02*Y323250D01*
X330950Y322500D01*
X333200Y325500D02*Y323250D01*
X333950Y322500D01*
X330950D02*X332450D01*
X333200Y323250D01*
X335750Y325500D02*Y323250D01*
X336500Y322500D01*
X337250D01*
X338000Y323250D01*
Y325500D02*Y323250D01*
X338750Y322500D01*
X339500D01*
X340250Y323250D01*
Y325500D02*Y323250D01*
X342050Y327000D02*Y326250D01*
Y324750D02*Y322500D01*
X344300Y324750D02*Y322500D01*
Y324750D02*X345050Y325500D01*
X345800D01*
X346550Y324750D01*
Y322500D01*
X343550Y325500D02*X344300Y324750D01*
X350600Y325500D02*X351350Y324750D01*
X349100Y325500D02*X350600D01*
X348350Y324750D02*X349100Y325500D01*
X348350Y324750D02*Y323250D01*
X349100Y322500D01*
X350600D01*
X351350Y323250D01*
X348350Y321000D02*X349100Y320250D01*
X350600D01*
X351350Y321000D01*
Y325500D02*Y321000D01*
M02*
