G04 start of page 10 for group -4015 idx -4015 *
G04 Title: (unknown), toppaste *
G04 Creator: pcb 20110918 *
G04 CreationDate: Tue 05 Jan 2016 03:28:18 AM GMT UTC *
G04 For: railfan *
G04 Format: Gerber/RS-274X *
G04 PCB-Dimensions: 210000 270000 *
G04 PCB-Coordinate-Origin: lower left *
%MOIN*%
%FSLAX25Y25*%
%LNTOPPASTE*%
%ADD88R,0.0256X0.0256*%
%ADD87R,0.0236X0.0236*%
%ADD86R,0.0394X0.0394*%
%ADD85R,0.0315X0.0315*%
%ADD84R,0.0276X0.0276*%
%ADD83R,0.0300X0.0300*%
%ADD82C,0.0600*%
%ADD81R,0.0945X0.0945*%
%ADD80R,0.0378X0.0378*%
%ADD79C,0.0001*%
%ADD78R,0.0110X0.0110*%
%ADD77R,0.0512X0.0512*%
%ADD76R,0.0167X0.0167*%
%ADD75R,0.0200X0.0200*%
%ADD74R,0.0500X0.0500*%
G54D74*X172760Y100000D02*X179413D01*
X158587Y90000D02*X165240D01*
X172760Y80000D02*X179413D01*
X158587Y70000D02*X165240D01*
G54D75*X165000Y113000D02*X171500D01*
X165000Y118000D02*X171500D01*
X165000Y123000D02*X171500D01*
X165000Y128000D02*X171500D01*
X165000Y133000D02*X171500D01*
X165000Y138000D02*X171500D01*
X165000Y143000D02*X171500D01*
X165000Y148000D02*X171500D01*
X144500D02*X151000D01*
X144500Y143000D02*X151000D01*
X144500Y138000D02*X151000D01*
X144500Y133000D02*X151000D01*
X144500Y128000D02*X151000D01*
X144500Y123000D02*X151000D01*
X144500Y118000D02*X151000D01*
X144500Y113000D02*X151000D01*
G54D74*X168000Y165240D02*Y158587D01*
X158000Y179413D02*Y172760D01*
X148000Y165240D02*Y158587D01*
X138000Y179413D02*Y172760D01*
G54D76*X136217Y82224D02*X138087D01*
X136217Y79075D02*X138087D01*
X136217Y75925D02*X138087D01*
X136217Y72776D02*X138087D01*
X142913D02*X144783D01*
X142913Y75925D02*X144783D01*
X142913Y79075D02*X144783D01*
X142913Y82224D02*X144783D01*
G54D77*X147607Y96957D02*X148393D01*
X147607Y104043D02*X148393D01*
G54D78*X107169Y245563D02*X109413D01*
X107169Y247531D02*X109413D01*
X107169Y249500D02*X109413D01*
X107169Y251469D02*X109413D01*
X107169Y253437D02*X109413D01*
X104453Y257413D02*Y255169D01*
X98547Y257413D02*Y255169D01*
X93587Y253437D02*X95831D01*
X93587Y251469D02*X95831D01*
X93587Y249500D02*X95831D01*
X93587Y247531D02*X95831D01*
X93587Y245563D02*X95831D01*
X98547Y243831D02*Y241587D01*
X104453Y243831D02*Y241587D01*
G54D79*G36*
X102091Y248909D02*Y245681D01*
X105319D01*
Y248909D01*
X102091D01*
G37*
G36*
X97681D02*Y245681D01*
X100909D01*
Y248909D01*
X97681D01*
G37*
G36*
X102091Y253319D02*Y250091D01*
X105319D01*
Y253319D01*
X102091D01*
G37*
G36*
X97681D02*Y250091D01*
X100909D01*
Y253319D01*
X97681D01*
G37*
G54D80*X21095Y253406D02*X25189D01*
X21095Y247500D02*X32905D01*
G54D81*X34639D02*X36529D01*
G54D79*G36*
X27074Y249385D02*X29914Y252225D01*
X31334Y250805D01*
X28494Y247965D01*
X27074Y249385D01*
G37*
G36*
X28494Y247035D02*X31334Y244195D01*
X29914Y242775D01*
X27074Y245615D01*
X28494Y247035D01*
G37*
G54D80*X21095Y241594D02*X25189D01*
G54D82*X33400Y178000D03*
G54D83*X31900Y179500D02*Y176500D01*
G54D82*X26600Y178000D03*
G54D83*X28100Y179500D02*Y176500D01*
G54D77*X35043Y231893D02*Y231107D01*
X27957Y231893D02*Y231107D01*
X54607Y254957D02*X55393D01*
X54607Y262043D02*X55393D01*
X13607Y197543D02*X14393D01*
X13607Y190457D02*X14393D01*
X13607Y179043D02*X14393D01*
X13607Y171957D02*X14393D01*
X108607Y224457D02*X109393D01*
X108607Y231543D02*X109393D01*
G54D74*X196760Y255000D02*X203413D01*
X182587Y245000D02*X189240D01*
X196760Y235000D02*X203413D01*
X182587Y225000D02*X189240D01*
G54D77*X157043Y195893D02*Y195107D01*
X149957Y195893D02*Y195107D01*
G54D84*X136001Y206122D02*Y204153D01*
X140331Y206122D02*Y204153D01*
X144662Y206122D02*Y204153D01*
X148993Y206122D02*Y204153D01*
X153324Y206122D02*Y204153D01*
X157654Y206122D02*Y204153D01*
X161985Y206122D02*Y204153D01*
X166316Y206122D02*Y204153D01*
X170647Y206122D02*Y204153D01*
G54D85*X173403Y246476D02*X174189D01*
G54D86*X173796Y222460D02*Y221672D01*
X173795Y266358D02*Y259270D01*
G54D77*X120646Y265769D02*Y263406D01*
G54D86*X129899Y205531D02*Y204743D01*
G54D87*X58500Y224000D02*X62240D01*
X58500Y219000D02*X62240D01*
X58500Y214000D02*X62240D01*
X58500Y209000D02*X62240D01*
X79760D02*X83500D01*
X79760Y214000D02*X83500D01*
X79760Y219000D02*X83500D01*
X79760Y224000D02*X83500D01*
G54D88*X54563D02*X58697D01*
X54563Y219000D02*X58697D01*
X54563Y214000D02*X58697D01*
X54563Y209000D02*X58697D01*
X83303D02*X87437D01*
X83303Y214000D02*X87437D01*
X83303Y219000D02*X87437D01*
X83303Y224000D02*X87437D01*
G54D77*X46607Y207957D02*X47393D01*
X46607Y215043D02*X47393D01*
G54D87*X58500Y199000D02*X62240D01*
X58500Y194000D02*X62240D01*
X58500Y189000D02*X62240D01*
X58500Y184000D02*X62240D01*
X79760D02*X83500D01*
X79760Y189000D02*X83500D01*
X79760Y194000D02*X83500D01*
X79760Y199000D02*X83500D01*
G54D88*X54563D02*X58697D01*
X54563Y194000D02*X58697D01*
X54563Y189000D02*X58697D01*
X54563Y184000D02*X58697D01*
X83303D02*X87437D01*
X83303Y189000D02*X87437D01*
X83303Y194000D02*X87437D01*
X83303Y199000D02*X87437D01*
G54D77*X46607Y182957D02*X47393D01*
X46607Y190043D02*X47393D01*
G54D87*X58500Y174000D02*X62240D01*
X58500Y169000D02*X62240D01*
X58500Y164000D02*X62240D01*
X58500Y159000D02*X62240D01*
X79760D02*X83500D01*
X79760Y164000D02*X83500D01*
X79760Y169000D02*X83500D01*
X79760Y174000D02*X83500D01*
G54D88*X54563D02*X58697D01*
X54563Y169000D02*X58697D01*
X54563Y164000D02*X58697D01*
X54563Y159000D02*X58697D01*
X83303D02*X87437D01*
X83303Y164000D02*X87437D01*
X83303Y169000D02*X87437D01*
X83303Y174000D02*X87437D01*
G54D77*X46607Y157957D02*X47393D01*
X46607Y165043D02*X47393D01*
G54D87*X58500Y149000D02*X62240D01*
X58500Y144000D02*X62240D01*
X58500Y139000D02*X62240D01*
X58500Y134000D02*X62240D01*
X79760D02*X83500D01*
X79760Y139000D02*X83500D01*
X79760Y144000D02*X83500D01*
X79760Y149000D02*X83500D01*
G54D88*X54563D02*X58697D01*
X54563Y144000D02*X58697D01*
X54563Y139000D02*X58697D01*
X54563Y134000D02*X58697D01*
X83303D02*X87437D01*
X83303Y139000D02*X87437D01*
X83303Y144000D02*X87437D01*
X83303Y149000D02*X87437D01*
G54D77*X46607Y132957D02*X47393D01*
X46607Y140043D02*X47393D01*
G54D87*X58500Y124000D02*X62240D01*
X58500Y119000D02*X62240D01*
X58500Y114000D02*X62240D01*
X58500Y109000D02*X62240D01*
X79760D02*X83500D01*
X79760Y114000D02*X83500D01*
X79760Y119000D02*X83500D01*
X79760Y124000D02*X83500D01*
G54D88*X54563D02*X58697D01*
X54563Y119000D02*X58697D01*
X54563Y114000D02*X58697D01*
X54563Y109000D02*X58697D01*
X83303D02*X87437D01*
X83303Y114000D02*X87437D01*
X83303Y119000D02*X87437D01*
X83303Y124000D02*X87437D01*
G54D77*X46607Y107957D02*X47393D01*
X46607Y115043D02*X47393D01*
G54D87*X58500Y99000D02*X62240D01*
X58500Y94000D02*X62240D01*
X58500Y89000D02*X62240D01*
X58500Y84000D02*X62240D01*
X79760D02*X83500D01*
X79760Y89000D02*X83500D01*
X79760Y94000D02*X83500D01*
X79760Y99000D02*X83500D01*
G54D88*X54563D02*X58697D01*
X54563Y94000D02*X58697D01*
X54563Y89000D02*X58697D01*
X54563Y84000D02*X58697D01*
X83303D02*X87437D01*
X83303Y89000D02*X87437D01*
X83303Y94000D02*X87437D01*
X83303Y99000D02*X87437D01*
G54D77*X46607Y82957D02*X47393D01*
X46607Y90043D02*X47393D01*
G54D87*X58500Y74000D02*X62240D01*
X58500Y69000D02*X62240D01*
X58500Y64000D02*X62240D01*
X58500Y59000D02*X62240D01*
X79760D02*X83500D01*
X79760Y64000D02*X83500D01*
X79760Y69000D02*X83500D01*
X79760Y74000D02*X83500D01*
G54D88*X54563D02*X58697D01*
X54563Y69000D02*X58697D01*
X54563Y64000D02*X58697D01*
X54563Y59000D02*X58697D01*
X83303D02*X87437D01*
X83303Y64000D02*X87437D01*
X83303Y69000D02*X87437D01*
X83303Y74000D02*X87437D01*
G54D77*X46607Y57957D02*X47393D01*
X46607Y65043D02*X47393D01*
G54D87*X58500Y49000D02*X62240D01*
X58500Y44000D02*X62240D01*
X58500Y39000D02*X62240D01*
X58500Y34000D02*X62240D01*
X79760D02*X83500D01*
X79760Y39000D02*X83500D01*
X79760Y44000D02*X83500D01*
X79760Y49000D02*X83500D01*
G54D88*X54563D02*X58697D01*
X54563Y44000D02*X58697D01*
X54563Y39000D02*X58697D01*
X54563Y34000D02*X58697D01*
X83303D02*X87437D01*
X83303Y39000D02*X87437D01*
X83303Y44000D02*X87437D01*
X83303Y49000D02*X87437D01*
G54D77*X46607Y32957D02*X47393D01*
X46607Y40043D02*X47393D01*
M02*
